/* XPM */
static char *Group_2_resized[] = {
/* columns rows colors chars-per-pixel */
"80 80 180 2 ",
"   c #2F5216",
".  c #335C18",
"X  c #37631B",
"o  c #39661B",
"O  c #3D6D1D",
"+  c #3F711F",
"@  c #3E7320",
"#  c #3F7922",
"$  c #41751F",
"%  c #4B741B",
"&  c #43781F",
"*  c #4D7B1E",
"=  c #5C7717",
"-  c #527D1D",
";  c #5B7D1A",
":  c #667512",
">  c #6C7D13",
",  c #747D11",
"<  c #417620",
"1  c #457C21",
"2  c #497E21",
"3  c #837C0B",
"4  c #9E7100",
"5  c #A37500",
"6  c #A77900",
"7  c #AB7D00",
"8  c #B07E00",
"9  c #54821E",
"0  c #5A851D",
"q  c #638617",
"w  c #6B8216",
"e  c #63851A",
"r  c #638A1C",
"t  c #6B8C1A",
"y  c #728314",
"u  c #7B8411",
"i  c #748A15",
"p  c #7A8D14",
"a  c #718C18",
"s  c #6E9016",
"d  c #7C9719",
"f  c #7D9919",
"g  c #478122",
"h  c #498423",
"j  c #478825",
"k  c #4C8A24",
"l  c #528520",
"z  c #598720",
"x  c #548B22",
"c  c #5A8D20",
"v  c #8C830B",
"b  c #89860E",
"n  c #9F8807",
"m  c #94940E",
"M  c #97970E",
"N  c #828B12",
"B  c #8A8D10",
"V  c #869314",
"C  c #8C9211",
"Z  c #859E12",
"A  c #8C9913",
"S  c #969E10",
"D  c #9D9C10",
"F  c #A48404",
"G  c #AE8000",
"H  c #AB8C05",
"J  c #B38400",
"K  c #B48B02",
"L  c #BB8C00",
"P  c #A19C0D",
"I  c #B49204",
"U  c #BE9200",
"Y  c #B79B06",
"T  c #BA9C05",
"R  c #B59D09",
"E  c #A19E10",
"W  c #96A512",
"Q  c #9DAD13",
"!  c #A2AA0E",
"~  c #BCA509",
"^  c #ABB40F",
"/  c #A4A619",
"(  c #C18E00",
")  c #C39400",
"_  c #C69901",
"`  c #CB9B00",
"'  c #D49E00",
"]  c #C3A506",
"[  c #CDA200",
"{  c #C7A807",
"}  c #CCAC01",
"|  c #C2A708",
" . c #C9AC09",
".. c #D3A400",
"X. c #D8A400",
"o. c #D4AB00",
"O. c #DDAD00",
"+. c #C9B306",
"@. c #CCBB07",
"#. c #C0B009",
"$. c #CAB608",
"%. c #CCBC08",
"&. c #D4B200",
"*. c #DDB300",
"=. c #D4B902",
"-. c #DCBC02",
";. c #D8B70C",
":. c #E0AE00",
">. c #E3B300",
",. c #E9B500",
"<. c #E5B900",
"1. c #ECBC00",
"2. c #C9AD2C",
"3. c #CFB728",
"4. c #D7BB3F",
"5. c #C5C808",
"6. c #D3C505",
"7. c #DDC000",
"8. c #DFC800",
"9. c #CFD206",
"0. c #DDD103",
"q. c #DAD609",
"w. c #CDC21A",
"e. c #DBD013",
"r. c #E3C401",
"t. c #EBC300",
"y. c #E3CC00",
"u. c #ECCA00",
"i. c #F4C400",
"p. c #FBC600",
"a. c #F3CB00",
"s. c #FCCD00",
"d. c #E7D400",
"f. c #ECD501",
"g. c #E2D800",
"h. c #EDDB00",
"j. c #E8D20E",
"k. c #F4D300",
"l. c #FED300",
"z. c #F3DC01",
"x. c #FCDC00",
"c. c #E9D912",
"v. c #EEE300",
"b. c #F4E400",
"n. c #FCE300",
"m. c #F4EA00",
"M. c #FCEB00",
"N. c #F9E20E",
"B. c #FFEB0D",
"V. c #FEF401",
"C. c #FFFB01",
"Z. c #FFFC0A",
"A. c #FAE91D",
"S. c #FFF817",
"D. c #FDF219",
"F. c #E1CC26",
"G. c #ECD330",
"H. c #EEDE33",
"J. c #F4DB3C",
"K. c #F8E126",
"L. c #FDF725",
"P. c #DFC94E",
"I. c #F8E647",
"U. c #FBF345",
"Y. c #FFFC49",
"T. c #E8E157",
"R. c #F8E75C",
"E. c #FFF953",
"W. c #FFF15F",
"Q. c #F3E669",
"!. c #FFFF66",
"~. c #FBF669",
"^. c #FFFE6C",
"/. c #F4EF78",
"(. c #FEF87A",
"). c #F8EE8F",
"_. c #FAF190",
"`. c #FEFBAB",
"'. c #FDFBB6",
"]. c #FAF5C6",
/* pixels */
"  X $ O + @ + $ $ O O $ & $ & $ $ $ $ $ O O $ 1 & $ $ $ + O O O $ < < + O 1 $ O X O @ O + + + @ $ O O $ < < $ $ $ $ < $ O O + 1 < < < < + O O + + < < < $ < O . ",
"o O $ $ < < + + + + + 1 & & $ + + < < $ O O < < $ + $ + @ < 1 1 1 < < + $ 1 1 1 < < @ < < < @ + $ O $ & < < < $ $ $ < + O $ $ $ < + + + + < 1 1 1 < @ + $ < $ O ",
"& & $ & 1 1 @ + $ $ & 1 1 1 1 & @ < @ O $ 1 1 < < @ O + < g k k k 2 < O + 1 h k k 2 < 1 2 2 @ + $ $ & 1 1 1 < < $ < < O $ < 1 < < + O $ < g j k k g < O $ 1 1 < ",
"$ & h k k 1 < < & $ & g h h k k k g < @ 1 h h h g 1 h g g g 2 k h h g < $ g h h 2 h h j g g < @ < $ $ h h k k k h h $ O 1 h k h g 2 2 h 2 2 h h k g 2 < < h < $ ",
"$ $ 2 h h h g g h 1 1 g k k k h k k 1 g k k k k k h k k h 2 1 1 1 2 g h 1 h g h 2 h 2 2 k j h 2 h 1 1 1 k k k k k k h g k k k k k k k k j 2 1 2 1 1 k 2 1 2 < < ",
"$ $ $ $ g x k k h h h g k k 1 1 1 k k k k k k k k k k k h 1 < 1 + < g k h 1 h h g 1 < < 2 k k k h h h h k k 1 1 1 k k k k k k k k k k h h 1 < 1 + < h k j 1 < < ",
"O $ $ & 1 1 1 1 1 < < < < 1 h h h g g < < 1 h h k k k h h < < < + O 1 k k 1 $ 1 1 1 @ 1 1 1 1 1 1 < < < < 1 h k k g g < 1 1 g h h k k k h < < < O $ 2 k k 1 $ o ",
"O O $ & 1 < < < + @ + < + @ 1 h k k 1 1 < < < < 1 k k k h h g h 1 < h k k < + $ 1 < < 2 1 < + < + + @ < + < < g k g 1 1 < < < < 1 k k k k g 2 h < < g k h < o X ",
"O $ < 1 1 + + + + @ @ + @ + O < g g h k h g < + & h k k k k k k g g k k h + < 2 1 1 < 2 1 < + + + < @ @ @ @ O < g 1 h k h 1 < + 1 k k k k k k k g k k k h O O O ",
"O $ < 1 1 < @ + O $ < O < < < g h h k k k h 1 h k k k k h h h h 1 < 1 g j 2 h h 1 < < 1 1 < + + O O $ @ @ 1 1 2 k g k k k k 1 h k k k k g 2 g k 1 < < h h h 1 $ ",
"O $ < 2 h 1 < @ < 1 1 < 1 g k k k h k k k h h k k k k h & h h h < o + 1 k h k k g < < 2 j 2 < < < 1 1 < < g j k k g k k k k h k k k k k 1 2 g h < o O 1 k h 1 $ ",
"$ $ < k k k 1 1 2 k k k k g k k k g h k 1 g k 1 h k k 2 $ h k k < O < g k < 1 j k 2 < j k k 1 < 2 k k k g k k k k g k k < g k 1 g k k g < g k k < + + h k $ $ $ ",
"O O $ 2 k k k g < < g k g 2 k g 1 k k k k k k g h x k k h k k k g 2 j k k 1 1 2 g 1 < 2 j k k 2 < < g x g 2 k g 1 k k k k k k 1 g k k k g k k k g 1 g k k 1 $ $ ",
"O $ 1 1 g k k g < @ 2 k 1 1 k g < k 1 1 k k k k h h k k k k k k j k k j h 2 h h 1 1 1 1 h k k h < O 2 k g 1 k 1 1 k 1 1 k k k h 2 k k k k k k k k k k k h 1 1 O ",
"$ 1 h h k k g k k 2 1 k g 2 g k k h < + < k k 1 < 1 g k k k k g 1 2 2 2 2 2 k k g g h k k k h h k 1 1 k g 2 2 k k g < O 1 k k < < 1 g j k k j 2 1 2 2 2 h h g < ",
"$ & h h k k j g k k k g g k g k k < + + < < 1 @ @ < 2 < < 1 h h g 2 h h k k k k h h j 2 k k h j k k j g g g k k k 1 @ + < < 1 < @ 1 1 1 1 2 g k g g g k h k g & ",
"O & h < 1 k k g k k g < 1 g j k k 1 < < < < 1 < < 2 2 1 < 2 h k k k k k k k k k g g k < 1 k g k k k g 2 1 g k k k 1 < < < < 1 < < 1 2 < < 2 2 k k k k j k k 1 & ",
"& & 1 O $ 2 1 1 g < @ < < < 2 k k k g 2 2 g k j k g g k k k k k k j k 1 < g k k k 2 < @ < 1 1 1 g < @ @ + < g k k k h 1 1 g k k k k j k k k k k k k k < < h 1 < ",
"$ & 1 < < < 1 1 1 < < 1 $ + 2 k k k h 2 1 2 g k k k k k 2 j h h 2 1 g 1 @ < g k k 2 2 < < < 1 1 1 < @ 1 + + 1 k k k k 2 1 1 g k k k x k 2 g k k 1 1 g 1 $ < & & ",
"$ 1 k h 1 1 1 1 < < 2 g < + 2 j k g k h 1 2 2 k k k k k < 1 h h < @ 1 2 1 @ 1 k g g k g 1 1 1 < < < 2 g < @ 2 k k g g k 2 1 g k k j k g < 2 g k 1 < 1 g 1 $ $ & ",
"< 1 g g k k g g g 1 < @ + < k k g g g k j k k g g k g k k k k k k k k k k 1 g j j j 2 j k k g j 2 1 @ @ + < k k g g k k k k k 2 g k g k k k k k k k k k k 1 & $ ",
"< 1 k k k g k k k g 1 < 1 2 k k h 1 2 j j 2 g g g k 1 g h g k g g 2 l s Z W Q Q Q Q A V t l g g j 1 1 1 1 1 k k g < 2 k k 2 g g g g g g g g k k h h 2 k k h 1 & ",
"$ 1 k k g g g k k k k k k k j k j < 1 2 < < < k k < g < @ < 2 9 0 q p / w.j.z.x.x.k.r.$.D u t c x x j k k k k k k @ < 2 1 < < k k 2 1 1 < < 1 1 1 < < h k h 1 & ",
"$ & 2 g k k g 1 g g k k k k k 2 1 < < < < 2 g k k < < < < @ 0 ! 5.q.e.T./.U.S.V.C.V.n.k.u.-.q.5.W r j k k k k 2 2 < < < @ 1 g k g < < 1 1 < < < + < 1 h h 2 < + ",
"$ & 2 h h g 1 1 1 g 1 1 g k k 2 1 2 1 < 1 2 j k 2 @ @ < - f ^ e.U.!.E.W.R.H.c.d.d.d.z.k.l.n.n.x.$.^ f * 2 k h 2 1 g 1 < 1 2 j k g + @ < 1 < @ + O + g h g g & + ",
"O 1 k k g + < g g g < @ 2 k g g k k k h k k k k g 1 < % i 9.C.A._.].).J.t.-.&.} } &.-.<.t.k.k.a.s.x.$.> - k g h k k k g k k k k h < $ + O @ + < + $ h h g g & $ ",
"$ 1 h 1 $ O + & k k k g k g 1 g k k k k k k g k k g > S 6.m.C.B.G.4.2.;.t.f.f.d.d.h.h.<._ K _ 1.x.s.t.+.A 0 2 g k k k k x k k h k h # + O < < < 1 1 & h h h & & ",
"$ 1 h h g 1 + & k k k k k k g k k k k k k 2 2 k g z S 6.M.V.b.r.-.=.3.P.I.D.b.h.y.z.M.t...L ` o.o.*.t.i.$.A 2 2 j k k k k g 1 h k k 1 < < 1 h h h h h g g k g & ",
"$ & h k k k h k k g 1 < g k k k k g g g g 2 < g z p @.n.V.M.r.Y -.K.~.'.`.L.v.7.o.1.x.s.s.k.a.[ 4 U O.<.a.%.a z k j g k 2 1 @ 2 k k h k k k k k k k k h 1 g & $ ",
"O $ g k h & h k g g 1 < g k k k 2 2 1 1 j j g @ p %.h.M.n.=.{ F.Q.(.Y.Y.I.N.h.d.:.t.x.l.l.l.s.t.&.G J O.1.r.$.d 1 1 1 < j k g 1 g k k k k k k k k h & h h & + o ",
"+ $ h k h & h h k 2 1 < 2 k k g 1 2 1 2 k k 2 ; D i.n.z.r.} 6.L.^.^.L.M.x.u.z.z.1.1.u.s.s.s.s.l.x._ J ) X.,.i.P - h 1 1 k k g 1 g h k k k g g k h h 1 h k & + O ",
"$ h k k h & & h k 2 @ < < < @ < 2 h j j g @ % M { >.k.-.T 8.V.C.Z.B.x.x.z.7.u.x.a.>.O.i.l.s.s.l.s.i.' 4 L :.O.T B 9 j k 1 < @ k k g k k k & 1 h h k x k k h g & ",
"$ 1 h h 1 1 1 1 g 2 < < 2 g 1 1 g g 2 1 g 2 0 #.1.*...[ o.b.C.C.M.n.x.n.n.d.k.s.i.,.>.a.l.l.l.s.p.p.*.L J _ X.:.~ z 1 1 g g g h 2 1 g k k 2 2 j k k h 1 1 k g & ",
"O < 1 1 h h k k 2 k g 1 g k k h g k 1 < 2 g t +.i.<.K U f.m.V.n.k.k.k.k.z.m.z.p.i.1.,.t.i.i.i.i.1.,.>.O.L 7 ..,. .e < < g k k 1 < 1 g j k j g j k h 2 < + k g $ ",
"O $ 1 1 h k k k k k k k 1 1 k k h k k 2 g 2 > I >.>.7 U b.b.f.,.1.r.r.-.8.V.n.p.i.i.1.o...O.>.>.o.O.<.<.J 6 _ X.T > 2 g h h 1 $ 1 2 2 g k j g k k 1 1 2 h k # O ",
"O $ $ < 1 k g k k k j 2 1 1 k k k k h h k e v I ` .._ } g.m.b.a.k.k.i.u.i.x.l.s.i.1.<.>.>.<.>.>.>.O.X.X.L J ( _ U b ; j h h 1 < 2 g 1 1 2 1 2 k k k 2 g k k + o ",
"$ $ O + < 1 1 g k k g < 1 g j j k g g g k d I K L L *.r.0.v.M.M.x.l.l.l.s.s.s.s.i.>.>.,.1.1.1.,.>.X.[ ` _ ) J U _ F > g k k g 1 2 k 2 1 < < 1 j k k h h k h + O ",
"& $ + $ < < 1 h k j k g 1 2 j 2 < < 1 1 k V _ U 7 7 -.n.n.t.u.m.u.,.a.s.l.l.l.s.>.>.>.>.,.>.>.X._ ` O.,.>.` 7 L _ I y 1 k k k h g k k j 2 h k 1 < < k k k h 1 & ",
"& $ $ 1 1 1 g 1 h 1 1 g 2 2 2 2 2 2 2 g g A [ ( 6 7 7.z.k.i.i.k.f.t.,.1.1.t.1.1.>.>.>.>.>..._ _ ' O.<.i.,.` 7 J ) U p 2 g k g k k g k k h k k h $ $ h h & 1 & < ",
"+ $ h h k k g 1 1 1 1 g j g 2 h j g k k 1 B ..U 6 6 =.a.1.p.a.1.f.d.>.O.:.O.O.>.>.>.>.:..._ L _ >.1.1.1.>.` 6 7 U _ V k < < h k k g g g g 2 h j < < h 1 + < & + ",
"X $ h 2 h h h h g 2 2 k j k k h k k j j 1 V ..L 6 6 } t.,.1.1.1.1.i.t.<.O.>.>.>.>.>.>._ L L O.>.1.t.1.>.O._ 7 8 L _ B k 1 2 j k k g k k g 2 2 g g g k h 2 k 1 O ",
"O $ 1 1 1 1 1 1 1 < 1 g 2 2 2 1 1 1 2 1 < B ` L 7 7 ` <.1.1.1.1.1.1.r.r.,.>.O.>.>.>.>.` L L >.i.1.,.>.O.X.) 6 7 L ) p 1 @ 1 2 g 1 1 1 1 1 2 h h k h 1 < 1 h 1 $ ",
"& & $ 2 g 1 + + < < 1 g 2 1 1 < < 1 @ O < N _ K 7 7 _ O.,.t.1.1.1.r.8.u.p.>.:.:.>.>.:.O._ L >.i.,.:.O.O...L 7 8 K K , O @ 1 2 @ @ @ O $ @ g j k k h $ O < 1 1 1 ",
"$ & h h k 1 $ < 1 < < g g j k j g 2 < O < i H K J J ) ` O.,.1.1.,.t.v.n.i.>.>.:...[ X.X._ J X.>.*.O.O.O._ J 7 L K n : @ 1 g k k g 2 2 g g g h h h h h < < 2 < $ ",
"O < 1 h h k h h g 1 1 g k k k k k k g 2 k e b K L J J ( X.>.1.1.:.<.m.x.i.>...) J ) ` X._ L _ X.O.:.O.X.L 7 G ( K , ; g g k k k k k k k j 1 1 2 1 1 k 2 1 2 < < ",
"$ $ < < 1 k k k k g g g k g 1 1 2 j k j k - > I ) J 5 J O.O.:.1.*.<.x.a.,.>._ 7 7 L ) _ ( L ) ' O.O.O.` 7 5 G ) Y > h k j k k k k k k k g 1 1 < O < g k j < < < ",
"O + < 1 1 1 1 1 < < < < < 1 g k j g 2 1 < < ; ] ' 8 5 J _ ` ' O.8.d.l.1.X._ [ o..._ ( J L ) L _ O.X.` _ J 6 J ' { e 1 < 1 1 g k g k k k h 1 < 1 + + 2 k k 1 + o ",
"O O < 1 1 $ $ < < + + @ + < 1 g k g 2 < 1 @ - Y ` J 7 J J _ ` _ d.b.>.O...` O.,.>.O.` ) L ( L ) X.[ ) J 7 7 J ` R z # 1 < 1 < < 1 k k k k 2 2 g < 1 g k k < o X ",
"O $ $ & 1 + + + + + + + @ + + < g 1 k k k < * B K L L 7 5 L ` U y.d.) ` O.O.:.:.O.:.:.>.' L L ( U ` U 5 6 L U H N - g j k 2 @ @ < j k k k k k k k g k k k + O O ",
"O $ & & 1 < + + + + + + & < < g k g k k k k 2 0 E :.L 7 7 7 J U [ [ _ _ [ ` ......` ....` _ _ ) L G 7 7 7 ( :.D z g k k k k 1 g k k k k k g g k 1 < 1 g j 2 < < ",
"+ + & * h h $ + < 1 1 < 1 g k k k g j k k k g j d | _ L J 5 6 K L _ ' ` _ _ _ _ _ _ _ _ _ [ ` ( 7 5 6 J L ) | d k g k k k g k k k k k k 1 2 2 g < o + 1 k 2 1 < ",
"& + < k k k 1 1 g k k k k g k k k 1 k k < g k 1 - i T ) J J 7 5 J _ ` ` ` ` ` _ ` ` ` ` ` ` _ J 5 7 J J ' R t l k 2 j k 1 2 k 1 g k k 2 < 2 k k < O < g k < < < ",
"O + & h h k k g < 1 k k g g k g 1 k k k k j k g 2 z C Y ` L 7 7 J J 7 L _ _ ' ` ' ` ` ) L 8 J 7 7 7 L _ I B z 1 1 k k g k k k 2 k j k k g k k k h 2 h k k 1 < $ ",
"O + & 1 h k k h < @ < k 1 1 k 1 1 k 2 1 k x k g 2 k r B Y ( L J 7 5 6 G L L ) ) ) ) L L 8 5 6 7 J L ) R p - h 2 1 k g 1 k k j 2 2 k k k k k k k h j k k j 2 < < ",
"+ & h h k k h h k 1 1 k g 2 g k k 2 < + 1 k k < < 1 h z y ] X.J 8 8 J J 7 7 6 5 5 6 7 G J J J 8 J X.~ w - 2 g j k 2 < + 1 k k 1 @ 1 2 k k k k 2 1 1 2 2 2 h 1 < ",
"+ & k h h k k h k k g k g g k k k < + + < < 1 < @ < 1 < < p m K _ ` L 8 7 7 6 6 6 6 7 7 8 L ` ) H D d * 2 g k k k < + + @ 1 1 < @ 1 1 2 < 2 g k h 2 h h j k 2 < ",
"@ 2 h < 1 j h h k k g 1 2 g j k k < < < < < < < < < 1 < 1 # z m ~ T F F G J J L J K J G F F Y R m z g < 1 g k k k < < < < < < < < 2 1 < < 2 g k k k k k k k h & ",
"< < < < < 2 1 2 2 < @ @ O @ k k k k 2 1 g g k k k k k k k k l x c e > b F I ) ) ) ) K F 3 : ; z z < @ @ @ < 2 k k k h 1 1 h k k k k j k k k k k k k k 1 & h & & ",
"< < 2 < < < 1 1 < < < 2 + + 2 j k k k g 1 1 k k k k k k 2 g k g < < * : , y N V N V N w = % < < @ < < 1 < + h k k k g 1 1 1 k k k k k g 2 g k h 1 1 h < $ < & & ",
"+ 1 j 2 1 1 1 < < < 2 g < < 2 k k g k g 1 1 g k k k k k < 1 g k 1 < 1 1 < @ < k g j j 2 1 1 1 < < < 1 2 < + 2 k k k k k 2 1 g g k k k k 1 1 g k & $ 1 g 1 + $ & ",
"< 2 g k k k 2 2 g < @ + + < k k g g k k k k k g g g k k x k k k k k k k k g g k k g 2 h k k g 2 g 1 < + O < k g g 1 k k k k k 1 2 h h j x k k k k k k k h 1 & & ",
"< 1 g k k k k k k g 1 1 < g k k g < 2 k j g 2 g k g 2 2 g g k g h h h k k g k k k j k k k j k k j g 1 1 1 h k k g 1 1 k k g 1 k k g 2 g g g k g h h h k k h & & ",
"+ 1 k g g g h j k k k k k k k k k < < 2 1 < 1 k k 2 1 1 < < < 1 1 $ < k k g k k g h k h 2 2 j j k k k k k k k k k < < 1 1 < < k j 2 1 < < < < 2 < & < h k h & & ",
"$ 1 2 g k k g 2 g g k k k k k 2 1 1 < < < < g j g @ @ 1 2 < < < @ < 1 1 h g g g j g 2 2 k k g 2 2 g k k k k k 2 1 1 < < < 1 g k h @ < 1 1 1 < < < $ 1 h h h & + ",
"$ < 1 h h h 1 1 1 2 2 1 g k k 2 1 g 2 < 1 2 k x g @ @ < < < < + O < h g h 1 h 1 h h 1 h k g 1 1 1 g 1 1 k k g 2 1 g 1 < 1 h k k h + $ < < < < @ O $ h 1 g h & + ",
"+ 1 k k g $ < 1 g 1 < @ 2 k g g h j k g k k g k g 1 + + @ + + < O < g g 1 h h h h h k k 1 + < g g 1 < @ 1 k k g h k h h k k h k h < < @ @ + O $ $ $ g h h 1 & $ ",
"$ 1 h 1 < O O < k k k h k g 2 k k k k k k k g k j g 1 + O @ < 1 1 1 1 g k k k h h h h 1 + + O 1 k k k g j g 2 g k k k k k k h k k h < + + + < 1 & 1 & h h h 1 $ ",
"$ 1 h h 1 1 < 1 k k k k k g g j k k k k k h 1 k k k 2 1 1 2 2 g h h h 2 1 k h k k h h h g 1 + 1 k k k k k k 2 k k k k k k g 1 h k k 1 < < 1 g h h h h h g h h $ ",
"+ & k k k k k h k g 1 < g k k k k h g g g 1 < g k k k k j k k k k k k h 1 1 h h h h k k k k k h k g 1 < 2 k k k k g h h g < $ h h k k k k k k k k k k h & g & $ ",
"+ + g k k 1 h k h g 1 < g k k k 2 2 1 1 j j g 1 2 k k k k k k k k h 1 h h 1 $ 1 1 1 g k k < h k g g 2 < 2 j k k g g & 1 k k h $ g k k k k k k k k h & h h & + o ",
"+ & h k g & 1 h k g 1 & g h h g 1 2 1 2 k k g 1 1 j k k k 2 2 k k h 1 k k 1 1 1 h 1 h k g $ g h k 2 < < 2 g j 2 1 g 1 1 h k h 1 g k k k h h g h h h & k k & + O ",
"$ g k k h 1 1 g k 1 $ & < < & & 1 h j k g < < g k g k j k 1 1 g h h k k k h k k k k k k h 1 & g k 2 < < 1 1 < < 1 h k k h $ $ h h g k k k 1 1 h k k k k k k g & ",
"+ & h h g 1 g h g h & $ g h 1 & 2 h h 1 1 h h k 2 1 k k k 2 2 g k k h & & k k k k g h h h 1 1 h g g 1 @ g h 1 1 h h g & 2 h g h g < h k k 1 1 h k k h 1 & k h & ",
"+ $ g g g g h h 1 h h & h k k h h k 1 & h h k 1 < < g k k g g k k h g $ & k k k 1 2 1 2 1 h h h 2 j k < h k k h h h 1 & 1 k k 1 < 1 h k k h h h k h g & $ k g + ",
"+ $ & & h k k k k k k k 1 < k h 2 k h h h 1 1 < 1 g g g k k j k h g & g h k g 1 h 1 1 1 h k k k k k k k 1 < k h h k k h h 2 1 < $ h 1 h k h h k k & & h j k & O ",
"+ + & & 1 k h h k k k g < 1 k k k k h h h h < < 1 g 1 1 2 < 1 k k k g g k k & $ h 1 < < 1 h h h k k j g < 1 k k h k h h k h 1 < 1 h 1 1 h 1 1 k k k 1 h k k + o ",
"+ + + + & & 1 h k k h & & h k k k h g h k k k 1 2 k 1 1 < < 2 j k k g h h k 1 < h 1 O $ < 1 1 2 k k h < 1 h k k h h 2 h k k 1 1 h h 1 1 1 < 1 h k k h h k k & o ",
"& $ + $ $ & & g k h h g & g h 1 @ < < 1 k k k 1 g k k k g k k 1 & & k k k g k k k 1 O < < < 1 h h h h g 1 g h g < < < 1 k k h h h h k k h h k 1 $ & k k k g & + ",
"O O + + $ + & & & & + & & & & & < < $ 1 < 1 1 g 2 2 1 1 1 1 < < O O 1 < + $ < h 1 < O < $ $ $ $ & & & $ & & < $ < $ & 1 1 < 1 g 1 1 g 1 1 1 1 1 O O & & + + + + ",
"X o + + & $ + + O o O + $ + O $ < $ & $ O O @ < @ @ + < @ < < < + o + O o o O $ $ + O $ $ $ $ $ O o O + + + O $ 1 $ & & O O $ < & + + $ $ O < < O o $ O o o o X "
};
