/* XPM */
static char *ab306484c9f744fdc18e6897152bfcb8a92qTptZzKwzxNC1[] = {
/* columns rows colors chars-per-pixel */
"80 80 174 2 ",
"   c None",
".  c #6E5967",
"X  c #6E5C6A",
"o  c #745B69",
"O  c #7B5E6B",
"+  c #6B606E",
"@  c #7B626D",
"#  c #71616F",
"$  c #6D6371",
"%  c #696877",
"&  c #646C7C",
"*  c #6D6B79",
"=  c #676676",
"-  c #726572",
";  c #796674",
":  c #736875",
">  c #746D7A",
",  c #6F707E",
"<  c #73717D",
"1  c #7B707C",
"2  c #835F6E",
"3  c #83626E",
"4  c #8B656F",
"5  c #84686F",
"6  c #846570",
"7  c #8C6471",
"8  c #836871",
"9  c #8C6D75",
"0  c #856D79",
"q  c #926673",
"w  c #9A6471",
"e  c #966974",
"r  c #9C6A76",
"t  c #9D6C78",
"y  c #8C7176",
"u  c #957177",
"i  c #997277",
"p  c #947479",
"a  c #9B767B",
"s  c #977A7C",
"d  c #9D7A7D",
"f  c #A36F77",
"g  c #A46D78",
"h  c #AA6F7A",
"j  c #B86B78",
"k  c #A57077",
"l  c #A4747B",
"z  c #AD717B",
"x  c #A27C7F",
"c  c #AC7B7E",
"v  c #B1757D",
"b  c #B37C7F",
"n  c #B9797D",
"m  c #CC757E",
"M  c #627282",
"N  c #6B7382",
"B  c #6A7887",
"V  c #647D8D",
"C  c #6D7B89",
"Z  c #717684",
"A  c #727986",
"S  c #717E8C",
"D  c #7B7F8A",
"F  c #7D7884",
"G  c #A57E82",
"H  c #AD7E82",
"J  c #B47C82",
"K  c #C57E81",
"L  c #CC7A80",
"P  c #D67E83",
"I  c #72818F",
"U  c #7B838F",
"Y  c #6B8493",
"T  c #738593",
"R  c #7D8690",
"E  c #738997",
"W  c #7C8A95",
"Q  c #748C99",
"!  c #7C8E99",
"~  c #7B949F",
"^  c #7F97A1",
"/  c #81929B",
"(  c #A18382",
")  c #AD8485",
"_  c #A18987",
"`  c #A18D8C",
"'  c #B38284",
"]  c #BA8485",
"[  c #B58986",
"{  c #BC8986",
"}  c #B68788",
"|  c #BA8688",
" . c #B68B8A",
".. c #BC8B8A",
"X. c #BE928E",
"o. c #BD988F",
"O. c #BC9B92",
"+. c #BBA39A",
"@. c #849AA2",
"#. c #BBA9A0",
"$. c #CD8183",
"%. c #C08E8C",
"&. c #CA8B88",
"*. c #D38384",
"=. c #DC8687",
"-. c #D58988",
";. c #DE8A89",
":. c #C2928E",
">. c #CF988F",
",. c #D5958E",
"<. c #C39490",
"1. c #C79D92",
"2. c #D69C92",
"3. c #DC9C92",
"4. c #E38C8A",
"5. c #E6948F",
"6. c #E79690",
"7. c #E39A92",
"8. c #E89A92",
"9. c #C9A295",
"0. c #C5A39A",
"q. c #D3A195",
"w. c #DEA396",
"e. c #D6A699",
"r. c #D2A899",
"t. c #D8AD9B",
"y. c #DDB29F",
"u. c #E6A397",
"i. c #EBA296",
"p. c #EDA699",
"a. c #E0AB9B",
"s. c #ECAB9B",
"d. c #F0AE9E",
"f. c #E3B19F",
"g. c #EBB19F",
"h. c #F1B09F",
"j. c #CEBBAC",
"k. c #EDB5A2",
"l. c #E6B9A3",
"z. c #ECBBA5",
"x. c #EEBCAA",
"c. c #F1B2A0",
"v. c #F5BCA5",
"b. c #F7BFA8",
"n. c #F3C3AA",
"m. c #F9C5AB",
"M. c #F2C8AE",
"N. c #FAC9AD",
"B. c #FBCAAE",
"V. c #FBCBAF",
"C. c #FBC9AE",
"Z. c #FBCAAE",
"A. c #E7CBB7",
"S. c #EFCDB8",
"D. c #F2CCB2",
"F. c #FBCCB0",
"G. c #FBCEB2",
"H. c #FBCDB1",
"J. c #F2D1B7",
"K. c #FBD2B6",
"L. c #FBD1B5",
"P. c #F7D1B9",
"I. c #F2D6BD",
"U. c #FAD6BA",
"Y. c #FAD5BA",
"T. c #FBD9BD",
"R. c #FBD9BD",
"E. c #F1DCC3",
"W. c #FADFC3",
"Q. c #F1E0C7",
"!. c #FAE3C7",
"~. c #FAE0C4",
"^. c #F1E2C8",
"/. c #FAE7CB",
/* pixels */
"                                . . . . . . . . . . . . . . . . . . . . . . . . . . . . . . . . . . . . . . . . . . . . . . . .                                 ",
"                          . . s o. .c 5 5 c  .o.o.o.o.O.+.+.o.+.#.#.+.O. .' 8 @ x [ o.o.o.o.O.+.+.o.+.#.#.#.#.+.o. .c 5 5 c  .o.s . .                           ",
"                        9 9 p o.B.v.w.u u w.v.B.B.B.B.K.~.Y.B.R.~.~.R.G.v.s.d 9 2.v.B.B.B.B.K.W.R.B.Y.~.~.~.~.R.B.v.w.u u w.v.B.o.p 9 9                         ",
"                  . . @ %.s.v.m.B.B.l.s s l.B.B.B.B.B.B.B.B.B.B.G.G.B.B.B.n.( y y.B.B.B.B.B.B.B.B.B.B.G.G.G.G.B.B.B.l.s s l.B.B.m.v.s.%.@ . .                   ",
"              . u { 0.j.A.P.F.B.B.B.l.s s z.B.B.B.B.B.B.B.B.B.B.B.B.B.B.B.n.( y y.B.B.B.B.B.B.B.B.B.B.B.B.B.B.B.B.B.z.s s z.B.B.B.F.P.A.j.0.{ u .               ",
"            5 u X.x.P.W.W.R.G.B.B.m.f.p p f.m.B.B.B.B.B.B.B.B.B.B.B.B.B.m.k.d 9 e.m.B.B.B.B.B.B.B.B.B.B.B.B.B.B.B.m.f.p p f.m.B.B.G.R.W.W.P.x.X.u 5             ",
"          o e 2.n./.R.B.B.B.B.B.N.c.3.e e 3.c.N.N.N.N.N.N.N.N.N.N.N.N.N.c.u.a 9 ,.h.m.N.N.N.N.N.N.N.N.N.N.N.N.N.B.c.3.e e 3.c.N.B.B.B.B.B.R./.n.2.e o           ",
"        @ ' e.S.T.K.G.B.B.m.c.p.8.5.-.q q -.5.8.8.8.8.8.8.8.8.8.8.8.8.8.6.;.r 4 $.5.8.8.8.8.8.8.8.8.8.8.8.8.8.8.8.5.-.q q -.5.8.p.c.m.B.B.G.K.T.S.e.' @         ",
"      . @ :.n.Y.Y.B.B.B.b.c.8.5.4.=.L 4 3 k z z z z z z z z z z z z z z z z 3 O f z z z z z z z z z z z z z z z z z k 3 4 L =.4.5.8.c.b.B.B.B.Y.Y.n.:.@ .       ",
"      @ 9 r.B.B.B.B.N.n.d.8.4.=.*.m j 2 o o o o o o O O o o o o o o o o o . . . X X . . . o o o o o O O o o o o o o o o 2 j m *.=.4.8.d.n.N.B.B.B.B.r.9 @       ",
"    . c 3.v.B.B.B.B.v.s.6.4.4.n 3 O O o o 7 e g g g g g g g g g g g r 7 O . . X & & . . o 2 q r g g g g g g g g g e 7 o o O O 3 n 4.4.6.s.v.B.B.B.B.v.3.c .     ",
"    . [ v.m.B.B.B.B.d.5.4.*.z 7 . . o O 7 r g h z z z z z z z z z z h g 7 . . + M & . . o q g h z z z z z z z z z g r 7 O o . . 7 z *.4.5.d.B.B.B.B.m.v.[ .     ",
"  5 9 1.B.B.B.B.N.m.i.;.$.z O . . . o 2 7 r r r r r r r r r r r r r r r 3 . . + M & . . o 7 r r r r r r r r r r r r r 7 2 o . . . O z $.;.i.m.N.B.B.B.B.1.9 5   ",
". a 7.c.B.B.B.B.v.s.6.*.e o . . . . . . o o o o o o o o o o o o o o o o o . . + M & . . . . o o o o o o o o o o o o o o . . . . . . o e *.6.s.v.B.B.B.B.c.7.a . ",
". d k.m.B.B.B.B.c.6.4.*.q . . O 6 7 e e e e e e e e e e e e e e e e q 6 O . . X M & . . . . . . . . . . . . . . . . . . . . . . . . . q *.4.6.c.B.B.B.B.m.k.d . ",
". ( n.B.B.B.B.B.c.4.$.v 3 o O 7 r g z v v J J J J J J J J J J J J v z t 3 . . + B N . . . O 3 4 9 9 9 9 9 9 9 9 9 9 9 9 9 9 4 3 O O o 3 v $.4.c.B.B.B.B.B.n.( . ",
". ( n.B.B.B.B.B.h.4.f . . O 7 t z z z b ] :.<.<.<.<.<.<.<.<.<.<.:.] b z 7 . . $ S Z X . o r v J { :.<.<.<.<.<.<.<.<.<.<.%.] b z t 7 O . . f 4.h.B.B.B.B.B.n.( . ",
". d s.v.B.B.m.c.i.4.f . . O r h z z v | :.:.<.<.<.<.<.<.<.<.<.<.:.:.| z 7 . . $ S Z X . o r v ..:.<.<.<.<.<.<.<.<.<.<.<.:.:.] z h r O . . f 4.i.c.m.B.B.v.s.d . ",
". 8 '  .o.o.X.[ b z 7 . . o 7 q q q q a d d d d d d d d d d d d d d i q 2 . . $ B N . . o 3 e a d d d d d d d d d d d d d d i q q 7 o . . 7 z b [ X.o.o. .' 8 . ",
". o 5 8 8 8 8 5 3 @ o . . . . . . o O @ @ @ @ @ @ @ @ @ @ @ @ @ @ @ @ @ O o o + M & . o O @ @ @ @ @ @ @ @ @ @ @ @ @ @ @ @ O o . . . . . . o @ 3 5 8 8 8 8 5 o . ",
". u ,.a.l.l.f.w.,.*.r . . . . . . 7 k '  . . . . . . . . . . . . . . . .H g 3 $ C N X 7 g '  . . . . . . . . . . . . . .' k 7 . . . . . . r *.,.w.f.l.l.a.,.u . ",
". d k.m.B.B.N.v.p.4.f . = * N * & ; q } <.<.<.<.<.<.<.<.<.<.<.<.<.<.<.<...' 9 + B N . e | %.<.<.<.<.<.<.<.<.<.<.<.<.<.<.} q ; & * N * = . f 4.p.v.N.B.B.m.k.d . ",
". ( D.G.B.B.B.B.c.4.f X M Y Q Y V % @ ) <.<.<.<.<.<.<.<.<.<.<.<.<.<.<.<.<.X.9 + B & . a <.<.<.<.<.<.<.<.<.<.<.<.<.<.<.<.) @ % V Y Q Y M X f 4.c.B.B.B.B.G.D.( . ",
". ` Q.R.B.B.B.B.c.4.f X A Q @.^ E * @ ) <.<.<.<.<.<.<.<.<.<.<.<.<.<.<.<.<.X.9 $ S Z X a <.<.<.<.<.<.<.<.<.<.<.<.<.<.<.<.) @ * E ^ @.Q A X f 4.c.B.B.B.B.R.Q.` . ",
". ` ^.R.B.B.B.B.c.4.f . $ > < > * 0 t } <.<.<.<.<.<.<.<.<.<.<.<.<.<.<.<.<.X.9 $ S Z X a <.<.<.<.<.<.<.<.<.<.<.<.<.<.<.<.} t 0 * > < > $ . f 4.c.B.B.B.B.R.^.` . ",
". _ I.Y.B.B.B.B.c.4.f o O 6 9 9 9 l ' ..<.<.<.<.<.<.<.<.<.<.<.<.<.<.<.<...} 9 - T S X u ..:.<.<.<.<.<.<.<.<.<.<.<.<.<.<...' l 9 9 9 6 O o f 4.c.B.B.B.B.Y.I._ . ",
". ( n.B.B.B.B.B.c.4.f o e c ..X.X.X.X.X.X.X.X.X.X.X.X.X.X.X.X.X.X.X.X.X.' g 3 : / R X 7 z | :.X.X.X.X.X.X.X.X.X.X.X.X.X.X.X.X.X.X...c e o f 4.c.B.B.B.B.B.n.( . ",
". _ E.Y.B.B.B.B.c.4.f o O @ 8 8 8 8 8 8 8 8 8 8 8 8 8 8 8 8 8 8 8 8 8 8 3 O o : / R X o @ 5 8 8 8 8 8 8 8 8 8 8 8 8 8 8 8 8 8 8 8 8 @ O o f 4.c.B.B.B.B.Y.E._ . ",
". _ I.K.B.B.B.B.c.4.f . . . . . . . . . . . . . . . . . . . . . . . . . . . . : / R X O 7 e p p p p p p p p p p p p p p p p p p p u 9 3 o f 4.c.B.B.B.B.K.I._ . ",
". ( n.B.B.B.B.B.c.4.f . o o o o o o o o o O o o o o o o o o o O o o o o o o o : ! U X q J ..<.<.<.<.<.<.<.<.<.<.<.<.<.<.<.<.<.<.<.%.J r o f 4.c.B.B.B.B.B.n.( . ",
". ( n.B.B.B.B.B.c.4.f o 2 q g g g g g g g g g g g g g g g g g g g g g g r 7 O $ I A X a %.:.<.<.<.<.<.<.<.<.<.<.<.<.<.<.<.<.<.<.<.:.:.G o f 4.c.B.B.B.B.B.n.( . ",
". ( n.B.B.B.B.B.c.4.f o q g h z z z z z z z z z z z z z z z z z z z z z g r 2 - W D X a <.<.<.<.<.<.<.<.<.<.<.<.<.<.<.<.<.<.<.<.<.<.<.) @ f 4.c.B.B.B.B.B.n.( . ",
". x z.m.B.B.B.m.s.4.f o e h z z z z z z z z z z z z z z z z z z z z z z h g 3 : ! U X u ..:.<.<.<.<.<.<.<.<.<.<.<.<.<.<.<.<.<.<.<.:...G o f 4.s.m.B.B.B.m.z.x . ",
". a u.v.B.B.m.d.8.4.f o 7 r h z z z z z z z z z z z z z z z z z z z z z g q O $ S A X 7 v ..<.<.<.<.<.<.<.<.<.<.<.<.<.<.<.<.<.<.<.%.J r o f 4.8.d.m.B.B.v.u.a . ",
". @ i d ( ( d a i e 3 . o O 3 3 3 3 3 3 3 3 3 3 3 3 3 3 3 3 3 3 3 3 3 3 2 O o $ S Z X O 3 9 9 9 9 9 9 9 9 9 9 9 9 9 9 9 9 9 9 9 9 9 6 O o 3 e i a d ( ( d i @ . ",
". @ i d ( ( d a i e 3 o O 6 9 9 9 9 9 9 9 9 9 9 9 9 9 9 9 9 9 9 9 9 9 9 9 3 o $ C N X O 3 9 9 9 9 9 9 9 9 9 9 9 9 9 9 9 9 9 9 9 9 9 6 O o 3 e i a d ( ( d i @ . ",
". a u.v.B.B.m.d.8.4.f o r J %.<.<.<.<.<.<.<.<.<.<.<.<.<.<.<.<.<.<.<.<.<.] z 3 + M & . 7 v ..<.<.<.<.<.<.<.<.<.<.<.<.<.<.<.<.<.<.<.%.J r o f 4.8.d.m.B.B.v.u.a . ",
". x z.m.B.B.B.m.s.4.f o G ..:.<.<.<.<.<.<.<.<.<.<.<.<.<.<.<.<.<.<.<.<.<.%...9 + M & . u ..:.<.<.<.<.<.<.<.<.<.<.<.<.<.<.<.<.<.<.<.:...G o f 4.s.m.B.B.B.m.z.x . ",
". ( J.K.B.B.B.B.c.4.f @ ) <.<.<.<.<.<.<.<.<.<.<.<.<.<.<.<.<.<.<.<.<.%.| H a @ X = = . 8 d ' ..:.<.<.<.<.<.<.<.<.<.<.<.<.<.<.<.<.<.<.<.) @ f 4.c.B.B.B.B.K.J.( . ",
". ` ^.R.B.B.B.B.c.4.f o G :.:.<.<.<.<.<.<.<.<.<.<.<.<.<.<.<.<.<.<.:.} k 7 - - # . X - - - q z ..:.<.<.<.<.<.<.<.<.<.<.<.<.<.<.<.<.:.:.G o f 4.c.B.B.B.B.R.^.` . ",
". ` ^.R.B.B.B.B.c.4.f o r J %.<.<.<.<.<.<.<.<.<.<.<.<.<.<.<.<.<.:.] l @ F / / W - > / / / 1 6 c ..:.<.<.<.<.<.<.<.<.<.<.<.<.<.<.<.%.J r o f 4.c.B.B.B.B.R.^.` . ",
". ( J.K.B.B.B.B.c.4.f o 3 9 u p p p p p p p p p p p p p p p p p u e 4 o Z ~ @./ : > ! @.@.< o 7 e u p p p p p p p p p p p p p p p u 9 2 o f 4.c.B.B.B.B.K.J.( . ",
". ( D.G.B.B.B.B.c.4.f . . . . . . . . . . . . . . . . . . . . . . . . . < E ^ / : * T ~ @.< o O 3 8 8 8 8 8 8 8 8 8 8 8 8 8 8 8 8 8 @ O o f 4.c.B.B.B.B.G.D.( . ",
". ` Q.R.B.B.B.B.c.4.f . . . . . . . . . . . . . . . . . . . . . . . . . < E ^ / : * T ~ @.< O r J X.X.X.X.X.X.X.X.X.X.X.X.X.X.X.X...c e o f 4.c.B.B.B.B.R.Q.` . ",
". ( D.K.B.B.B.B.c.4.f . . o 2 7 e e e e e e e e e e e e e e e e q 7 O o < E ^ / : * T ~ @.< 5 H ..<.<.<.<.<.<.<.<.<.<.<.<.<.<.<.<.:...x o f 4.c.B.B.B.B.K.D.( . ",
". ( n.B.B.B.B.B.c.4.f . . O e g z z z z z z z z z z z z z z z z h g 7 o < E ^ / : * T ~ @.< 8 [ <.<.<.<.<.<.<.<.<.<.<.<.<.<.<.<.<.<.<.) @ f 4.c.B.B.B.B.B.n.( . ",
". ( n.B.B.B.B.B.c.4.f . . O f z z z z z z z z z z z z z z z z z z z e o < E ^ / : * T ~ @.< 8 } :.<.<.<.<.<.<.<.<.<.<.<.<.<.<.<.<.<.:.) O f 4.c.B.B.B.B.B.n.( . ",
". ( n.B.B.B.B.B.c.4.f . . O q g z z z z z z z z z z z z z z z z h t 7 o < E ^ / : * T ~ @.< @ l ] :.<.<.<.<.<.<.<.<.<.<.<.<.<.<.<.:.' t o f 4.c.B.B.B.B.B.n.( . ",
". d k.m.B.B.N.v.p.4.f . . o O 7 q q q q q q q q q q q q q q q q 7 3 O o < E ^ / : * T ~ @.< o 7 e d d d d d d d d d d d d d d d d a e 3 o f 4.p.v.N.B.B.m.k.d . ",
". u ,.a.l.l.f.w.,.*.r . o O @ @ @ @ @ @ @ @ @ @ @ @ @ @ @ @ @ @ @ o o . < E ^ / : : T ~ @.< . . . . . . . . . . . . . . . . . . . . . . . r *.,.w.f.l.l.a.,.u . ",
". o 5 8 8 8 8 5 3 @ o o q z }  . . . . . . . . . . . . . . . . .} z q o < E ^ / : * T ~ @.< . . . . . . . . . . . . . . . . . . . . . . . o @ 3 5 8 8 8 8 5 o . ",
". 8 '  .o.o.X.[ b z 7 o l ..:.<.<.<.<.<.<.<.<.<.<.<.<.<.<.<.<.<.:...l o < E ^ / : * T ~ @.< o O 7 q q q q q q q q q q q q q q q 7 O o . . 7 z b [ X.o.o. .' 8 . ",
". d s.v.B.B.m.c.i.4.f @ ) <.<.<.<.<.<.<.<.<.<.<.<.<.<.<.<.<.<.<.<.<.( o < E ^ / : * T ~ @.< O q g z z z z z z z z z z z z z z z g q O . . f 4.i.c.m.B.B.v.s.d . ",
". ( n.B.B.B.B.B.h.4.f @ ) <.<.<.<.<.<.<.<.<.<.<.<.<.<.<.<.<.<.<.<.<.( o < E ^ / : * T ~ @.< O g z z z z z z z z z z z z z z z z z f O . . f 4.h.B.B.B.B.B.n.( . ",
". _ I.Y.B.B.B.B.c.4.f o i ' :.<.<.<.<.<.<.<.<.<.<.<.<.<.<.<.<.<.:.] i o < E ^ / : * T ~ @.< O e g z z z z z z z z z z z z z z z g e O . . f 4.c.B.B.B.B.Y.I._ . ",
". ` ^.R.B.B.B.B.c.4.f o 7 t x G G G G G G G G G G G G G G G G G x r 7 o < E ^ / : * T ~ @.< o 2 7 e e e e e e e e e e e e e e e 7 2 o . . f 4.c.B.B.B.B.R.^.` . ",
". ` Q.R.B.B.B.B.c.4.f . o o o o o o o o o o o o o o o o o o o o o o o . , E ^ / : * T ~ @.< . o o o o o o o o o o o o o o o o o o o o o . f 4.c.B.B.B.B.R.Q.` . ",
". ( D.G.B.B.B.B.c.4.f o 7 l ) ) ) ) ) ) ) ) ) ) ) ) ) ) ) ) ) ) ) c e o * V ~ / : = V Q @.< @ i c ) ) ) ) ) ) ) ) ) ) ) ) ) ) ) ) ) ) a o f 4.c.B.B.B.B.G.D.( . ",
". ( J.K.B.B.B.B.c.4.f o 3 e a d d H | %.<.<.<.<.<.<.<.<.<.<.<.<.:...c 7 ; & A A * & & Z D 0 e ' %.<.<.<.<.<.<.<.<.<.<.<.%.| H d d d d 9 o f 4.c.B.B.B.B.K.J.( . ",
". ` E.R.B.B.B.B.c.4.f . X + - - + 7 z ..<.<.<.<.<.<.<.<.<.<.<.<.<.<...J e o o + M & . o @ t J ..<.<.<.<.<.<.<.<.<.<.<.<...z 7 + - - + X . f 4.c.B.B.B.B.R.E.` . ",
". ( M.G.B.B.B.B.c.4.f X Z T / ! I > 5 ) <.<.<.<.<.<.<.<.<.<.<.<.<.<.:.%.} c 4 + M & . 9 c { :.:.<.<.<.<.<.<.<.<.<.<.<.<.) 5 > I ! / T Z X f 4.c.B.B.B.B.G.M.( . ",
". ( n.B.B.B.B.B.c.4.f X N Y ~ E V * @ ) <.<.<.<.<.<.<.<.<.<.<.<.<.<.<.<.:.{ 9 $ B N . u ..:.<.<.<.<.<.<.<.<.<.<.<.<.<.<.) @ * V E ~ Y N X f 4.c.B.B.B.B.B.n.( . ",
". ( n.B.B.B.B.B.c.4.f X & M C B M : 6 ) <.<.<.<.<.<.<.<.<.<.<.<.<.<.<.<.:...9 $ S Z X a <.<.<.<.<.<.<.<.<.<.<.<.<.<.<.<.) 6 : M B C M & X f 4.c.B.B.B.B.B.n.( . ",
". ( n.B.B.B.B.B.c.4.f . . . . . . 7 z ..<.<.<.<.<.<.<.<.<.<.<.<.<.<.<.:.] z 3 $ S Z X a <.<.<.<.<.<.<.<.<.<.<.<.<.<.<.<...z 7 . . . . . . f 4.c.B.B.B.B.B.n.( . ",
". d s.v.B.B.m.v.i.4.f . . . . . . O 3 9 9 9 9 9 9 9 9 9 9 9 9 9 9 9 9 9 9 3 o $ S Z X @ 9 9 9 9 9 9 9 9 9 9 9 9 9 9 9 9 9 3 O . . . . . . f 4.i.v.m.B.B.n.s.d . ",
". 9 { :.9.9.1.:.] n q . o O 3 3 3 3 3 3 3 3 3 3 3 3 3 3 3 3 3 3 3 3 3 O o . . $ C N X O 3 9 9 9 9 9 9 9 9 9 9 9 9 9 9 9 9 9 9 9 9 9 6 O o q n ] :.1.9.9.:.{ 9 . ",
". o o o o o o o o o o o 7 r h z z z z z z z z z z z z z z z z z z z g e 2 . . + M & . 7 v ..<.<.<.<.<.<.<.<.<.<.<.<.<.<.<.<.<.<.<.%.J r o o o o o o o o o o o . ",
". e :.q.t.t.e.>.&.K e o e h z z z z z z z z z z z z z z z z z z z z h g 7 . . $ C N X u ..:.<.<.<.<.<.<.<.<.<.<.<.<.<.<.<.<.<.<.<.:...G o e K &.>.e.t.t.q.:.e . ",
". d g.n.B.B.m.v.p.4.f o q g h h z z z z z z z z z z z z z z z z z z h g 7 . . $ B N . a <.<.<.<.<.<.<.<.<.<.<.<.<.<.<.<.<.<.<.<.<.<.<.) @ f 4.p.v.m.B.B.n.g.d . ",
". ( M.G.B.B.B.B.c.4.f o 2 q g g g g g g g g g g g g g g g g g g g g r 7 O . . + M & . a %.:.<.<.<.<.<.<.<.<.<.<.<.<.<.<.<.<.<.<.<.:.:.G o f 4.c.B.B.B.B.G.M.( . ",
". ` E.R.B.B.B.B.c.4.f . o o o o o o o o o O o o o O o o o o o o o o o o o . . $ C N X q J ..<.<.<.<.<.<.<.<.<.<.<.<.<.<.<.<.<.<.<.%.J r o f 4.c.B.B.B.B.R.E.` . ",
". ` ^.R.B.B.B.B.c.4.f . . . . . . . . . . . . . . . . . . . . . . . . . . . . + B N . O 7 e p p p p p p p p p p p p p p p p p p p u 9 3 o f 4.c.B.B.B.B.R.^.` . ",
". _ E.Y.B.B.B.B.c.4.f o O @ 8 8 8 8 8 8 8 8 8 8 8 8 8 8 8 8 8 8 8 8 8 8 3 O o + M & . . . . . . . . . . . . . . . . . . . . . . . . . . . f 4.c.B.B.B.B.Y.E._ . ",
". ( n.B.B.B.B.B.c.4.f o e c ..X.X.X.X.X.X.X.X.X.X.X.X.X.X.X.X.X.X.X.X.X.' g 3 + M & . . . . . . . . . . . . . . . . . . . . . . . . . . . f 4.c.B.B.B.B.B.n.( . ",
". d s.v.B.B.m.v.i.4.f o x ..:.<.<.<.<.<.<.<.<.<.<.<.<.<.<.<.<.<.<.<.<.<...} 9 + M & . . o 7 e e e e e e e e e e e e e e e e e e e q O . . f 4.i.v.m.B.B.v.s.d . ",
". i 7.s.c.c.d.i.5.=.g o x ..:.<.<.<.<.<.<.<.<.<.<.<.<.<.<.<.<.<.<.<.<.<...} 9 + M & . . o q g h z z z z z z z z z z z z z z z z g r O . . g =.5.i.d.c.c.s.7.i . ",
". e *.=.=.=.=.=.P m w o e c ..X.X.X.X.X.X.X.X.X.X.X.X.X.X.X.X.X.X.X.X.X.' g 3 X M & . . o 6 e g h h h h h h h h h h h h h h h h r 7 o . . w m P =.=.=.=.=.*.e . ",
". O 4 4 4 4 4 4 4 2 O o O @ 8 8 8 8 8 8 8 8 8 8 8 8 8 8 8 8 8 8 8 8 8 8 3 O o . X X . . . o O O O O O O O O O O O O O O O O O O O o o . . O 2 4 4 4 4 4 4 4 O . ",
". . . . . . . . . . . . . . . . . . . . . . . . . . . . . . . . . . . . . . . . . . . . . . . . . . . . . . . . . . . . . . . . . . . . . . . . . . . . . . . . ",
". . . . . . . . . . . . . . . . . . . . . . . . . . . . . . . . . . . . . . . . . . . . . . . . . . . . . . . . . . . . . . . . . . . . . . . . . . . . . . . . "
};
