/* XPM */
static char *aa7ff5df7fe349c2af79fe65f519888fkvl9RBX0YUIAJDoQ[] = {
/* columns rows colors chars-per-pixel */
"80 80 204 2 ",
"   c #315717",
".  c #37631B",
"X  c #39661B",
"o  c #3D6D1D",
"O  c #3E711E",
"+  c #3F7220",
"@  c #41751F",
"#  c #42791F",
"$  c #7B5737",
"%  c #7D5939",
"&  c #7B5837",
"*  c #417620",
"=  c #457C21",
"-  c #45762D",
";  c #46782D",
":  c #487D2C",
">  c #4A7D30",
",  c #4A7B34",
"<  c #6B6C3E",
"1  c #527E4E",
"2  c #6E6C42",
"3  c #746E44",
"4  c #7D6149",
"5  c #6E7042",
"6  c #747344",
"7  c #797246",
"8  c #75744C",
"9  c #7D6754",
"0  c #7C6A5B",
"q  c #577C71",
"w  c #766F67",
"e  c #757778",
"r  c #7D7269",
"t  c #8A5E3A",
"y  c #825D3B",
"u  c #8C613B",
"i  c #89623C",
"p  c #986A36",
"a  c #97703E",
"s  c #A8783E",
"d  c #B17C39",
"f  c #A26F3A",
"g  c #825F42",
"h  c #856143",
"j  c #8C6546",
"k  c #8F6845",
"l  c #8E6748",
"z  c #8F6848",
"x  c #86664B",
"c  c #926846",
"v  c #946B4B",
"b  c #996F48",
"n  c #9C7440",
"m  c #9B734C",
"M  c #896C54",
"N  c #916E53",
"B  c #937052",
"V  c #8A725E",
"C  c #A47644",
"Z  c #A37B45",
"A  c #AA7B46",
"S  c #A87F48",
"D  c #A6794A",
"F  c #B17F42",
"G  c #A47F56",
"H  c #85766A",
"J  c #478022",
"K  c #498423",
"L  c #4C8A24",
"P  c #4B822B",
"I  c #4E892B",
"U  c #4E8332",
"Y  c #508732",
"T  c #518A33",
"R  c #51833F",
"E  c #518C2D",
"W  c #54834C",
"Q  c #58894E",
"!  c #578D48",
"~  c #598758",
"^  c #5F905B",
"/  c #5F8D65",
"(  c #5A8374",
")  c #5D857B",
"_  c #60857F",
"`  c #689278",
"'  c #65926C",
"]  c #BE9136",
"[  c #C79F3E",
"{  c #C99F3D",
"}  c #D69A3D",
"|  c #D99D3F",
" . c #D0A33C",
".. c #EFAF3C",
"X. c #F0AF3C",
"o. c #ECBE3B",
"O. c #E1B03D",
"+. c #F0B03C",
"@. c #F1B93C",
"#. c #EEC03C",
"$. c #FCD33C",
"%. c #F7CB3C",
"&. c #B48143",
"*. c #B88345",
"=. c #B0834D",
"-. c #A88453",
";. c #BA9844",
":. c #BC9B61",
">. c #C99746",
",. c #CDA341",
"<. c #C6A34D",
"1. c #D6A744",
"2. c #DDB449",
"3. c #D6B258",
"4. c #E4B546",
"5. c #C8A966",
"6. c #D4B76F",
"7. c #FAD547",
"8. c #F5D662",
"9. c #EDCF65",
"0. c #5E7889",
"q. c #697F8F",
"w. c #647C8C",
"e. c #7A7E81",
"r. c #5E8682",
"t. c #5D8586",
"y. c #5D8199",
"u. c #618C83",
"i. c #6B828E",
"p. c #658E8D",
"a. c #60848E",
"s. c #78838A",
"d. c #67918E",
"f. c #68928F",
"g. c #6C9384",
"h. c #72978C",
"j. c #638493",
"k. c #6B8493",
"l. c #628B94",
"z. c #62849C",
"x. c #6C879A",
"c. c #6A8C9D",
"v. c #668C9A",
"b. c #738B9D",
"n. c #788998",
"m. c #6B9296",
"M. c #719692",
"N. c #759B93",
"B. c #76979B",
"V. c #7CA29C",
"C. c #6487A1",
"Z. c #6689A3",
"A. c #6B8CA4",
"S. c #6C8FAA",
"D. c #778EA0",
"F. c #788FA1",
"G. c #6E93A3",
"H. c #6E91AC",
"J. c #7292A3",
"K. c #7C92A3",
"L. c #7299A5",
"P. c #7294AE",
"I. c #7996AD",
"U. c #769BAB",
"Y. c #799DAB",
"T. c #7396B2",
"R. c #7699B5",
"E. c #7B9BB4",
"W. c #779CB9",
"Q. c #7C9EBA",
"!. c #7897B0",
"~. c #7CA1AC",
"^. c #7DA2A5",
"/. c #7FA1B2",
"(. c #7DA1BD",
"). c #7FA4C1",
"_. c #808A94",
"`. c #84999F",
"'. c #829CAB",
"]. c #829EB5",
"[. c #829EB8",
"{. c #82A4B4",
"}. c #82A2BD",
"|. c #89A4BB",
" X c #8DADBF",
".X c #8BABBD",
"XX c #86A9B8",
"oX c #80A3AC",
"OX c #83A5C3",
"+X c #84A9C6",
"@X c #8AAAC5",
"#X c #86ACCA",
"$X c #8AAECC",
"%X c #91ADC9",
"&X c #8DB1CE",
"*X c #91B1CD",
"=X c #8EB2D0",
"-X c #93B5D3",
";X c #97B8D6",
":X c #99B9D7",
">X c #97B8D8",
",X c #9ABAD9",
"<X c #9CBBD9",
"1X c #9ABAD9",
/* pixels */
"  . @ o o O O @ @ o o * @ @ # @ O @ @ @ o o @ = * @ # @ O o o O O @ * O O = * o . o @ o o O O @ @ o o * @ @ @ @ O @ @ @ o o @ = * @ # @ O o o O O @ * O O = o   ",
"X o @ @ * * O O @ O @ = * * @ O O * @ O o O @ * @ O O O O * = = = * @ o O = = = * @ @ @ * * O O @ O @ = * * @ O O * @ O o O @ * @ O O O O * = = = * @ o O = @ o ",
"= * * = = = O O @ @ * = = = = * * * @ O @ * = * * O o O * J L L L J @ o O = K L L J * = = = O O @ @ * = = = = * * * @ O @ * = * * O o O * J L L L J @ o O = = # ",
"O = K L K J @ @ * @ @ = K L L L K J @ o = K L K J J J K J J J K K K J * * J J J J J K L K J @ @ * @ @ = K L L L K J @ O = K L K J J J K J J J K K K J * * J * O ",
"O * J J K L J J J = = J L L K K K K J = L L L L L K L L K = = = = = K J = = J J J J J J K L J J J = = J L L K K K K J = L L L L L K L L K = = = = = K J = = * @ ",
"@ @ @ * = L L L K J J J L K = = J L L L L L L L L L L L J = * = O O K L K = J L K = @ * = L L L K J J J L K = = J L L L L L L L L L L L J = = = O O K L K = * @ ",
"o O @ = = = = = = * * * * = J K K L = * * = = J K L L L K * * * o O = L L = * * = * @ = = = = = = * * * * = J K K L = * * = = J K L L L K = * * o O = L L = O X ",
"o o @ = = @ @ * O O O O O + = K K J = = * * * * = L L L L J = J * * J L L * O @ = * @ = = @ @ * O O O O O + = K K J = = * * * * = L L L L J = J * * J L L * o . ",
"o O @ = = O O O O O O O O O o * J = K L K = * O * L L L L L L L K J L L K O * = = * @ = = O O O O O O O O O o * J J K L K = * O * L L L L L L L K J L L K O o o ",
"o O @ = = * O O O O O O @ * * J K J K L L K = K L L L L K W M..X X@X X X X.X/.J.Y. X.X.X X X.X.XM.1 * O # * * J K K K L L K = K L L L L K J J K = * * J K J = @ ",
"O O @ = J J @ @ * = = * = J J L L K K L L K K L L L L L R h.*X<X:X-X<X<X<X;X+XP.}.:X-X-X-X<X;X-X*XN.W = = J J L L K K L L K K L L L L K = = J J * o o = L K = # ",
"# @ * L L L = = J K L L K J L L L J L L = J L = J L E Q M.@X,X,X<X-X<X-X,X,X@XR.(.;X<X<X-X<X<X<X,X*XV.^ P K L L L J L L = J L = J L L J @ J L L * o O J L * @ @ ",
"o O * = L L L = @ = K L J = L J = K L K K L L J L T / M.}.$X$X*X:X,X;X-X-X&X+XR.(.;X<X<X,X-X,X-X$X$X|.B.' , L J = K L K K L L J K L L K J K L L J = K L L = @ O ",
"o O * = K L L J @ @ = L J = K = = L J = L L I R ' ` a.Z.S.H.S.T.@X<X:X-X-X=X+XT.(.-X<X,X,X-X@XT.S.H.S.A.j.( ' W : L J = L L L J J L L L L L L K K L L L K J * O ",
"O * J K L L J K L = = K J = J L L J @ o = I ! g..X}.R.R.R.R.T.H.P.-X:X;X-X-X+XP.R.-X,X-X-X-XT.A.P.R.R.R.R.E. XN.Q P @ o = L L * @ = J L K L L J = = = = J J = * ",
"O = L J K L K K L L K J J K L L L = O + - W g.+X-X=X-X-X,X,X-XOXA.}.-X=X$X$X).H.R.&X-X-X#XOXZ.(.*X,X,X-X-X-X-X$XN.W - + * = = @ @ * = = * J J K J J J K L L J # ",
"O = K * = L K K L L J = = J L L L = * ; W h.@X=X-X-X$X&X-X-X-X*XE.Z.&X#X$X$X(.H.R.$X$X&X#XH.T.-X-X-X-X&X&X=X-X&X-XB.~ ; * * * * * = = = * = K L L L L L L L J # ",
"* * * O @ = = J J * O O O * J L L K P W M.$X*X+X-X=X=X-X-X-X,X,X+XZ.R.$X$X$XW.A.T.+XOX$X|.z.OX,X,X;X-X-X-X=X-X$X-X-XB.~ : K L L L L K K L L L L L L L = * K = # ",
"@ = = * * * * = = * * = O O J L L I Q ) y.z.z.z.C.-X-X,X-X&X-X,X*XA.i.b.K.K.b.i.k.b.K.b.n.0.$X,X-X&X-X,X-X$XA.z.z.z.y.t.~ P K L L L L K = J K K = = J = @ * * # ",
"O = L J = = = = * * = J * O J L L ^ ^.@XOXOXOX(.Z.R.-X&X#X-X,X$XF.w v v z h j v v z h j h % n.$X,X-X$X$X&X}.y.}.OXOXOX@X^.^ J L L L L K * = J K = @ = = = O @ @ ",
"* = J L L L K J J * O O o * L L P ` .X-X-X-X-X&XQ.Z.@X-X=X;X*XK.w x v v l g l v v l h j v i 4 s.%X;X-X-X$XH.T.-X-X-X-X-X.X` T J J K K L L L L L L L L L L = * @ ",
"@ = K L L L K L L J = = = J L I ^ oX@X$X=X-X,X:X-XC.E.-X@X'._.r 4 l v v l g l v v l h j v v h 9 s.K.|.-XOXC.-X,X,X:X-X$X$X{.` P K J J J J J K L K K J L L J = # ",
"O = L K J J K K L L L L L L L ^ ^.$X&X-X;X-X-X,X<X}.Z.E._.H V x h l v v l g l v v l h j v v c h 9 0 e.I.S.T.<X<X-X-X;X-X-X$X{./ I : = * * * = = * * * J L J = # ",
"@ * = J L L J = = K L L L L K m.$X$X=X-X-X-X&X-X<X-Xx.e V N v l h l v v l g l v v l h j v v v h h h x w q.@X<X-X=X&X-X-X=X$X+XB.U - * = = * * * + * = J J J * O ",
"@ * J K K J = = = J = = L L L E.#X$X$X=X=X$X$X&X,X|.e.9 l v v l g l v v l g l v v l h j v v v g j v l 4 w ].,X-X$X$X=X=X$X$X#XY.U - @ * * * @ O O * J J = J * O ",
"O = L L = O * = J = * O = L J U.+X$X$X$X$X$X$X#X$Xs.M h l v v l g l v v l g l v v l h j v v v g j v v j g e @X$X$X$X$X$X$X$X#XU.U > @ O O O O @ O * J J J J * @ ",
"@ = K J * o o * L L L K L K = G.OX#X#XOXOX#XOX(.I.V j h l v v l g l v v l g l v v l h j v v v g j v v c t % b.(.OXOXOXOX+X#XOXG.T U * o o O * = = = = J K K = @ ",
"@ = K J = * @ = L L L K K K J v.H.P.T.H.H.T.H.H.v.N j h l v v l g l v v l g l v v l h j v v v g j v v c t $ w.H.P.H.H.H.H.T.H.l.T T = * * = J K K K K J J K = @ ",
"@ = L L L L K K L J = * J L L J.}.}.}.OXOXOXOXQ.P.N j h l v v l g l v v l g l v v l h j v v v g j v v c t & k.Q.OXOXOXOXOX(.}.J.T T L L L L L L L L L J = = * @ ",
"o @ J L K = K L J J = @ J L L {.:X-X-X;X-X-X-X=XE.N j h l v v l g l v v l g l v v l h j v v v g j v v c t & b.$X-X-X-X,X-X-X:X{.U T L L L L L L L K = J J * O o ",
"o * J L J @ = K K J = @ = K K {.,X;X,X;X-X-X=X-X[.N j h l v v l g l v v l g l v v l h j v v v g j v v c t & F.-X-X=X-X;X,X;X,X{.U T L L L J J K K J = K L = O o ",
"@ = L L K = * J L = @ @ # * * {.;X-X-X,X,X-X-X-XE.N j h l v v l g l v v l g l v v l h j v v v g j v v c t & b.-X-X-X;X,X-X-X-X{.T U L L L = = K K K L L L K = * ",
"@ = K K J = J J J J = @ = K = {.;X=X$X-X-X=X&X$XE.N j h l v v l g l v v l g l v v l h j v v v g j v v c t & b.=X&X=X-X-X&X=X-X{.U > K L L = = K L L K = = L J = ",
"o @ = J J J K K = K K * J L L {.&X$X$X&X$X#X$X#XE.N j h l v v l g l v v l g l v v l h j v v v g j v v c t & b.$X$X$X&X$X$X$X$X{.> > J L L J J L L K = @ * L J @ ",
"O @ = = J L L L L L L L * * L E.+X#X$X$X#X#X$X#XE.B l h c v v c h c v v v h k v v c h l v v v h l v v c u % b.#X&X$X$X$X$X#X+XY.> U = K L K K L K = = J K L * o ",
"O @ @ * = K J K L L K J * = L G.T.W.Q.W.W.Q.Q.Q.A.=.F A &.*.*.&.s &.*.*.&.s &.*.*.&.A F *.*.*.s F *.*.&.d f k.R.Q.(.W.W.Q.W.R.c.> U = = = = = L L K = J L L @ . ",
"O O O O * = = J L L J * = K L j.Z.Z.Z.Z.Z.Z.Z.Z.k.4...X.X.X.X.X.X.X.+.+.X...X.+.+.X.X.X.+.+.X.X.X.+.+.X.X.1.i.Z.Z.Z.Z.Z.Z.Z.Z.t.U T J = * * = K L L J K L L * X ",
"* @ O @ * * = J K K K J = = K U.OX$X$X$X$X$X@X$X'.4.o.o.o.#.#.o.o.o.#.#.o.o.o.#.#.o.o.o.#.#.#.o.o.#.#.o.o.2.`.$X@X$X$X$X$X$X+XL.U T L L J K K = @ * L L L J = @ ",
"* * * = = = = J J J J J J J = U.&X=X&X=X;X,X-X,X|.-.Z n Z S S Z n Z S S Z n Z S S Z n Z S S Z n Z Z S Z f a K.<X-X>X-X-X=X=X-XU.T Y L K J K L J @ @ K K = * * * ",
"o * J J K L J = = * = K K J = /.-X-X-X-X,X,X-X,X|.B l h v v v l h l v v c g l v v l h j v v v h j v v c t y K.<X-X,X-X-X-X-X-X~.T U K J J J K L = # K = @ * @ O ",
". @ K J J K K K K = = K L L L E.-X-X-X-X,X-X=X-X|.N j h l v v l g l v v l g l v v l h j v v v g j v v c t & K.,X-X=X>X>X-X-X$X~.T Y L L J = = J J K L J = L = o ",
"o @ = = = J = = = * = K J J J U.$X$X=X=X=X$X&X-X|.N j h l v v l g l v v l g l v v l h j v v v g j v v c t & K.:X-X#X=X-X=X$X+XY.U > = * * = J K L K = * = K = @ ",
"= * * = = = O O @ * * = = = = U.#X$X$X$X$X$X$X#X}.N j h l v v l g l v v l g l v v l h j v v v g j v v c t & K.&X$X$X$X$X$X$X#XU.; - o O * J L L L J @ o O = = # ",
"O = K L K J @ @ * @ @ = K L L L.+X$X$X#X#X$X+X).E.N j h l v v l g l v v l g l v v l h j v v v g j v v c t & b.OX#X#X#X#X#X$X+XL.U U J J J J J K K K J * * J * O ",
"O * J J K L J J J = = J L L K v.T.R.R.R.R.R.T.T.A.N j h l v v l g l v v l g l v v l h j v v v k Z -.G v t $ k.T.R.T.T.R.R.R.T.l.T T L L K = = = = = K J = = * @ ",
"@ @ @ * = L L L K J J J L K = c.P.T.T.T.R.R.T.P.c.N j h l v v l g l v v l g l v v l h j v v b &.,.3.5.-.u $ q.P.T.T.T.T.T.T.T.v.T T L L J = * = O O K L K = * @ ",
"o O @ = = = = = = * * * * = J {.:X-X,X,X,X,X-X-X[.N j h l v v l g l v v l g l v v l h j v v A O.%.7.8.5.u & F.*X,X:X,X,X;X-X:X{.T T L L K * * * o O = L L = o X ",
"o o @ = = @ @ * O O O O O + = {.,X-X,X-X-X=X&X-XE.N j h l v v l g l v v l g l v v l h j v v d o.$.$.8.6.p & b.-X=X$X&X-X;X-X,X{.U T L L L J = J * * J L L * o . ",
"o O @ = = O O O O O O O O O o {.:X-X;X,X,X,X;X-X}.N j h l v v l g l v v l g l v v l h j v v p  .%.7.9.5.u & K.-X;X;X,X,X;X-X:X{.> T L L L L L L K J L L K O o o ",
"o O @ = = * O O o O O O @ * * {.;X=X$X-X;X=X=X=XE.N j h l v v l g l v v l g l v v l h j v v u p ] 3.:.m t & b.-X&X&X;X;X=X=X-X{.T T L L K J J K = * * J K J = @ ",
"O O @ = K J @ @ * = = * = J J {.-X=X#X#X&X&X$XOX!.N j h l v v l g l v v l g l v v l h j v v v i c m m c t & b.OX&X$X&X#X#X&X&X{.T T L K = = J J * o o = L K = # ",
"# @ * L L L = = J K L L K J L {.#X$X$X$X#X$X&X#XE.N j h l v v l h l v v l g l v v l h j v v v h j v v c t & b.$X&X$X$X$X$X#X+X~.U T L J @ J L L * o @ J L * @ @ ",
"o O * = L L L = @ = K L J = L G.W.(.(.(.(.(.(.(.J.D C n C A A C n C A A C a C A A C n C A A A n C A A C f p k.Q.(.OX(.(.(.(.W.G.T T L K J K L L J = K L L = @ O ",
"o O * = K L L K @ @ = L J = K l.A.H.H.H.H.H.H.H.x.>.} } | | | } } } | | | } } | | } } } | | | } } | | | } >.i.S.H.H.H.H.H.H.S.l.U T L L L L L L K L L L K J * O ",
"O * J K L L J K L = = K J = J G.R.Q.Q.Q.(.Q.Q.Q.K.4.@.@.@.@.@.@.@.@.@.@.@.@.@.@.@.@.@.@.@.@.@.@.@.@.@.@.@.2.B.(.Q.Q.Q.Q.Q.Q.E.m.; > J L K L L J = = = = J K = * ",
"O = L J K L K K L L K J J K L E.&X-X-X-X,X,X-X,X|.<.,.[ ,.,.,.,.[ ,.,.,.,.[ ,.,.,.,.[ ,.,.,.,.[ ,.,.,.,.{ ;.'.<X-X,X;X-X-X-X-XY.; > = = * = K K K J J K L L J # ",
"O = K * = L K K L L J = = J L Y.&X&X&X&X;X,X-X,X|.B l h c v v k i k v v c y l v v c h j v v v h l v v c u y K.<X-X,X-X-X&X&X-XU.> U = = * = K L L L L L L L J # ",
"* * * O @ = = J J * O O O * J E.-X-X-X,X,X-X-X-X|.N j h l v v l g l v v l g l v v l h j v v v h j v v c t & K.,X-X-X,X,X-X-X-X~.T T K K L L L L L L L = * K = # ",
"@ = = * * * * = = * * = O O J E.&X$X$X-X-X&X&X-X|.N j h l v v l g l v v l g l v v l h j v v v g j v v c t & K.:X=X#X-X-X&X$X#X~.T T L K = J K K = = J = @ * * # ",
"O = L J = = = = * * = J * O J U.+X$X#X$X$X#X$X$X|.N j h l v v l g l v v l g l v v l h j v v v g j v v c t & K.-X$X#X$X$X$X$X+XU.T T L K * = J K = @ = = = O @ @ ",
"* = J L L L K J J * O O o * L U.$X=X=X$X$X=X$XOX}.N j h l v v l g l v v l g l v v l h j v v v g j v v c t & K.#X$X$X$X#X&X=X#XL.U Y K L L L L L L L L L L = * @ ",
"@ = K L L L K L L J = = = J L v.T.R.Q.R.R.W.R.T.A.N j h l v v l g l v v l g l v v l h j v v v g j v v c t $ k.T.R.R.R.R.R.W.R.l.U U J J J J K L K K J L L J = # ",
"O = L K J J K K L L L L L L L c.T.R.E.R.R.E.R.T.A.N j h l v v l g l v v l g l v v l h j v v v g j v v c t $ k.T.E.R.R.R.R.R.R.v.T U = * * * = = * * * J L J = # ",
"@ * = J L L J = = K L L L L K Y.$X@X@X$X$X$X@X+XI.N j h l v v l g l v v l g l v v l h j v v v g j v v c t & b.+X@X$X$X$X@X@X$XY.U ; * = = * * * + * = J J J * O ",
"@ * J K K J = = = = = = K L K {.,X-X,X;X-X-X=X&X[.N j h l v v l g l v v l g l v v l h j v v v g j v v c t & D.&X-X-X-X:X;X;X,X{.U - @ * * * @ O o * J J = J * O ",
"O = L L = O * = J = * O = L J {.:X;X,X;X-X-X&X=X[.N j h l v v l g l v v l g l v v l h j v v v g j v v c t & D.-X-X&X-X;X,X;X:X{.U > @ O O O O @ O * J J J = * @ ",
"@ = K J * o o * L L L K L K J {.;X-X=X;X,X-X-X-XE.N j h l v v l g l v v l g l v v l h j v v v g j v v c t & b.-X-X-X,X,X-X=X-X{.T U * o o O * = = = = J K K = @ ",
"@ = K J = * @ = L L L K K K J {.-X=X#X&X=X$X$X#XE.N j h l v v l g l v v l g l v v l h j v v v g j v v c t & b.$X#X$X=X&X$X&X-X{.T T = * * = J K K K K J J K = @ ",
"@ = L L L L L K L J = * J L L {.$X$X$X$X$X#X$X+XE.N j h l v v l g l v v l g l v v l h j v v v g j v v c t & b.+X&X#X$X$X$X$X#X/.T T L L L L L L L L L J = = * @ ",
"o @ J L K = K L J J = @ J L L E.+X$X$X$X#X$X&X#XP.N j h l v v l h l v v l g l v v l h j v v v g j v v c t & x.#X&X=X#X$X$X#X+XU.U T L L L L L L L K = J J * O o ",
"O * J L J @ = K K J = @ = K K ) p.d.p.p.d.f.f.p._ 8 6 3 6 7 7 6 2 3 7 7 6 < 3 7 7 6 2 6 7 7 6 2 3 7 7 3 3 2 ) p.p.f.p.p.f.d.p.) P I L L L J J K K J = K L = O o ",
"@ = L L K = * J L = @ @ # * * ( r.u.u.u.u.r.r.u.) 8 6 5 6 6 6 6 < 6 6 6 6 < 6 6 6 6 5 6 6 6 3 2 6 6 3 3 3 2 q r.u.u.u.u.u.r.r.( I P L L L = = K K K L L L K = * ",
"@ = K K J = = J J J = @ = K = = J K J = = J K K = = K L L = = K L L K = = L L L J J K K J = = J J J = @ = K = = J K J = J J J K = = K L L J = K L L K = = L J = ",
"o @ = J J J K K = K K * J L L K J L = * = K L = * * J L L J J L L K = @ * L L L J = = = J J K K = K K * J L L K K L = * = K L = * * J L L K J L L K = @ * L J @ ",
"O @ = = J L L L L L L L * * L K J L L J J J = * * J = K L K K L K = = J K L J = J J = = J L L L L L L L * * L K J L L J J J = * * J = K L K K L K = = J K L * o ",
"O @ @ * = K J K L L L J * = L L L L K K L J = * = K = = = = = L L K = J K L = * J = @ * = K J K L L K J * = L L L L K K L J = * = K = = = = = L L K = J K L @ . ",
"O O O O * = = J L L J * = J L L L J J J L L J = J K J = * * = K L L J K L L = * J = O O * = = J L L J * = J L L L J J J L L J = J K = = * * = K L L J K L L * X ",
"* @ O @ * * = J K K K J = = K = * * * = L L K J J L L L J K K = @ * L L L J K L L = O @ * * = J K K K J = = K = * * * = L L K J J L L L J K K = @ * L L L J = @ ",
"o o O @ * @ @ @ # @ @ * * * * * * @ * * * = = = = = J = = = = * o o = = @ @ = J = @ O @ * @ @ # # @ @ * * * * * * @ * * * = = = = = = = = = = * o o = = @ @ O o ",
". o O O * * O o o o o O @ O o @ * @ * @ o o @ * * O O O @ O @ * o o @ o . X o @ O O O O * * O o o o o O @ O o @ * @ * @ o o @ * * O O O @ O @ * o o @ o . X X . "
};
