/* XPM */
static char *result[] = {
/* columns rows colors chars-per-pixel */
"80 80 240 2 ",
"   c #191613",
".  c #1C1B15",
"X  c #191715",
"o  c #211D16",
"O  c #241E19",
"+  c #1E2214",
"@  c #1E2518",
"#  c #18200E",
"$  c #222415",
"%  c #232B15",
"&  c #26231C",
"*  c #2B231D",
"=  c #292B1B",
"-  c #2C341B",
";  c #2B3B1D",
":  c #283517",
">  c #343A1B",
",  c #2C3113",
"<  c #2C2B22",
"1  c #2C2723",
"2  c #322B24",
"3  c #322E2A",
"4  c #392E28",
"5  c #2C3C23",
"6  c #2B3523",
"7  c #333424",
"8  c #343A24",
"9  c #35322B",
"0  c #3B342C",
"q  c #3B3926",
"w  c #3C3631",
"e  c #3B3935",
"r  c #393A35",
"t  c #443A2C",
"y  c #44382A",
"u  c #433C33",
"i  c #413E3A",
"p  c #463B33",
"a  c #2C4E15",
"s  c #2D4319",
"d  c #36481B",
"f  c #2E5316",
"g  c #305617",
"h  c #315817",
"j  c #335B18",
"k  c #38581B",
"l  c #36621A",
"z  c #39651B",
"x  c #3C6D1D",
"c  c #3E711E",
"v  c #334423",
"b  c #3C4D24",
"n  c #374728",
"m  c #3B5324",
"M  c #3A5727",
"N  c #364A32",
"B  c #3C5433",
"V  c #2D4122",
"C  c #3E6723",
"Z  c #3F7320",
"A  c #44511E",
"S  c #41751F",
"D  c #43791F",
"F  c #4C7A1F",
"G  c #436A1E",
"H  c #46472A",
"J  c #4B5D2B",
"K  c #455727",
"L  c #4B4134",
"P  c #494638",
"I  c #544B3C",
"U  c #5C4C3C",
"Y  c #544638",
"T  c #445B31",
"R  c #4B5535",
"E  c #545937",
"W  c #54512B",
"Q  c #624E39",
"!  c #64553D",
"~  c #4D642D",
"^  c #476828",
"/  c #53672B",
"(  c #417620",
")  c #457C21",
"_  c #497D24",
"`  c #4B762A",
"'  c #56762A",
"]  c #4B6735",
"[  c #566837",
"{  c #4E7333",
"}  c #547434",
"|  c #5A7334",
" . c #5D7B35",
".. c #59783A",
"X. c #647A39",
"o. c #646836",
"O. c #4D4B44",
"+. c #4A4744",
"@. c #534D46",
"#. c #5C544B",
"$. c #595648",
"%. c #5A5753",
"&. c #415F41",
"*. c #655A4A",
"=. c #645D53",
"-. c #665D56",
";. c #5C6849",
":. c #567542",
">. c #5F6352",
",. c #666949",
"<. c #677747",
"1. c #77794B",
"2. c #6D635A",
"3. c #6A6755",
"4. c #74685A",
"5. c #6D7754",
"6. c #76765B",
"7. c #7A6C46",
"8. c #6B6865",
"9. c #7A6E63",
"0. c #726C68",
"q. c #7B7264",
"w. c #7C756B",
"e. c #787568",
"r. c #797974",
"t. c #6E7069",
"y. c #837557",
"u. c #847867",
"i. c #837D72",
"p. c #877D75",
"a. c #478022",
"s. c #498423",
"d. c #4C8A24",
"f. c #4E852A",
"g. c #538B2B",
"h. c #55882A",
"j. c #58912C",
"k. c #588837",
"l. c #5C9235",
"z. c #4F8432",
"x. c #67873A",
"c. c #738A3C",
"v. c #659638",
"b. c #75973A",
"n. c #63852F",
"m. c #5C8C41",
"M. c #6A8745",
"N. c #758648",
"B. c #6B9547",
"V. c #779746",
"C. c #798957",
"Z. c #779A55",
"A. c #6D8F53",
"S. c #6EA247",
"D. c #79A549",
"F. c #79A855",
"G. c #7FB749",
"H. c #7A8265",
"J. c #7C9A67",
"K. c #838A3B",
"L. c #87A93F",
"P. c #858746",
"I. c #81984D",
"U. c #889B5A",
"Y. c #8C8C59",
"T. c #87A94B",
"R. c #85AB57",
"E. c #8AB45A",
"W. c #98B65B",
"Q. c #8AB24E",
"!. c #A0B75B",
"~. c #86876B",
"^. c #87956C",
"/. c #999669",
"(. c #8B8579",
"). c #948B7C",
"_. c #938777",
"`. c #8A9675",
"'. c #979579",
"]. c #A39F6D",
"[. c #88B566",
"{. c #96BB66",
"}. c #98A77B",
"|. c #90AE77",
" X c #A6A973",
".X c #9AC36D",
"XX c #A7C668",
"oX c #9CC35A",
"OX c #8C8882",
"+X c #938C83",
"@X c #968E87",
"#X c #9C948B",
"$X c #9D9B8D",
"%X c #989487",
"&X c #9B9893",
"*X c #8E9281",
"=X c #A49889",
"-X c #A39C93",
";X c #A39E99",
":X c #9BAA8A",
">X c #A5A789",
",X c #AAB689",
"<X c #ABA59C",
"1X c #A7A697",
"2X c #B3AA9C",
"3X c #AAB597",
"4X c #B8B699",
"5X c #B1BB83",
"6X c #ACA9A3",
"7X c #B2ADA3",
"8X c #B2AEAC",
"9X c #BAB4AC",
"0X c #B8B6A8",
"qX c #B9B6B2",
"wX c #BDBAB3",
"eX c #BCBAB8",
"rX c #C1BEB7",
"tX c #C1B9A9",
"yX c #C0B49D",
"uX c #ADC496",
"iX c #BBC6AC",
"pX c #C3C3AD",
"aX c #C5C2BC",
"sX c #C8C7BB",
"dX c #C4DAB5",
"fX c #C9C7C2",
"gX c #CDCBC4",
"hX c #C9C7C5",
"jX c #D1CECA",
"kX c #D0CDC5",
"lX c #D4D2CD",
"zX c #D8D5CD",
"xX c #D6D4D1",
"cX c #D9D7D2",
"vX c #DBDAD5",
"bX c #DDDCDA",
"nX c #E0DEDB",
"mX c #E2E1DC",
"MX c #E7E6E4",
"NX c #F3F2F1",
/* pixels */
"f l S x c c c c c c c c D D D c c c c c c c c s.D c a.c x x x c c c ( c c D ( x l x S x c S c c c x x c c D D c c c c D c x c D D S D S c x x c c c ( c c D x j ",
"z x S S ( Z c c c c c D D D D c c Z a.c c c c D c c c c Z ( ) ) ) ) S c c ) a.) S S S c S S c c S c c F ) Z D c c ) c c c c c D c c S c c ( ) ) ) ) c c c ) S x ",
") D S ) ) ) c c c D D a.a.( ) S Z a.c c c D a.c c c c c ( a.d.d.d.a.S x c ) s.d.d._ S ) a.) c c c D c s.a.) a.Z Z ) c c c D a.D c c x c ( a.d.d.d.a.D c S ) a.D ",
"G ( s.d.d.a.S S a.c D a.s.d.d.d.s.s.c c c d.s.s.s.a.s.s.s.a.s.s.s.s.s.D ( a.s.a.s.s.s.s.s.a.D S a.c c s.s.s.d.d.d.s.c c ) s.d.s.a.a.s.s.s._ a.s.s.s.a.D S a.D G ",
"c D a.s.s.d.s.a.a.) ) s.d.d.d.s.s.s.a.a.d.d.d.d.d.s.d.d.d.a.) a.) ) d.s.) a.s.s.s.a.s.s.d.d.s.a.s.a.a.s.d.d.s.s.d.s.s.a.s.d.d.d.d.s.d.d.s.) ) _ ) ) d.s.) ) ( S ",
"S S D c a.d.d.d.s.s.a.s.d.s.) ) a.d.d.d.d.d.d.d.d.d.d.s.s.D ( D Z Z s.d.s.) a.d.s.) c S a.d.d.d.s.s.s.s.d.s.) a.a.d.d.d.d.d.d.d.d.d.d.d.s.) ( ) c S s.d.s.) ( S ",
"x c S D ) a.) ) ) D ( ( ( ) s.d.d.s.s.Z ) a.s.s.s.d.d.d.s.D c D x x ) d.d.) ( ( ) D c ) ) ) a.) c D D Z c a.s.s.s.s.a.( ) a.s.s.d.d.d.d.s.) S ( x c ) d.d.) x z ",
"x x S F ) c S ( c c c Z c c ) s.s.a.a.a.Z Z Z c a.s.d.d.d.a.s.a.) ( s.d.s.( S S a.( S a.) c c c c c c c c c a.s.s.s.) ) ( Z ) c ) s.d.d.s.s._ s.) ( s.d.d.( x l ",
"x c D a.) c c c c Z c c Z c c ( a.a.s.d.d.D c c c s.d.d.d.d.d.d.d._ s.d.s.c c a.Z ) D a.F c c c c Z Z c Z c Z Z s.a.s.d.d.a.c c ( d.d.d.d.d.d.d.s.s.d.d.s.c x x ",
"x c S D D ( Z c c c c c D ( ) a.s.s.d.d.d.s.a.s.d.d.d.d.s.s.s.s.) ( ( s.s.a.d.d.a.Z D D D D c c c c c c c a.Z a.s.a.d.d.d.s.a.s.d.d.d.d.s.s.s.d.) ( ( a.d.s.( D ",
"c c D a.s.a.( ( ( ) ) ) ) a.s.d.d.a.d.d.d.s.s.s.d.d.d.d.F a.s.s.( x c ) d.s.s.d.s.( c s.d.a.S S ) a.a.Z a.a.s.d.d.s.s.d.s.s.s.d.d.d.d.s.) ) s.s.Z Z x a.d.a.) D ",
"D S ( d.d.d.) ( a.s.d.d.s.a.d.d.d.a.d.d.a.a.d.F s.d.d.s.c a.d.d.( x c s.d.c F d.d.a.Z d.j.D.j.D.V.G.d.d.s.s.d.d.s.s.d.d.a.a.s.a.s.d.d.a.S ) d.d.Z x c s.d.Z c D ",
"x S S F d.d.d.a.( ( s.d.a.a.d.a.) d.d.d.s.d.d.s.d.d.d.d.s.d.d.d.s.) d.d.d.v.v.T.Q.Q.v.b.{.E.T.!.XXXXQ.d.l.g.d.a.a.s.d.s.s.d.d.s.s.d.d.d.s.d.d.d.a.) s.d.d.( c c ",
"x c Z a.s.d.d.s.S Z ) d.a.) s.a.) s.a.) d.d.d.a.a.d.d.d.d.d.d.d.s.s.d.d.S.F.{.XXXX!.W.!.{.R.W.Q.W.{.R.S.J.[.l.l.D s.s.a.s.d.d.s.s.d.d.d.d.d.d.s.s.d.d.d.s.a.) c ",
"c D s.d.d.d.s.s.d.) ) d.a.a.s.d.d.s.( x ) d.d.) D D a.s.s.d.d.s.) ) f.D.W..X.XW.W.V.M.<.U.C.I.T.D.A.B.F.F.F.F.l.d.s.c c ) d.d.Z ( ) s.s.d.d.d.a.) ) a.s.a.s.a.) ",
"c D d.s.s.d.s.d.d.d.s.a.s.s.s.d.d.( c Z ( ( a.c c D a.D D a.s.d.s.s.F..XXXE.F.V...[ N.<.9XcX~.I.} :.C B.B.m.B.k.f.) c c Z a.a.c ( ( ) ) ) ) s.s.s.a.a.s.d.s.a.c ",
"c F s.D a.d.s.s.d.d.a.( a.s.s.d.d.) S S S S ( ( D ) ) ) ( ) d.j.S.l.B.W.E.B.M.| ~ R I.}.pXxX_.X.} ] N M m.B.m.k.z.{ ` Z Z D ) ( Z a.a.) Z a.a.d.d.d.d.d.d.d.a.D ",
"Z c ) c c a.) a.s.( Z Z c ( s.d.d.d._ ) a.s.d.d.s.d.s.d.d.d.d.v.XXoXR.Z.B.x.Z.x. .H p.gXbXjX=X$.H q v ..B.` ] ] ] { ` ` _ f.d.d.f.d.s.d.d.d.d.d.d.d.d.( ( d.) D ",
"c D s.c ( ( D ) ) ( ( ) ( Z a.d.d.d.s.s.F _ s.d.d.d.d.d.s.a.l.B.E.E.R.R.B.<.R.x.V.*.<XzXvXwX).*.Y P M.F.S.^ ^ n T &...:._ _ s.d.d.d.d.s.a.s.s.d.a.) s.D S ( ( D ",
"c s.d.a.) ( ) ) ( ( ) a.( x ) d.d.s.s.s.) ) a.d.d.d.d.a.l.F.R.B.} S.{.M.X.R.H N M.4.zXmXgX&X#X*.*.M.B.l.{ n v M n B ] ] :.} _ s.d.d.d.s.Z a.s.s.D c ) a.) c c D ",
"D ) a.s.d.d.a.a.) D S c x S d.s.s.s.s.d.d.d.d.s.s.s.g.F.F.J.W.D.] V.W.X.H E O.3.H.2XbXcXrX(.-.3.5...T ^ - V v ; 6 N N &.&.] z.a.a.s.g.d.d.d.d.d.d.d.d.d.d.) ( D ",
"D ) s.d.d.d.s.d.d.s.) ) ) s.d.d.s.( a.d.s.a.a.l.v.S.F.[.oXE.D.B.] / X.~ N >.q.).1XwXaX<Xp.w.i.3.V.[ ] ; 5 ; 5 B 5 V N N B C ) s.s.a.k.a.s.s.s.d.d.s.s.d.d.s.F D ",
"c F d.s.a.s.s.d.d.d.d.d.d.d.d.d.s.S ( a.( ( z.E.F.S.F.D.F.F.V./ K K n ..$.).9XlXaX7X<Xw.p.(.4.1.R H T v M B ; v N N N Z C Z m.g.g._ a.( Z ( ) ) D S ( s.d.) ) S ",
"c Z a.a.d.d.a.) a.d.d.d.d.d.s.a.) ( ( ( ( f.g.E.E.D.T.D.v.D. .' J = 6 :.$.1XnXMXMXfX#X+Xu.*.@.@.L [ [ 5 m T M V 5 V M B C z.m.k.f.) ( ) ) ( ) Z c ( ) a.s.s.) c ",
"c D s.s.s.s.a.) ) a.) ) s.d.s._ ) a.) D k.F.S..XS.B.oXT.} x./ K K 6 n T 3.qXvXvXgX@XjXgX@X*.2.U p X.v m v V n V 5 @ 6 V j z.z.f.f.z.Z Z ) Z Z Z c c a.a.a.s.D c ",
"c a.d.d.a.c c a.a.a.Z c ) d.s.s.d.g.d.s.m.F.F.F.B.{  . ...k.K K X. ./ ] ;.7XcXgXqXsXgXgX2X*.Q @.Y q q { v : v V V @ V n M Z z.z.d.Z Z Z Z Z Z Z c c s.s.a.s.D c ",
"c ) s.a.c c c c d.d.d.s.s.s._ d.j.D.D.F.F.{.[.F...~ | x.x.~ v J x.x.| n.R @XxXvXMXjXjXrX4.Y p Y U c.M.M.C @ 6 n V : < n a.s.z.m.z.d.Z Z Z Z Z Z D a.D s.s.s.a.c ",
"c D s.s.a.a.c a.d.d.s.d.d.s.a.d.d.d.g..X.XR.R.N.[ E N.B.] K T T R V.[ X.*.7XbXmXxXjXkX-XtXfX9.p W x.k...M 5 m : : : 1 n a.a.f.m.k.d.s.Z Z a.s.d.s.s.s.a.s.s.s.c ",
"c a.d.d.d.d.d.s.d.s.) ( s.d.d.d.d.d.S..X.XW.R.R P 3.Z.] B B T T [ H.M.X.,.sXvXvXjXfX-X-XmXvX3.*.b.} K - m = v m 6 = 3 +.Z a.Z d.l.g.d.d.d.d.d.d.d.d.d.s.a.a.c c ",
"c c a.d.s.D s.d.s.a.) ( d.g.d.j.l.d.R.R.{.{.I.[ ,.$XiXF.z.:.N T 5.4XZ.N.e.gXbXMXMXgX).jXcXaX$.[ X.T n < & . V b 6 1 r +.&.g.d.Z a.d.d.d.d.d.d.d.d.s.F a.s.c c c ",
"c D s.d.s.c a.s.s.a.) ( h.j.d._ a.l.F.R.F.D.X.[ N.aXdXS. .} ] >.).J.M.A.~.cXNXNXgX'.=XmXzX9X$.E ~ H 8 L P & b m 8 9 P @.&.d.s.) a.s.d.d.d.a.s.s.s.s.a.s.s.a.c c ",
"c s.d.d.s.a.c s.d.a.Z ) D D ( f.h.k..XF.W.x.M.| C.fXuXg.] ] R &XrXuXZ.<.(.bXMXzXu.0XmXcXcX$X2.I ..n O.e.r.w m M 8 < P %.>.Z Z d.d.a.d.d.d.D D s.d.s.d.d.d.s.a.c ",
"c a.s.s.a.a.a.s._ s.F _ _ s._ s.d.B.E.B.| / ^ ;.:XgX|.C [ R %.qXmXgX}.<._.MXcXgX+XnXvXvXzX9.4.#.P @.w.;XOXe s d - 9 8 O.=.) s.s.a.) s.d.d.) ) s.d.d.d.D a.d.a.a.",
"c c a.a.a.a.s.s.F s.s.) h.d.s.s.s.l.S.c.b.d | e.eXbXiXS.B ] R.`.nXgX3X`.2XNXMX8X2XbXnXcX6X-.4.4.*.p.eXxXr.w n m 7 e P 8 #._ d.a.) ( s.s.d.s.a.s.d.s.a.S c d.a.c ",
"c c F ) a.d.d.d.d.d.j.j.F s.d.d.d.F.V.k.K ~ K *XhXbX|.A.J [ W.,.aXlX0X}.pXmXlX).sXnXzXgX@X4.9.9.3.hXxXlXOX+.n n 8 q O.P O.] ) ( ) a.) s.d.d.s.d.s.a.D s.s.d.D x ",
"c c c D D d.s.s.d.d.d.d.) s.h.j.g.B.B.~ } J ] C.aXxX:X5.:.:.[ ,.^.7X2X1X<X7X<X#XnXvXjXgX=X4.9.9.2.hXjX7XOX%.R b > > P %.%.] ) ( ) s.) ( s.( a.d.d.s.a.s.d.d.c l ",
"c c c c Z a.) a.d.d.s.D ) v.s.h.l.R.x...'.{ R P 3XbXiXA.H.:.D.P p y.p.p._._.+X=XmXkXzXzXi.q.2.9.2.eXhXlXaX8.O.B +.q > u %.] a.) a.s.a.) ) ( a.s.d.s.s.s.d.s.c x ",
"c c c D Z c ) s.d.s.s.s._ f.s._ k.M.} ;.3X/ m *.,XjXhX`.H.>...t p Q 4.u.u.u.u.9XmXzXnXsX2.4.,.*.2.qXeXlXbX@X%.O.%.@.q P %.` s.a.s.d.d.d.a.s.s.) D D s.d.d.s.a.D ",
"D D D a.a.a.a.a.a.a.a.a.s.s.g.s.k.~ E ).,X| / ~.,XMXqX$X>X XQ.v O 1 y 2.p.y.*.tXsXyXlX9X=.2.W b.M.<XeXfXqX&Xi +.i i +.P %.;.s.s.s.s.d.s.s.s.d.s.S S s.s.D a.c D ",
"c c s.s.s.d.a.a.D D D s.s.s.) s.d.k.].7XuX| H ^.,XbX6XaX+XN o.& * * * 2 *.u.4.).tXyX4XtX3.*.c.A K ).qXqX6X;X%.r i e w N @.>.f.d.d.a.a.s.a.s.s.d.D D s.F c c D c ",
"l c s.s.a.s.s.s.s.) ) s.d.s.d.s.f.h.uXfX0XX.K ^.pX=X#X).@.X.R 3 * * * O y *.p 2XyXy.y.=X9.H W J X.r.;XeXeX&X=.@.i +.+.9 @.%.:.d.d.s.d.d.s.a.) a.s.s.s.s.s.d.) x ",
"c S ) D a.a.) ( a.a.) s.s.a.a.) h.n.}.lXpX<.3.^.>X=X-X6.w [ } 9 * O O O O * * u.y.y.p.p.+X$./ W A 3.6XxXeX1Xp.O.+.@.%.@.i +.%.` a.( ) ( ( ) s.s.d.s.) ( D d.) S ",
"D D S F a.a.c c c c c ) ) ) ( Z F _ pXrX5X<.~ 5.'.-X*.Y 3 0 e 0 4 * O O     X -.<X2X@X7X#XI L W A (.aXeX6X1Xe.$.+.%.%.%.%.%.%.^ S c c c ( a.d.d.d.a.S x S ) ) D ",
"c D s.d.s.s.c c a.c D a.s.d.d.d.d.h.bXqX3X:.$.5.2Xp.Y y 1 q R R i O O O       &XjX<X;X#X*.Y c.X.x.1X8X6X:X1Xe.H e i @.-.%.-.>.{ a.) s.s.s.s.a.s.s.s.s.) S ) D c ",
"c D s.a.s.d.s.a.s.D a.s.d.d.d.d.s.k.cXrX}.,.;.1XsXQ Y y O 1 0 E 4 * O       X <XxX@X@XOX#.o.c.X.V.t.).3XU.<Xw.R < 3 3 P +.@.%.{ s.s.d.d.s._ ) ) ) ) s.s.) a.) S ",
"c S c ( a.d.d.d.s.s.s.a.d.d.a.Z a.F.gXqX>XN.6.mX_.W t 2 1 3 i y 2 O O       X p.2X7Xp.y.! t y > 7 I c.N.9.7X1Xi.% . 1 1 r r %.} d.d.d.d.s.) ( ) x ( s.d.s.( ( S ",
"c c c ) a.a.) a.a.Z ) Z Z Z d.d.s.B.sX7X4X5.1XsXU I > , q > t y 1 O O         3 u.OXp.I.T.o.X.c.X.M.c.o.=.@X$Xp.1 & $ * 2 0 O.[ d.d.d.d.s.( ( ( x x ) d.d.) c z ",
"x x c a.) c c c Z c Z Z Z Z Z s.s.Z.fXsXsX5XrX+XI Y H L L L 4 4 1 O O           p -.4.p / c.T.X./  .c.E 9.-X;Xw.w r 3 & & < e E ) s.d.d.d.s.s._ ) ) s.d.d.c x l ",
"x x D F D c c c c c c c c c c Z s.A.aXlXaX$X<X*.Q Q p p q 2 , * & o .       X . . 1 Y *.[ x.' n.b. .' W 3.i.%X&Xi P i 9 3 1 9 R S d.d.d.d.d.d.d.d.s.s.d.s.c x c ",
"x c D D a.c c c c c c c c a.Z s.d.B.jXaX2X%X@.p Y y y y * $ o o $ o         X . . O t $.I.b.L.' n.L./ p 9.(.#X;XI / r w 3 1 0 P ` d.d.d.s.s.s.s.) S ( s.d.a.( c ",
"c c D a.s.s.c c Z ) ) D a.a.s.d.d.:XgX8X1X2.P *.Q y t y * o & O o .       .   . . O L 0.c.n.F , A c.H ,.wX#Xq.i.d H p w 9 < 7 P d.d.d.s.D F a.s.( x Z ) d.s.) D ",
"D c D s.d.d.a.) s.d.d.d.a.d.d.d.d.iXvXfXrXq.*.Y p p p y * * * % $ $ . + + #   . . . 0 U ~ d s $ P 2.$.~.5.1.X./ = y y 4 9 < - m s.d.d.s.S s.d.d.( x c s.d.( S D ",
"c c c s.d.d.d.a.Z Z d.d.a.a.S.uX0XfXbXbXrXu.u.p.Q U y * * * % % $ + % % + + @ + . . @ 2 > G % I ;X7X}.<.5.'.t > : 8 = < w +.6 M ] d.d.d.s.d.d.d._ ) s.d.d.) ( c ",
"x c D D s.d.d.s.( Z ) d.a.) iXbXbXeXgXMXbXnXcXzX@X*.8 % : & . . o $ % + + + % . . & $ $ d / H =X6XZ./ 5.$Xi.y y = @ = < - < 1 9 e { d.d.d.d.d.s.s.d.d.d.s.a.( c ",
"c c d.d.d.d.s.s.d.s.Z d.) m.bXMXmX@X@XNXMXjXrX7X=X=X@.- n V @ . + @ : : . + $ $ % $ & % x.[ @XaXiX~.H.6X#XY y p P % 1 3 3 3 1 4 e ` s.d.d.d.d.a.) ) a.a.a.s.) ( ",
"c F d.a.d.d.s.s.d.d.s.s.s.iXNXNXxX@X0.7XsXfXyX'.p.p.9.@.5 6 @ + : 6 5 V 5 + : $ $ - 8 b / (.rXsX8X1X8X^.(.> p @.e 6 3 3 3 w 3 4 i C ) a.Z ) s.s.s.a.s.s.s.d.a.( ",
"c a.d.( ) d.s.s.d.d.s.) z.jXMXbXtX=Xp.p.7XyX2X1X-X0.8.0.8 + % , s N B 5 5 @ @ + $ % $ > ~ ,X,XwX8XqX3X6.(.5 +.+.< 6 r 5 3 3 3 0 p m C ( ) ) a.d.d.d.d.d.s.d.s.D ",
"D ( ( Z c a.) a.s.Z Z Z c 3XcXlX=Xy.*.*._.p.~._.i.0.8.8.%.} ^ : % ; V % @ : @ . $ = 8 > k.'.1X^.~.-XC.q.5.$.r.8.O.e N 6 < 1 +.2.8.8.r.r.k.d.d.d.d.d.d.) c s.a.D ",
"c D ) Z Z ) Z a.) Z ( ) x |.gX_.! Q Q Q u._.! W *.*.#.=.3.M.m : l a % @ ; 5 + $ $ s F n.c.V.%XC.,.;.P P e.aXeXeX8XOXO.< $ r 0.0.-.8.r.8.8.z.d.d.) ( a.) D D D D ",
"c ) d.s.) ) a.Z Z ) a.a.Z 0X9X=X4.Q Y *.4.Q / X.A y y <.N.&.7 + # % h k X . $ b d , N.b.b.n.' ' K b ] t.hXeX8XqX&X(.t.@.r r 8.#.+.%.8.t.H.r.a.s.F S ) a.) c c D ",
"D ) s.d.d.s.s.a.s.Z Z Z x 3X8X6X+X#.W M.v.b._ G ' d [ b.l.` S z g k k ; : : a d d q.sX>X' ^ k.] ] 1XhXhXhXeX;X&XOX&XOX@.+.r 8.8.-.t.r.r.$.8.d.d.d.d.d.d.d.D D c ",
"D D s.d.d.d.s.d.d.a.) ) J.jXbXfX+XC.n.^ ( M / } R L <.[ E R A k d m M H P ~ A d 6.sX2XE A K / `.MXMXbXjXeX8Xp.&X;XOX+.0 w 1 +.+.e r %.e @.$.s.d.s.s.s.d.d.a.a.D ",
"c a.d.s.a.s.a.s.d.d.d.d.iXcXgX3XF.k.' k ' k.G.oXu.4.4.q.=.L H q q t I 4.,.[ X.>XzXsX}.X.A [ 7XbXnXnXMXbXhXqX9.#.@.p Y y 1 1 3 9 9 - < r O.] ) ) ( ( D s.d.s.D a.",
"c c F a.d.d.s.a.a.d.f.:XxXxXeX:XD.j.: ` K k.B.R.9.w.9.*.I H A ! 4.6._._.Y.N.'.cXzXaX<XP > ,.eXeXxXjXeXeX;X0.-.@.@.p I p 0 & 1 ; : $ < 6 r C ( ( Z Z ) a.s.s.D c ",
"c a.a.s.s.a.a.) ) ) 3XvXjX&Xu.E K G K G n.j.K H [ $.W / | W 1./.=X X].].N.1.y./._.y.W A -XlXlXxXbXMX8Xw.2.*.%.3.R Y L *X&Xt.H , > , > = 0 R ( Z c c a.a.a.a.c c ",
"c D d.s.a.c c ) s.s.iXjXOXU Q y K v.G _ j.F > s G K J | X.x.c./.].]./.1.K.y.o./ W X./ [ jXbXxXjXjX6X4.#.=.+.<./ k E @X&X2.I y > > > > q b x x ( c D s.s.a.F a.c ",
"c D s.s.c c c D d.d.`.q.4._.,.> G F G J H H y A W o.o.y.y. XyX4X'.Y.].]./.].Y.P.K.K.K.0XhXhXrX-X&X2.*.#.E | ~ K ;.1X&Xw.t q R ;./ j a a x c ( ) D D a.a.s.d.a.c ",
"c s.s.s.a.) c a.d.d.d.) l j 4XwXy.,.u.'.-X_.'.tX/./.Y./.pXwX0X=Xy.u.~.y.P.P.P.P.P.K.>XiXiXqX).1Xw.-.,.5.| | K | H.OX^.R W m g ] ..m j Z ( ) a.s.s.s.s.a.a.s.a.c ",
"c a.d.d.d.d.s.s.d.a.) ( l h ] J.gXsXcXzXlXzXzX5XU./.0XrX0X7X_.,.3.1.5.1./ ~ ^ l ^ T.I.I.Y.C.x.c.1.<.1.^ g g j j j k ~ j f f ] eXr.%.) s.d.d.d.d.d.d.d.a.a.a.c c ",
"c c a.d.s.) s.d.s.a.) ( x M :.:XzXbXcXkX0X>X].].kXgXtXtX2X'.).`.C j d j j f a a g k g j j ^ ^ } / k g a g g j j g f f f h h j ] ] ` d.d.d.d.d.d.d.s.a.a.a.a.c x ",
"c c s.d.s.c a.s.d.a.) D ( z { J.`.^.<XH.0X4X2XP.y.~.u.y.y.=XtXiXC f f h j f g f g g g j g f f j h g a a g j h g f f f f j l x S a.s.d.d.d.s.a.s.d.s.a.s.s.a.c x ",
"c a.d.d.d.a.c s.d.) S S D c l f f g j j h a a g h g j j j f f g h h j j j h j j g g j j h f f f h f a a a a a a f g j l x Z c s.d.a.d.d.d.) D s.s.s.d.d.d.s.a.c ",
"c D d.s.a.D s.a.a.a.D c s.s.D z j j f f g g g g g a h j h g g g h h h f f g j j h h h j h f f f h f f a g h f g l x c c s._ a.s.a.) s.d.d.a.) s.d.d.s.D a.s.s.a.",
"c D a.a.a.s.d.s.F s.s.D s.d.d.a.F D z j j l j g a a h j j h g h j g g a a j j j f f f f f h j j h l l h c c D a.a.s.a.c ) d.d.a.c ) a.d.d.s.a.d.d.s.s.c c d.a.c ",
"c D D D s.d.d.d.d.d.d.d.a.c d.s.s.d.d.a.s._ ) x x x z x c x x x c z z z x c x x z x z x c D a.s.d.d.d.d.a.D d.s.a.d.d.a.s._ ) S c s.a.s.d.d.s.d.s.a.a.a.s.d.c x ",
"c c D c D s.s.d.d.d.d.s.c a.d.d.d.d.s.s.s.s.) S a.s.D D a.D a.d.d.s.a.s.s.d.c c a.) D c D d.s.s.d.d.d.s.c D d.d.d.d.d.s.s.s.) D a.s.) ( ) ) a.d.d.s.a.a.d.d.D l ",
"c c c c D a.a.a.d.d.s.c a.s.d.s.s.s.a.a.d.d.s.) s.s.a.D D D D d.d.d.s.s.d.d.a.( s.) c c ( a.) s.d.d.s.D D s.d.d.s.s.) s.d.d.a.) a.d.a.) ( ) ) s.d.d.s.d.d.d.c x ",
"D c c c c c D s.s.s.s.s.a.a.s.a.Z ) D D d.d.s.s.s.d.d.d.a.d.d.D c D d.d.d.s.s.d.d.D c c ( Z F a.s.s.s.a.F a.s.a.D D ) ) d.d.s.s.a.d.d.d.a.s.d.) c D d.d.d.a.a.c ",
"c c c c c c D D c c c D c D D D ( S ( ( ( ) ) ) ) ) a.a.D a.a.D x x a.D c c D a.a.D c c ( S S D D c D D c a.c D c D D D ( ) ) a.) ) a.) ) ) ) ) c x F c c c c x ",
"l z c c D D c c c x c c c c c c ( S ) D x x S ) S c c c c c c D x x c x l z c c c c c c ( S c c x x x x c c c c D S D S x x S ( D c c c ( x ( ( x z c x l x l l "
};
