/* XPM */
static char *land_1_26_resized[] = {
/* columns rows colors chars-per-pixel */
"80 80 211 2 ",
"   c #2F5216",
".  c #335C18",
"X  c #36621A",
"o  c #36631A",
"O  c #37631A",
"+  c #36631B",
"@  c #37631B",
"#  c #37641C",
"$  c #38631B",
"%  c #38651B",
"&  c #39661B",
"*  c #39671C",
"=  c #39681C",
"-  c #3A681C",
";  c #3A6A1C",
":  c #3B6A1C",
">  c #3B6B1C",
",  c #3B6A1D",
"<  c #3B6B1D",
"1  c #3B6A1E",
"2  c #3C6B1D",
"3  c #3B6C1C",
"4  c #3B6C1D",
"5  c #3C6C1C",
"6  c #3D6C1C",
"7  c #3C6D1C",
"8  c #3D6D1C",
"9  c #3C6C1D",
"0  c #3C6D1D",
"q  c #3D6D1D",
"w  c #3C6E1D",
"e  c #3D6E1D",
"r  c #3D6F1D",
"t  c #3E6E1C",
"y  c #3E6F1D",
"u  c #3C6C1E",
"i  c #3C6D1E",
"p  c #3D6D1E",
"a  c #3D6E1E",
"s  c #3D6F1E",
"d  c #3C6F1F",
"f  c #3D6F1F",
"g  c #3E6F1E",
"h  c #3E701D",
"j  c #3F701D",
"k  c #3E711D",
"l  c #3F711D",
"z  c #3D701E",
"x  c #3D701F",
"c  c #3E701E",
"v  c #3F701E",
"b  c #3E711E",
"n  c #3F711E",
"m  c #3E701F",
"M  c #3F701F",
"N  c #3E711F",
"B  c #3F711F",
"V  c #3E721E",
"C  c #3F721E",
"Z  c #3F731E",
"A  c #3E721F",
"S  c #3F721F",
"D  c #3F731F",
"F  c #3F7220",
"G  c #3F7320",
"H  c #40721E",
"J  c #40731E",
"K  c #40721F",
"L  c #40731F",
"P  c #41731F",
"I  c #40741E",
"U  c #41741E",
"Y  c #40751E",
"T  c #41751E",
"R  c #40741F",
"E  c #41741F",
"W  c #40751F",
"Q  c #41751F",
"!  c #42751F",
"~  c #41761F",
"^  c #41771F",
"/  c #42761F",
"(  c #42771F",
")  c #43771F",
"_  c #42781F",
"`  c #43781F",
"'  c #42791F",
"]  c #43791F",
"[  c #437A1F",
"{  c #407320",
"}  c #407420",
"|  c #417420",
" . c #407520",
".. c #417520",
"X. c #417620",
"o. c #417720",
"O. c #427620",
"+. c #427720",
"@. c #437720",
"#. c #427721",
"$. c #427820",
"%. c #437820",
"&. c #427920",
"*. c #437920",
"=. c #427821",
"-. c #437821",
";. c #437921",
":. c #437A20",
">. c #437A21",
",. c #447920",
"<. c #447921",
"1. c #447A20",
"2. c #447B20",
"3. c #457B20",
"4. c #447A21",
"5. c #447B21",
"6. c #457B21",
"7. c #457B22",
"8. c #447C20",
"9. c #457C20",
"0. c #457D20",
"q. c #447C21",
"w. c #457C21",
"e. c #457D21",
"r. c #467C20",
"t. c #467C21",
"y. c #467D21",
"u. c #457E21",
"i. c #457F21",
"p. c #467E21",
"a. c #477E21",
"s. c #467F21",
"d. c #477F21",
"f. c #447C22",
"g. c #457C22",
"h. c #447D22",
"j. c #457D22",
"k. c #467D22",
"l. c #457E22",
"z. c #467E22",
"x. c #477E22",
"c. c #467F22",
"v. c #477F22",
"b. c #468021",
"n. c #478021",
"m. c #468022",
"M. c #478022",
"N. c #478122",
"B. c #478123",
"V. c #478222",
"C. c #488022",
"Z. c #488122",
"A. c #498122",
"S. c #488023",
"D. c #488123",
"F. c #488222",
"G. c #498222",
"H. c #488322",
"J. c #498322",
"K. c #488223",
"L. c #498223",
"P. c #488323",
"I. c #498323",
"U. c #498422",
"Y. c #498522",
"T. c #498423",
"R. c #498523",
"E. c #4A8422",
"W. c #4A8522",
"Q. c #4A8423",
"!. c #4A8523",
"~. c #4B8523",
"^. c #4A8622",
"/. c #4A8623",
"(. c #4B8623",
"). c #4A8723",
"_. c #4B8723",
"`. c #4C8723",
"'. c #498524",
"]. c #4A8524",
"[. c #4A8624",
"{. c #4B8624",
"}. c #4A8724",
"|. c #4B8724",
" X c #4C8724",
".X c #4B8823",
"XX c #4B8923",
"oX c #4C8823",
"OX c #4C8923",
"+X c #4B8824",
"@X c #4B8924",
"#X c #4C8824",
"$X c #4C8924",
"%X c #4D8924",
"&X c #4C8925",
"*X c #4C8A24",
"=X c #4D8A24",
"-X c #4C8B24",
";X c #4D8B24",
":X c #4C8A25",
">X c #4D8A25",
",X c #4C8B25",
"<X c #4D8B25",
"1X c #4E8B24",
"2X c #4E8B25",
"3X c #4D8C24",
"4X c #4D8C25",
"5X c #4E8C24",
"6X c #4E8C25",
"7X c #4E8D25",
"8X c #4F8E25",
/* pixels */
"  O I y g D C J I 7 7 ../ ^ ( Y Z W / U 0 0 J 2.*.U ` / c p p h V W +.n v 2.X.4 @ : I y g D C J I 7 7 ../ ^ ( Y Z W / U 0 0 J 2.*.U ` / c p p h V W +.n v 2.3 . ",
"& 5 H P X.o.V b J b J 1.-.+./ D S X.Q C r n Q +.W b B m m O.5.0.w.:.R g b 2.s.e.$.U J J X.o.V b J b J 1.-.+./ D S X.Q C r n Q +.W b B m m O.5.0.w.:.R g n 2.I > ",
"1.+.O.w.c.h.S z R ~ :.v.k.6.4.O...;.R s I *.w.+.{ A f x | B.@X*X.XN.E g S e.(.4X4XM.O.w.c.h.S z R ~ :.v.k.6.4.O...;.R s I *.w.+.{ A f x | B.@X*X.XN.E g S e.0.[ ",
"n <.Q.oX(.b.~ Q :.W / v.T.+X*X#X!.N.W f 5.T.+XT.N.b.H.T.I.D.K.!.~.Q.F.%.O.N.D.M.D.L.Q.`.(.b.~ Q :.W / v.T.+X*X#X!.N.W f 5.T.+XT.N.b.H.T.I.D.K.!.~.Q.F.%.O.N.*.j ",
"c $.C.Z.!..XH.N.Z.9.9.F.$X3X_.(.(./.N.c.[.,X4X-X@X_.;X=X/.x.g.x.6.k.(.F.y.c.D.P.M.M.C.Z.!..XH.N.Z.9.9.F.$X3X_.(.(./.N.c.[.,X4X-X@X_.;X=X/.x.g.x.6.k.(.F.y.c.%.H ",
"J I R | v.5X3X#X!.J.F.K.#X_.y.w.M.+X3X5X,X*X$X$X$X$X=X.XF.5.-.<.m S T.$X!.5.F.%XQ.6.R | v.5X3X#X!.J.F.K.#X_.y.w.M.+X3X5X,X*X$X$X$X$X=X.XF.5.-.<.m S T.$X!.5.+./ ",
"t h R 5.k.k.k.e.5.+.O.=.=.5.I./.(.'.z.*.;.g.v.J.(.#X%X#XY.:.X.-.g c v.%X+Xw.+.%.p.*.R 4.k.k.k.e.5.+.O.=.=.5.I./.(.'.z.*.;.g.v.J.(.#X%X#XY.:.X.-.g c v.%X#Xw.r & ",
"6 y Q s.w.L L } D N N D m G f.T.(.N.w.,.-.-.=.@.z.|.$X$XoXZ.v.S.*.%.I.>X|.X.B E q.%.Q s.w.L L } D N N D m G f.T.(.N.w.,.-.-.=.@.z.|.$X$XoXZ.v.S.*.%.I.>X|.X., $ ",
"q v ) s.2.n N N N S S S D N d >.F.s.!.;X(.z.X.z =.[.$X$X%X;X6X1X!.P.+X4XR.m ..z.e.*.) p.2.n N N N S S S D N d >.F.s.!.;X(.z.X.z =.[.$X$X%X;X6X1X!.P.+X4XR.m u p ",
"5 h / 3.2.+.D z g S S z ^ :.&.M./.H.).3X6XQ.l.I.|.@X*X#XQ.G.I.Q.5...-.K.).B.'.[.g.+./ 3.2.+.D z g S S z ^ :.&.M./.H.).3X6XQ.l.I.|.@X*X#XQ.G.I.Q.5...-.K.).B.1.T ",
"k C ~ d.J.M.~ L O.5.6.*.e.N.I.@X$XU._.-X|.Q.Q.%X;X=X3X!.9.p.G.I.} 1 a p.+XT.|.:XK.;.~ d.J.M.~ L O.5.6.*.e.N.I.@X$XU._.-X|.Q.Q.%X;X=X3X!.9.p.G.I.} 1 a p.@XT.e.' ",
"_ Y X.|.8X*Xw.<.S._.=X=XI.L.$X4X$XV..X-Xh.M.}.x.D.=X6XF.U Z.1X:X#.u B J.#XO.w.|.>Xz.X.|.8X*Xw.<.S._.=X=XI.L.$X4X$XV..X-Xh.M.}.x.D.=X6XF.U Z.1X:X#.u B J.#XO.P ~ ",
"g n X.v.|.;X$Xc.P ,.T.7XZ.a.$XF.e./.+X).!.+X#XL.!.3X1X_.H.(.;X1XL.v.Q.*X+X6.y.K.M.>.o.c.|.;X$Xc.P ,.T.7XZ.a.$XF.e./.+X).!.+X#XL.!.3X1X_.H.(.;X1XL.v.Q.*X+X6.E n ",
"2 S >.l.T.=X4XH.E K g.*Xb.w.(.s.9..XF.e.|.6X=XG.G.|.+X:X3X>X$X_./.|.<X#XQ.D.P.K.w.;.>.u.T.=X4XH.E K g.*Xb.w.(.s.9..XF.e.|.6X=XG.G.|.+X:X3X>X$X_./.|.<X#XQ.D.%.n ",
"D *.A._.=X:XJ.R.$Xz.y./.F.c.K.|.#XF.Q g 6.+X,X*.Q q.I.[./.>X#XM.e.e.d.d.n.I.+X:X!.A.A._.=X:XJ.R.$Xz.y./.F.c.K.|.#XF.Q g 6.+X,X*.Q q.I.[./.>X#XM.e.e.d.d.M.P.u.$.",
"b t.#XF.!.4XR.!.<X$X!.F.H.T.].<X$X1.S m | 4.h.L L *.j.g.>.c.I.!.H.N.P.!.|.+X>X:XG.Q.#XF.!.4XR.!.<X$X!.F.H.T.].<X$X1.S m | 4.h.L L *.j.g.>.c.I.!.H.N.P.!.|.+Xb.' ",
"l 9.!.%.e.@XR.T.{.+XP.5.y.G.|.<X+X4.O.X. .O.%.#.>.j.j.5.*.w.H.-X$X+X$X+X|.%X<X$XF.T.!.%.e.@XR.T.{.+XP.5.y.G.|.<X+X4.O.X. .O.%.#.>.j.j.5.*.w.H.-X$X+X$X+X|.$Xn._ ",
"+.%.%.M Q p.e.M.I.$.N S B O.I.#X$X(.Z.u.i.P. X|.}.{.!._.-X*X$X*X%X>X*Xw.+.T.$X=X#XZ.%.M Q p.e.M.I.$.N S B O.I.#X$X(.Z.u.i.P. X|.}.{.!._.-X*X$X*X%X>X*Xw.+.T.s._ ",
"H 1.v.+...%.*.4.4...O.g.S S M.#X=XoX^.F.9.a.!.>X<X%X1X_.d.F.^.(.p.6.N.1.R #.K.$XQ.K.v.O...%.*.4.4...O.g.S S M.#X=XoX^.F.9.a.!.>X<X%X1X_.d.F.^.(.p.6.N.1.E #.$.( ",
"c w.+XB.g.4.6.1.#.=.e.D...S M.|.#XW._.~.t.t.Z.}.#X#X2XE.%.0.J.~.,.U u.v.5.S u..XF.Q.+XN.g.4.6.1.#.=.e.D...S M.|.#XW._.~.t.t.Z.}.#X#X2XE.%.0.J.~.,.U u.v.5.S L ( ",
"&.q.F.|.%X#XT.K.M.&.D N s O.+X{.Z.C.!.*X*X-X$XZ.Z.!.!.#X5X;X=X>X%X%X=X>X{.z.H.OX%X!.F.|.%X#XT.K.M.&.D N s O.+X{.Z.C.!.*X*X-X$XZ.Z.!.!.#X5X;X=X>X%X%X=X>X{.z.*.( ",
"~ 0.W..X+X{./.|.#XK.u.5.q.Z.:X$XI.1.v.}.!.D.v.J.T.L.N.N.H.I.Q.].(.W.G.%X2XG./.=X|.Q.W._.+X{./.|.#XK.u.5.q.Z.:X$XI.1.v.}.!.D.v.J.T.L.N.N.H.I.Q.].(.W.G.%X2XF.9.] ",
"l r.oXY.F.K.T.).%X<X3X;X5X;X#X=XR.~ *.c.<.E O.$X$Xz.e.%.{ O.<.7.;.+.+.I.:XZ./.$XK.T.oXY.F.K.T.).%X<X3X;X5X;X#X=XR.~ *.c.<.E O.$X$Xz.e.%.{ O.<.7.;.+.+.I.:XZ.3.] ",
"T *.a.F.|.=XK.z.v.Q.+X.X=X;X_.M.5.1.+...Q 1.F.6XI.} O.4.6.-.+.X.F } e.M.F.G.F.P.).J.a.Z.|.=XK.z.v.Q.+X.X=X;X_.M.5.1.+...Q 1.F.6XI.} O.4.6.-.+.X.F } e.M.F.F.*.b ",
"I *.C.!.!.D.l.g.j.v.k.4.T.$X!.x.w.F.e.%.e.K.|.6XD.A K +.;.X.R S f } D.Z.s.n.N.K.R.H.C.Q.!.D.l.g.j.v.k.4.T.$X!.x.w.F.e.%.e.K.|.6XD.A K +.;.X.R S f } D.Z.s.n.$.c ",
"z 5.|.#Xk.S o.l.D.x.=.S v.|.I.P.!.$X!.I.#X#X|.=XI.=.L B N A S L m ..P.P.M.d.J.Q.M.I.|.#Xk.S o.l.D.x.=.S v.|.I.P.!.$X!.I.#X#X|.=XI.=.L B N A S L m ..P.P.M.d.*.I ",
"L q.Q.M.+.a i *.%X:X}.Q.|.!.c.T.:X=X*X$X;X#X~._.+XT.o.s s D $.2.5.q.z.Z.T._.#X+XR.Q.Q.n.+.a i *.%X:X}.Q.|.!.c.T.:X=X*X$X;X#X~._.+XT.o.s s D $.2.5.q.z.Z.Q.(.s.^ ",
"U e.R.F.y.;.Q u.2X>X|.~._.!.B.|.<X#X$X$X_.N.u.U.*X*Xc.*.*.e.N.U.!.Q.H.N.D.(.#X+X/./.R.F.y.;.Q u.2X>X|.~._.!.B.|.<X#X$X$X_.N.u.U.*X*Xc.*.*.e.N.U.!.Q.H.N.K.(.s.( ",
"H 9.|.:X:X$X).).+XL.w.%.M.|.&X=X#XT.I.T.V.>.X.N._.$X#X+X@X$X*X=X>X;X=XF.g.v.G.T.I.R.|.:X:X$X).).+XL.w.%.M.|.&X=X#XT.I.T.V.>.X.N._.$X#X+X@X$X*X=X>X;X=XF.g.v.*.J ",
"e ~ Z.*XT.9./.+XP.K.e.! Z.4X7X_.Z.c.>.2./.@XT.>.z.>X:X%X*X|.+X-X$XQ.y.N.D.>.%.1.z.v.F.$XT.9./.+XP.K.e.! Z.4X7X_.Z.c.>.2./.@XT.>.z.>X:X%X*X|.+X-X$XQ.y.N.K.>.c : ",
"g +.H.$XZ.( s.!.!.N.4.~ p.!.R.v.w.s.e.l.)._.F.q.v.|.*X=X$XZ.Z._._.G.y./.+Xh.1.t.M.B.H.$XZ.( s.!.!.N.4.~ p.!.R.v.w.s.e.l.)._.F.q.v.|.*X=X$XZ.Z._._.G.y./.+Xw.C 5 ",
"~ s.*X*XR.u.*.Z.4Xu.W / ` %.O.$.e.I.@X$XJ./ H ~..XN.+X4X$X9.1.Q./._.=X2X$XR.|.:X|.+X*X*XR.u.*.Z.4Xu.W / ` %.O.$.e.I.@X$XJ./ H ~..XN.+X4X$X9.1.Q./._.=X2X*XT.y.%.",
"H 2.Y.R.N.e.d.C.Z.N.2.L d.W.a.p.Z.Q.M.w.d.Z.H.W.d.1.Q.,X$Xs.e.R.$XOX^.q.4.|.7X2XI.L.R.R.N.e.d.C.Z.N.2.L d.W.a.p.Z.Q.M.w.d.Z.H.W.d.1.Q.,X$Xs.e.R.$XOX^.q.4.|.F.1.",
"y / s.b.b.Z.(.E.p.^.U.;.Z.oX|.E.J.[.k.+.d._.*Xp.%.>.Z.+X-XJ.F.}.#X^.s.Q O.#X<X{.M.z.s.v.b.Z.(.E.p.^.U.;.Z.oX|.E.J.[.k.+.d._.*Xp.%.>.Z.+X-XJ.F.}.#X^.s.Q O.+XN.T ",
"c Q 3.w.G.,X<X-X$X*X-XOX:.*.*X/.G.*X[.D.L.S.w.| &.N.d.U.3X/.T.$XE.d.u.M.Q.#XK.e.M.d.3.9.G.,X<X-X$X*X-XOX:.*.*X/.G.*X[.D.L.S.w.| &.N.d.U.3X/.T.$XE.d.u.M.Q.#X:.9 ",
"h H Q ..e.(.I./.;X;X).N.:.w.@X*X#X$X/.E.|.L.6.O.w.U.6.4.x.5.c.$X;X(.s.F._.$Xj...b.e.Q ..e.(.I./.;X;X).N.:.w.@X*X#X$X/.E.|.L.6.O.w.U.6.4.x.5.c.$X;X(.s.F._.$X~ # ",
"C n M A O.w.w.Z.$X*XI.>.q.D.}.+X}.H.n.Z.<X+Xn.9.C./.v.<.@.%.u.R.#X|.H.Y..X+Xl.=.F.9.B N O.w.w.Z.$X*XI.>.q.D.}.+X}.H.n.Z.<X+Xn.9.C./.v.<.@.%.u.R.#X|.H.Y..X+XX.* ",
"$.R n Q  . .9.F./.(.T.M.y.v.!.z.=.*.@.w.<X4X/.Z.L.|.2X|.M./.(.p./ *.|.;XXXH.!.$X%Xy.n W  . .9.F./.(.T.M.y.v.!.z.=.*.@.w.<X4X/.Z.L.|.2X|.M./.(.p./ *.|.;X$XH.2.~ ",
"+.+.%.e.c.i.z.s.s.c.M.Z.Z.M.d.c.c.z.v.D.K.T.!.{./.R.+X/.F.(.#XI.U U /.H.8.*.H.-X+Xv.%.e.c.i.z.s.s.c.M.Z.Z.M.d.c.c.z.v.D.K.T.!.{./.R.+X/.F.(.#XI.U U /.H.8.*.$.$.",
"g +.M.H.).+XB.l.e.>.w.H.!.L.u.U.@X(.$X|.5.6.I.<X$XH.H.H.F.Z.Q.+X2.` U.5.L %.b.U.M.c.M.H.).+XB.l.e.>.w.H.!.L.u.U.@X(.$X|.5.6.I.<X$XH.H.H.F.Z.Q.+X2.` U.5.R $.~ Z ",
"O J Q.Z.N.U.T.Q.T.w.w./.|.|.|.].Q.(.#X}.y.z.Q.6X;X!.$X+XV.a.x.V.P.!.|.M.v.=X_.0.J 1.Q.N.N.U.T.Q.T.w.w./.|.|.|.].Q.(.#X}.y.z.Q.6X;X!.$X+XV.a.x.V.P.!.|.M.v.=Xw.0 ",
"8 E g.w.p.m.5.5.j.:.w.I.K.S.S.g.4.v.z.5.%.2.v.N.k.<.5.>.;.c.I.R.|.R.e.=.5._.$XY.p.w.g.w.p.m.5.5.j.:.w.I.K.S.S.g.4.v.z.5.%.2.v.N.k.<.5.>.;.c.I.R.|.R.e.=.5._.p.I ",
"1.+.O.w.c.h.S z R X.:.v.k.6.4.O...;.} s I *.w.+.} A f x | B.@X*X.XN.E g S e.(.4X4XM.O.w.c.h.S z R X.:.v.k.6.4.O...;.} s I *.w.+.} A f x | B.@X*X.XN.E g S e.0.[ ",
"n <.Q.`.~.b.~ Q *.W / v.T.|.$X+X!.M.W s 5.T.|.T.N.b.F.I.L.S.D.!.!.Q.Z.%.! M.B.b.D.L.Q.`.~.b.~ Q *.W / v.T.|.$X+X!.M.W s 5.T.|.T.N.b.F.I.L.S.D.!.!.Q.Z.%.O.M.*.j ",
"c $.C.Z.!..XH.N.Z.9.9.F.$X3X_.(.(./.N.c.[.,X4X-X@X_.;X=X/.x.g.x.6.k.(.F.y.c.D.P.M.M.C.Z.!..XH.N.Z.9.9.F.$X3X_.(.(./.N.c.[.,X4X-X@X_.;X=X/.x.g.x.6.k.(.F.y.c.%.H ",
"J I R | v.5X3X#X!.J.F.K.#X_.y.w.M.+X3X5X,X*X$X$X$X$X=X.XF.5.-.<.m S T.$X!.5.F.%XQ.6.R | v.5X3X#X!.J.F.K.#X_.y.w.M.+X3X5X,X*X$X$X$X$X=X.XF.5.-.<.m S T.$X!.5.+./ ",
"t h R 5.k.k.k.e.5.+.O.=.=.5.I./.(.'.z.*.;.g.v.J.(.#X%X#XY.:.X.-.g c v.%X+Xw.+.%.p.*.R 4.k.k.k.e.5.+.O.=.=.5.I./.(.'.z.*.;.g.v.J.(.#X%X#XY.:.X.-.g c v.%X#Xw.r & ",
"6 y Q s.w.L L } D N N D m G f.T.(.N.w.,.-.-.=.@.z.|.$X$XoXZ.v.S.*.%.I.>X|.X.B E q.%.Q s.w.L L } D N N D m G f.T.(.N.w.,.-.-.=.@.z.|.$X$XoXZ.v.S.*.%.I.>X|.X., $ ",
"q v ) s.2.n N N N S S S D N d >.F.s.!.;X(.z.X.z =.[.$X$X%X;X6X1X!.P.+X4XR.m ..z.e.*.) p.2.n N N N S S S D N d >.F.s.!.;X(.z.X.z =.[.$X$X%X;X6X1X!.P.+X4XR.m u p ",
"5 h / 3.2.+.D z g S S z ^ :.&.M./.H.).3X6XQ.l.I.|.@X*X#XQ.G.I.Q.5...-.K.).B.'.[.g.+./ 3.2.+.D z g S S z ^ :.&.M./.H.).3X6XQ.l.I.|.@X*X#XQ.G.I.Q.5...-.K.).B.1.T ",
"k C ~ d.J.M.~ L O.5.6.*.e.N.I.@X$XU._.-X|.Q.Q.%X;X=X3X!.9.p.G.I.} 1 a p.+XT.|.:XK.;.~ d.J.M.~ L O.5.6.*.e.N.I.@X$XU._.-X|.Q.Q.%X;X=X3X!.9.p.G.I.} 1 a p.@XT.e.' ",
"_ Y X.|.8X*Xw.<.S._.=X=XI.L.$X4X$XV..X-Xh.M.}.x.D.=X6XF.U Z.1X:X#.u B J.#XO.w.|.>Xz.X.|.8X*Xw.<.S._.=X=XI.L.$X4X$XV..X-Xh.M.}.x.D.=X6XF.U Z.1X:X#.u B J.#XO.P ~ ",
"g n X.v.|.;X$Xc.P ,.T.7XZ.a.$XF.e./.+X).!.+X#XL.!.3X1X_.H.(.;X1XL.v.Q.*X+X6.y.K.M.>.o.c.|.;X$Xc.P ,.T.7XZ.a.$XF.e./.+X).!.+X#XL.!.3X1X_.H.(.;X1XL.v.Q.*X+X6.E n ",
"2 S >.l.T.=X4XH.E K g.*Xb.w.(.s.9..XF.e.|.6X=XG.G.|.+X:X3X>X$X_./.|.<X#XQ.D.P.K.w.;.>.u.T.=X4XH.E K g.*Xb.w.(.s.9..XF.e.|.6X=XG.G.|.+X:X3X>X$X_./.|.<X#XQ.D.%.n ",
"D *.A._.=X:XJ.R.$Xz.y./.F.c.K.|.#XF.Q g 6.+X,X*.Q q.I.[./.>X#XM.e.e.d.d.n.I.+X:X!.A.A._.=X:XJ.R.$Xz.y./.F.c.K.|.#XF.Q g 6.+X,X*.Q q.I.[./.>X#XM.e.e.d.d.M.P.u.$.",
"b t.#XF.!.4XR.!.<X$X!.F.H.T.].<X$X1.S m | 4.h.L L *.j.g.>.c.I.!.H.N.P.!.|.+X>X:XG.Q.#XF.!.4XR.!.<X$X!.F.H.T.].<X$X1.S m | 4.h.L L *.j.g.>.c.I.!.H.N.P.!.|.+Xb.' ",
"l 9.!.%.e.@XR.T.{.+XP.5.y.G.|.<X+X4.O.X. .O.%.#.>.j.j.5.*.w.H.-X$X+X$X+X|.%X<X$XF.T.!.%.e.@XR.T.{.+XP.5.y.G.|.<X+X4.O.X. .O.%.#.>.j.j.5.*.w.H.-X$X+X$X+X|.$Xn._ ",
"+.%.%.M Q p.e.M.I.$.N S B O.I.#X$X(.Z.u.i.P. X|.}.{.!._.-X*X$X*X%X>X*Xw.+.T.$X=X#XZ.%.M Q p.e.M.I.$.N S B O.I.#X$X(.Z.u.i.P. X|.}.{.!._.-X*X$X*X%X>X*Xw.+.T.s._ ",
"H 1.v.+...%.*.4.4...O.g.S S M.#X=XoX^.F.9.a.!.>X<X%X1X_.d.F.^.(.p.6.N.1.R #.K.$XQ.K.v.O...%.*.4.4...O.g.S S M.#X=XoX^.F.9.a.!.>X<X%X1X_.d.F.^.(.p.6.N.1.E #.$.( ",
"c w.+XB.g.4.6.1.#.=.e.D...S M.|.#XW._.~.t.t.Z.}.#X#X2XE.%.0.J.~.,.U u.v.5.S u..XF.Q.+XN.g.4.6.1.#.=.e.D...S M.|.#XW._.~.t.t.Z.}.#X#X2XE.%.0.J.~.,.U u.v.5.S L ( ",
"&.q.F.|.%X#XT.K.M.&.D N s O.+X{.Z.C.!.*X*X-X$XZ.Z.!.!.#X5X;X=X>X%X%X=X>X{.z.H.OX%X!.F.|.%X#XT.K.M.&.D N s O.+X{.Z.C.!.*X*X-X$XZ.Z.!.!.#X5X;X=X>X%X%X=X>X{.z.*.( ",
"~ 0.W..X+X{./.|.#XK.u.5.q.Z.:X$XI.1.v.}.!.D.v.J.T.L.N.N.H.I.Q.].(.W.G.%X2XG./.=X|.Q.W._.+X{./.|.#XK.u.5.q.Z.:X$XI.1.v.}.!.D.v.J.T.L.N.N.H.I.Q.].(.W.G.%X2XF.9.] ",
"l r.oXY.F.K.T.).%X<X3X;X5X;X#X=XR.~ *.c.<.E O.$X$Xz.e.%.{ O.<.7.;.+.+.I.:XZ./.$XK.T.oXY.F.K.T.).%X<X3X;X5X;X#X=XR.~ *.c.<.E O.$X$Xz.e.%.{ O.<.7.;.+.+.I.:XZ.3.] ",
"T *.a.F.|.=XK.z.v.Q.+X.X=X;X_.M.5.1.+...Q 1.F.6XI.} O.4.6.-.+.X.F } e.M.F.G.F.P.).J.a.Z.|.=XK.z.v.Q.+X.X=X;X_.M.5.1.+...Q 1.F.6XI.} O.4.6.-.+.X.F } e.M.F.F.*.b ",
"I *.C.!.!.D.l.g.j.v.k.4.T.$X!.x.w.F.e.%.e.K.|.6XD.A K +.;.X.R S f } D.Z.s.n.N.K.R.H.C.Q.!.D.l.g.j.v.k.4.T.$X!.x.w.F.e.%.e.K.|.6XD.A K +.;.X.R S f } D.Z.s.n.$.c ",
"z 5.|.#Xk.S o.l.D.x.=.S v.|.I.P.!.$X!.I.#X#X|.=XI.=.L B N A S L m ..P.P.M.d.J.Q.M.I.|.#Xk.S o.l.D.x.=.S v.|.I.P.!.$X!.I.#X#X|.=XI.=.L B N A S L m ..P.P.M.d.*.I ",
"L q.Q.M.+.a i *.%X:X}.Q.|.!.c.T.:X=X*X$X;X#X~._.+XT.o.s s D $.2.5.q.z.Z.T._.#X+XR.Q.Q.n.+.a i *.%X:X}.Q.|.!.c.T.:X=X*X$X;X#X~._.+XT.o.s s D $.2.5.q.z.Z.Q.(.s.^ ",
"U e.R.F.y.;.Q u.2X>X|.~._.!.B.|.<X#X$X$X_.N.u.U.*X*Xc.*.*.e.N.U.!.Q.H.N.D.(.#X+X/./.R.F.y.;.Q u.2X>X|.~._.!.B.|.<X#X$X$X_.N.u.U.*X*Xc.*.*.e.N.U.!.Q.H.N.K.(.s.( ",
"H 9.|.:X:X$X).).+XL.w.%.M.|.&X=X#XT.I.T.V.>.X.N._.$X#X+X@X$X*X=X>X;X=XF.g.v.G.T.I.R.|.:X:X$X).).+XL.w.%.M.|.&X=X#XT.I.T.V.>.X.N._.$X#X+X@X$X*X=X>X;X=XF.g.v.*.J ",
"e ~ Z.*XT.9./.+XP.K.e.! Z.4X7X_.Z.c.>.2./.@XT.>.z.>X:X%X*X|.+X-X$XQ.y.N.D.>.%.1.z.v.F.$XT.9./.+XP.K.e.! Z.4X7X_.Z.c.>.2./.@XT.>.z.>X:X%X*X|.+X-X$XQ.y.N.K.>.c : ",
"g +.H.$XZ.( s.!.!.N.4.~ p.!.R.v.w.s.e.l.)._.F.q.v.|.*X=X$XZ.Z._._.G.y./.+Xh.1.t.M.B.H.$XZ.( s.!.!.N.4.~ p.!.R.v.w.s.e.l.)._.F.q.v.|.*X=X$XZ.Z._._.G.y./.+Xw.C 5 ",
"~ s.*X*XR.u.*.Z.4Xu.W / ` %.O.$.e.I.@X$XJ./ H ~..XN.+X4X$X9.1.Q./._.=X2X$XR.|.:X|.+X*X*XR.u.*.Z.4Xu.W / ` %.O.$.e.I.@X$XJ./ H ~..XN.+X4X$X9.1.Q./._.=X2X*XT.y.%.",
"H 2.Y.R.N.e.d.C.Z.N.2.L d.W.a.p.Z.Q.M.w.d.Z.H.W.d.1.Q.,X$Xs.e.R.$XOX^.q.4.|.7X2XI.L.R.R.N.e.d.C.Z.N.2.L d.W.a.p.Z.Q.M.w.d.Z.H.W.d.1.Q.,X$Xs.e.R.$XOX^.q.4.|.F.1.",
"y / s.b.b.Z.(.E.p.^.U.;.Z.oX|.E.J.[.k.+.d._.*Xp.%.>.Z.+X-XJ.F.}.#X^.s.Q O.#X<X{.M.z.s.v.b.Z.(.E.p.^.U.;.Z.oX|.E.J.[.k.+.d._.*Xp.%.>.Z.+X-XJ.F.}.#X^.s.Q O.+XN.T ",
"c Q 3.w.G.,X<X-X$X*X-XOX:.*.*X/.G.*X[.D.L.S.w.| &.N.d.U.3X/.T.$XE.d.u.M.Q.#XK.e.M.d.3.9.G.,X<X-X$X*X-XOX:.*.*X/.G.*X[.D.L.S.w.| &.N.d.U.3X/.T.$XE.d.u.M.Q.#X:.9 ",
"h H Q ..e.(.I./.;X;X).N.:.w.@X*X#X$X/.E.|.L.6.O.w.U.6.4.x.5.c.$X;X(.s.F._.$Xj...b.e.Q ..e.(.I./.;X;X).N.:.w.@X*X#X$X/.E.|.L.6.O.w.U.6.4.x.5.c.$X;X(.s.F._.$X~ # ",
"C n B A o.e.t.Z.$X*XI.>.w.D.|.+X}.J.n.Z.<X+Xn.t.C.(.v.4.@.*.u.R.$X|.H.Y..X+Xl.=.G.w.B A o.e.t.Z.$X*XI.>.w.D.|.+X}.J.n.Z.<X+Xn.t.C.(.v.4.@.*.u.R.$X|.H.Y.+X+XX.* ",
"$.R n Q  . .9.F.!./.T.M.y.v.!.z.=.*.@.w.,X4X/.Z.L.|.2X|.M././.p./ *.|.;XXXH.!.$X%Xy.n W  . .9.F.!./.T.M.y.v.!.z.=.*.@.w.,X4X/.Z.L.|.2X|.M././.p./ *.|.;XOXH.2.~ ",
"0 e c R  .W / ( _ / / %.%.$.%.O...! +.%.>.q.e.p.e.w.v.z.4.j.z.:.e e e.2.W R 1.M.y./ c R  .W / ( _ / / %.%.$.%.O...! +.%.>.q.e.p.e.w.v.z.4.j.z.:.e e e.2.W L c w ",
"X = z D X.O.B e 7 ; < v L V 0 L %.! %.( 9 9 J *.+.C B S L S W $.2 - J < + * r L n c z D X.O.B e 7 ; < v L V 0 L %.! %.( 9 9 J *.+.C B S L S W $.2 - J < + * % o "
};
