/* XPM */
static char *result[] = {
/* columns rows colors chars-per-pixel */
"80 80 256 2 ",
"   c #1C1709",
".  c #1D1C11",
"X  c #231C0C",
"o  c #251C0A",
"O  c #251D13",
"+  c #1A3710",
"@  c #2A240D",
"#  c #27270D",
"$  c #322A0E",
"%  c #28370D",
"&  c #242313",
"*  c #2B2413",
"=  c #242B14",
"-  c #2B2B14",
";  c #2B2C19",
":  c #332D14",
">  c #342917",
",  c #2C3C1A",
"<  c #293616",
"1  c #353313",
"2  c #3B3314",
"3  c #3B3B15",
"4  c #3C331A",
"5  c #3B3B1B",
"6  c #353917",
"7  c #34370E",
"8  c #3D3D23",
"9  c #423C19",
"0  c #1A4917",
"q  c #1C541B",
"w  c #1D5B1D",
"e  c #195618",
"r  c #1B490E",
"t  c #234414",
"y  c #2A4415",
"u  c #2B4C15",
"i  c #2C431A",
"p  c #244C1B",
"a  c #2C4C1A",
"s  c #234818",
"d  c #334C1B",
"f  c #3B4C1B",
"g  c #394519",
"h  c #2E5316",
"j  c #23531C",
"k  c #2D521C",
"l  c #245C1B",
"z  c #2C5C1C",
"x  c #245915",
"c  c #315517",
"v  c #325A16",
"b  c #32531A",
"n  c #335B18",
"m  c #3B571A",
"M  c #2B460E",
"N  c #1C621C",
"B  c #24631C",
"V  c #2B641D",
"C  c #256B1D",
"Z  c #2B6B1D",
"A  c #286414",
"S  c #35631B",
"D  c #39651C",
"F  c #3C6D1D",
"G  c #336A1B",
"H  c #2B751D",
"J  c #3F711E",
"K  c #337A1D",
"L  c #1D4D22",
"P  c #1C5822",
"I  c #384822",
"U  c #245B23",
"Y  c #2B5B23",
"T  c #275425",
"R  c #345423",
"E  c #3B5B23",
"W  c #385926",
"Q  c #2A4B23",
"!  c #1D6726",
"~  c #246422",
"^  c #2A6423",
"/  c #256B22",
"(  c #2B6B23",
")  c #28692A",
"_  c #336B24",
"`  c #336C2A",
"'  c #3A6825",
"]  c #2D7424",
"[  c #2D7A24",
"{  c #2E742A",
"}  c #2A7929",
"|  c #327425",
" . c #3D7323",
".. c #337B25",
"X. c #33742A",
"o. c #3B742C",
"O. c #347B2A",
"+. c #3A7C2C",
"@. c #397D26",
"#. c #2A7933",
"$. c #3B7C32",
"%. c #377632",
"&. c #386C34",
"*. c #434B1B",
"=. c #44481A",
"-. c #47571A",
";. c #525B1D",
":. c #46661B",
">. c #53631E",
",. c #41751F",
"<. c #42791F",
"1. c #4E721F",
"2. c #51781F",
"3. c #474B23",
"4. c #4C5B23",
"5. c #485624",
"6. c #525C25",
"7. c #4E5C30",
"8. c #466827",
"9. c #546323",
"0. c #556D23",
"q. c #586A29",
"w. c #427620",
"e. c #457C21",
"r. c #497D25",
"t. c #44752B",
"y. c #49792B",
"u. c #597426",
"i. c #566B34",
"p. c #467936",
"a. c #537A38",
"s. c #476834",
"d. c #647929",
"f. c #657736",
"g. c #616B25",
"h. c #616C1F",
"j. c #547943",
"k. c #667A46",
"l. c #2C832B",
"z. c #35822C",
"x. c #3B832D",
"c. c #3B8A2D",
"v. c #388327",
"b. c #3C8432",
"n. c #3D8B34",
"m. c #388535",
"M. c #3C9337",
"N. c #43851D",
"B. c #478122",
"V. c #498423",
"C. c #4C8A24",
"Z. c #428B2E",
"A. c #4E892A",
"S. c #47832A",
"D. c #578629",
"F. c #5A932A",
"G. c #428433",
"H. c #438C33",
"J. c #488839",
"K. c #5A8838",
"L. c #469234",
"P. c #4A9435",
"I. c #4B943B",
"U. c #48993A",
"Y. c #55973A",
"T. c #40932F",
"R. c #67882B",
"E. c #66962A",
"W. c #698934",
"Q. c #6C9632",
"!. c #789735",
"~. c #74912E",
"^. c #7CA639",
"/. c #72A02E",
"(. c #4EA03E",
"). c #498A42",
"_. c #588A45",
"`. c #4C9744",
"'. c #559B4A",
"]. c #579B46",
"[. c #599A54",
"{. c #569053",
"}. c #648A4A",
"|. c #679547",
" X c #789647",
".X c #678955",
"XX c #749759",
"oX c #6D934F",
"OX c #5CA44A",
"+X c #5AA746",
"@X c #5DA553",
"#X c #62AB4D",
"$X c #64AA56",
"%X c #68B259",
"&X c #75A355",
"*X c #5F9867",
"=X c #759868",
"-X c #76A865",
";X c #76BA69",
":X c #73AF68",
">X c #7BC079",
",X c #84A936",
"<X c #86953A",
"1X c #889847",
"2X c #8C9B4E",
"3X c #89A96C",
"4X c #91AF75",
"5X c #9AA65F",
"6X c #87C577",
"7X c #82C26E",
"8X c #ABC77C",
"9X c #D5CC70",
"0X c #E7D67A",
"qX c #E6D265",
"wX c #F0E175",
"eX c #97B885",
"rX c #93AF85",
"tX c #ABBA8B",
"yX c #A5BCA2",
"uX c #95CA87",
"iX c #B2C794",
"pX c #B7CAA7",
"aX c #BBD4A4",
"sX c #B7CBAF",
"dX c #D9D686",
"fX c #CDD392",
"gX c #E5DA91",
"hX c #EAE39A",
"jX c #F4EB98",
"kX c #F2E789",
"lX c #C6D7AA",
"zX c #D2D9AB",
"xX c #CAD7B8",
"cX c #E4DDAF",
"vX c #DAE4BB",
"bX c #D5E3A7",
"nX c #EAE5A6",
"mX c #F4EBA6",
"MX c #E9E7B8",
"NX c #F4EBB7",
"BX c #F8F3BA",
"VX c #F6F1AD",
"CX c #C9E091",
"ZX c #CDD8C2",
"AX c #D8E3C7",
"SX c #DEEFD7",
"DX c #E9EAC7",
"FX c #F4ECC9",
"GX c #EEF5C8",
"HX c #FBF5C9",
"JX c #EBEBD6",
"KX c #F1ECD6",
"LX c #ECF2D7",
"PX c #F8F6D7",
"IX c #F5F7E7",
"UX c #EFF2E6",
/* pixels */
"h S ,.F J J J J J J J J <.,.<.J J J <.<.F F ,.e.<.<.<.<.,.F F ,.F ,.,.,.F e.,.F D F ,.F F ,.J ,.J F F ,.<.<.,.,.J ,.<.J F F J <.w.<.<.,.,.F F ,.F ,.w.,.:.w.F n ",
"D F ,.,.w.w.J J J J J <.<.<.<.J J w.<.J J J J w.J J J J  .w.w.e.e.e.,.,.F e.e.e.w.,.,.,.w.,.J J ,.J ,.<.w.w.,.,.J w.<.J J J ,.<.,.F ,.F ,.w.e.e.e.e.,.F ,.e.J F ",
"<.<.,.<.B.e.J J J <.<.B.e.e.e.w.J e.J J J <.e.<. .J J F w.B.C.C.V.V.,.F J e.V.C.C.V.w.e.e.e.,.F ,.,.<.B.e.e.e.,.w.w.J J J <.e.w.w.,.F ,.w.e.C.C.V.e.,.F ,.e.<.,.",
",.e.V.C.V.B.,.,.<.<.<.B.V.C.C.C.V.V.J  .<.V.C.V.B.B.V.V.V.e.V.C.V.V.V.<.w.V.V.V.e.V.V.C.V.V.,.,.<.,.,.B.V.C.C.C.C.B.J J e.V.C.V.V.e.e.V.e.r.B.C.C.V.V.e.,.V.<.,.",
",.,.B.V.V.C.V.B.V.<.<.V.C.C.C.V.V.V.B.B.C.C.C.C.C.C.C.C.V.e.e.e.e.e.V.V.e.e.V.V.V.e.V.e.V.V.V.V.V.<.e.V.C.C.C.V.V.C.B.V.C.C.C.C.C.C.C.C.C.e.e.e.e.e.V.V.e.e.w.,.",
",.,.,.J B.C.C.C.V.V.V.V.C.V.e.e.B.C.C.C.C.C.C.C.C.C.C.C.V.e.w.e. .J V.C.V.e.V.C.V.e.,.,.V.C.C.C.V.V.V.V.C.C.e.e.B.C.C.C.C.C.C.C.C.C.C.C.e.e.e.e. .,.V.C.V.e.<.,.",
"F :.J e.e.e.e.e.e.<.,.w.w.e.V.V.C.V.V.e.w.e.e.V.V.V.C.C.V.<.,.,.,.F V.C.V.e.w.w.e.<.,.e.e.e.e.e.e.w.w.w.J <.V.C.C.V.B.w.e.e.V.V.V.C.C.C.C.w.w.e.F ,.e.C.C.e.,.D ",
"D ,.,.B.e.,.w.w.J J  .J J w.e.V.V.V.w.w.e.w.w.,.e.C.C.C.C.B.B.V.w.<.V.C.V.w.,.,.e.e.,.e.e.,.,. .,.J J J J  .e.V.V.B.e.<.w.e. .w.e.C.C.C.V.V.e.V.<.w.V.C.C.w.D D ",
"F ,.<.B.<.J J J J J  .,.J J J w.B.B.V.C.C.<.y.=XyXyXrXXXW.C.C.C.V.V.C.C.V.w.t.e.B.w.<.B.e.F ,.J J F ,.,. .J F e.V.B.V.C.C.B.,.J w.V.C.C.C.C.C.C.C.B.C.C.V.w.F F ",
"F J ,.<.e.<. .J J J J F ,.<.e.B.V.B.C.C.C.V.G.=XyXpXrXXXK.V.V.V.e.w.e.e.V.B.B.V.e.w.<.<.e.e.J J F ,. .F ,.e.w.V.V.B.C.C.C.V.e.V.C.C.C.C.V.V.V.V.e.w.e.B.V.e.e.,.",
"F ,.,.B.V.B.w.,.w.e.e.e.e.B.V.C.C.V.C.C.C.V.oXsXUXUXJXAXtX|.r.V.w.D F e.S.t.y.A.V.w.w.r.V.e.w.&. .w.e.<.e.V.V.C.C.N.V.C.C.V.V.C.C.C.C.V.e.<.V.V.w.D F e.C.V.e.,.",
",.,.<.C.C.C.e.w.V.V.C.C.V.B.C.C.C.B.C.C.B.B.oXZXUXUXLXJXvXiX&XA.w.F w.V.t.&.&.r.C.y.p.y.C.V.p.p.&.t.V.C.V.V.C.C.C.V.C.C.e.B.C.e.V.C.C.V.,.V.C.C.w. .F V.C.w.,.,.",
"F J ,.e.C.C.C.B.,.w.V.C.B.B.C.V.e.V.C.V.V.V..XxXSXUXKXDXbXCXuX&Xr.r.V.S.X.` &.o.e.t.s.p.V.S.p.$.' ' e.C.e.e.C.V.e.V.C.V.V.C.C.B.V.C.C.C.V.C.C.C.r.e.V.C.C.e.,.,.",
"F ,.e.e.V.C.C.V.,.w.e.C.B.e.C.e.e.C.V.e.C.A.}.lXSXJXFXcX9XfXbXaX3X_.x.j.%.{ ` &.' &.s.o.e.S.%.%.l R y.C.V.e.C.e.e.V.V.e.C.C.C.V.V.V.C.C.C.C.C.V.V.C.C.C.V.e.w.,.",
",.<.V.V.C.C.V.C.C.e.e.C.V.e.B.V.C.B.,.F e.A.K.tXMXNXhXdXdXgXMXAXlX4XJ.$.m.{ ^ ) ) %.&.` %.p.%.#.` R 8.B.B.B.B.C.C.V.,.F e.V.C.e.,.e.V.V.V.C.V.V.e.e.V.e.V.V.e.<.",
",.<.C.V.V.C.V.V.C.C.V.B.V.V.C.C.A.A.a.a.oXXX3X9XhXkX0XgXnXMXDXZXlX4X`.m.$.` ~ ~ ^ X.( U &.p.%.{ j..X.XXXK.S.C.C.A.e.,. .w.e.w.w.,.e.e.e.<.V.V.V.V.V.V.V.C.V.V.<.",
",.<.V.w.e.C.V.V.C.C.V.w.e.V.C.C.Y.3XeXeXiXlXfXgXqXqX0XcXNXFXKXcXaX4XJ.x.[ ( ~ / ) { #.#.%.b.z.%.[.iXsXpXrX}.F.&X3X=XoX}.e.w.w.w.e.e.e.e.e.e.V.C.C.V.C.C.C.C.e.<.",
",.<.w.,.<.e.e.V.V.w.J J ,.w.V.V.|.sXSXGXGXFXMXkXqXqXgXNXFXKXKXDXlX4XG.O.C ( / ( ^ %.).`.n.$.m.p.eXSXLXKXAX3X3XaXvXvXaX3XD.B.C.C.V.C.B.C.C.C.C.C.C.C.C.e.w.V.e.e.",
",.e.e.w.w.<.,.e.e.w.w.r.J ,.e.C.|.sXSXGXHXHXBXjX0X0XhXDXFXKXKXDXaX%X+.] C ] / { ( ).@X[.).m.m.{.yXJXKXKXDXfXzXGXPXGXbX3Xr.e.V.C.C.C.C.C.e.V.V.V.e.e.V.<.,.w.w.<.",
"F e.C.V.e.e.e.e.w.w.e.B.w. .V.V.].tXvXvXHXHXBXVXgXmXMXDXZXcXxXpXuX'.O.C C { { { ) `.@X).n.m.m.*XeXJXKXDXMXnXHXHXHXBXiXQ.r.e.V.V.C.C.C.V.e.e.V.V.<.<.e.e.w.,.,.<.",
"<.e.V.V.C.C.B.B.e.e.,.F ,.w.C.C.K.3XlXlXhXNXmXnXhXnXNXzXiX4X3X}.p.+.O.C X.$.m.} { `.`.n.m.).{.*XrXxXMXcXcXnXHXHXBXmX8XXX|.Y.V.e.B.V.C.C.C.C.C.C.C.C.C.C.C.e.<.<.",
"<.<.V.C.C.V.V.C.C.C.e.e.e.e.A.Y.-XuXlX9X9XgXhXnXnXnXcXzX4Xa._ | { | Z ( { $.).$.O.m.M.m.z.).*X*X=XtXfXhXnXnXVXmXjXmXnXAXxX3Xr.V.V.V.V.e.V.V.V.V.C.V.V.C.C.V.<.<.",
",.<.C.V.B.B.V.C.C.C.C.C.C.C._.eXAXUXGXhXgXNXFXPXGXPXLXDXiXoX_ C / Z ( Z ( ( $.x.[ z.z.z.O._.rXyXpXcXNXBXHXHXjXkXjXVXIXIXIXZXy.C.C.e.e.e.w.w.e.e.e.w.w.V.C.V.<.<.",
"<.<.r.B.C.C.B.e.e.V.C.C.C.C.=XsXUXUXKXBXVXHXPXUXKXLXKXKXpX.X_ B B ^ ~ ( C C / } } [ m.$.K.eXMXFXKXPXPXIXPXHXjXwXjXBXIXIXIXZXK.C.B.w.w.e.e.w.w.w.,.,.e.e.V.r.<.,.",
",.<.V.V.V.V.e.e.e.V.e.e.V.A.3XAXUXIXPXBXVXHXPXIXLXLXKXKXlX.Xn z z ^ Y ^ ( C C H ] O.O.&..XiXMXFXPXPXIXIXPXhX9XqXwXVXHXIXIXAX}.A.B.w.w.w.w.w.,.J F ,.V.B.<.V.,.J ",
"F e.C.V.e.J w.B.V.e.w. .e.D.4XAXUXLXGXVXkXVXPXKXPXKXLXKXlXXXS l z j l ^ Z Z ] ..O.O.%.o._.4XfXBXHXPXPXPXPXgXqXqXwXhXzXvXAXsXa.A.V.w. .,.J J J ,. .w.B.B.V.B.<.,.",
",.e.V.V.w.J F <.C.C.V.V.C.S.XXlXLXLXBXkXwXkXNXMXMXDXvXlX4X_.G V z q ^ G.Y.(.U.P.x._.-X.Xt._.4XbXGXHXPXPXMXcXnXmXgXiX5XXX=X.Xt.r.C.B.e.F F ,.w.<.e.e.e.V.V.V.V.,.",
",.e.V.V.B.w.,.e.C.C.C.V.C.r._.rXxXAXMXwXqXwXdX5X5X4X3XXXK. .A Z ^ l G.'.#X#X+XY.J.=XuX-Xj.p._.4XvXGXFXKXtXzXMXFXiX2X}.D.p.p.W ' C.C.e.w.w.e.V.V.V.V.V.V.V.V.e.,.",
",.<.V.C.C.C.V.C.C.B.e.e.B.V.S.j..X=X8X5X5X<X1X2Xk.i.y.p. .Z B ( ) n.;X6X%X#XOXI.J.:XuX;X{.m.p.a.4XlXvXtXk.rXxXtXXXi.y.y.y.' Q W r.C.C.C.C.C.C.C.C.C.C.V.e.e.e.,.",
"F ,.V.C.V.<.V.C.V.B.e.,.B.V.8.R W p.}.i.h.h.u.1XW.y.' _ ' Z C ) ` |.7XuX7X#XY.H.J.-XuX:X'.J.$.t.K.&X-Xj.W j.3Xk.8.^ m ' ' W R W E r.C.C.C.C.C.C.C.V.e.e.V.e.,.D ",
",.,.V.C.V.,.B.V.C.B.e.,.e.t.R R 8.t.^ b -.G t. X!.V.' G V G / ^ p.:X3X6X6X#XI.G.G.'.%X@X).G.o.o.t.o.o.( Y R ' W b b c b b R Q R a ' V.C.C.V.V.V.V.V.e.C.V.e.,.F ",
",.e.C.C.V.e.<.V.A.e.w.,.w.E b E +.G._ ' V |  . X1Xd.' x V ` ^ _ ].:X;X6X;X].P.Z.H.I.).J.b.+.( V ` ` o.X.V z z W m f f f f I Q T s d e.C.C.<.<.V.V.C.C.C.C.V.<.e.",
",.<.V.V.V.<.e.V.V.B.e.,.w.8.E ' +.J.| } ] O.t.|. Xy.S l ^ o.( | ].@X%X;X#X].Z.P.U.L.H.G.+.Z x B o.$.+.+.| _ n m -.*.f I I I t p a i t.C.C.B.<.V.C.C.V.<.e.C.V.<.",
"J ,.B.V.<.V.C.V.<.V.V.w.w.s.8.D | M.z.v.v.K  .a.8.n B B ) ] ] z.H.U.].OX).I.L.P.U.`.I.J.p.@.G o.J.].`.$.| ` ' R f f =.g I Q + s Q i E w.C.B.V.C.C.V.B.<.w.C.e.,.",
"J ,.<.e.V.C.C.C.C.C.B. .R 5.8.S Z m.l.v.Z.A  .W x x / ( Z ] c.(.`.U.U.P.Z.H.L.P.`.@X%X$X#X].Y.L.I.'.].J.( l Y R f *.f g i , + 0 u R i d w.V.V.V.V.V.<.V.V.C.e.F ",
"F ,.,.,.e.C.V.V.C.<.S R I ' 8.S { l.l.z.G.V _ x V O.] Z Z %.`.+X+XOXOX#XP.Z.H.I.[.;X;X;X$X#X].U.L.U.L.J.X.l j Q d I f d 0 Q L + u b d < b t.e.C.C.C.<.V.V.C.,.G ",
"J J J J w.e.e.B.<.S c d E s.t.+.z.} l.l.G._ r A | O.| C ( J.#X#X%X%X%X#X].P.A.I.$X>X>X@X'.+XY.U.L.v.Z.+.+.^ q p a R k u 0 L T + p R f % d w.e.V.C.V.V.V.C.V.w.D ",
"<.,.J ,.w. .e.<.S v n b 8.y. .v.c.} l.} G.G x ( O.+.| V ( b.$X;X%X:X#X#X+XP.H.J.[.;X;X'.I.Y.U.Y.P.G.+.x.@.` e + p p p 0 L T T + p b 8.4.8.r.V.e.,.<.C.C.C.V.<.,.",
"w.,.<.<.e.B.e.D h k R 8.:.:.G ..c.H [ H K  .V +.O.x.| V V | ).#XOX@X#X(.Y.P.U.H.I.'.'.H.H.L.U.P.P.Z.x.$.$.` q 0 0 p 0 e P ) L + Q I a.8.5.t.S.V.,.<.V.V.<.<.<.<.",
",.,.V.V.C.V.V.n h j W 5.>.v A @.c.H K l.K | V m.$.{ Z B B l X.`.OX+X(.P.P.Z.H.P.H.n.b.n.L.L.U.L.H.x.+.+.` z 0 0 L L L P ) U + + y s d d R W 8.S.<.<.V.<.,.<.<.J ",
"S ,.V.V.e.V.e.n c b W ' 8.v A @.c.v.H.Z.T.H Z x.z.] N C H C / b.'.+XY.P.L.Z.L.L.Z.v.@.v.H.M.H.n.x.+.+.X.) U 0 0 L P P ) ) L + p p 0 t t y I I ' e.V.C.e.V.C.e.F ",
"F ,.e.e.e.V.,.c R W W 5.m m z X.v.v.`.(.(.K | v.m.] H O.c.X.( | H.I.P.P.L.Z.Z.Z.x.K H | O.x.z.O.O.X.o.z k 0 0 P ! w ~ ) U 0 j T p p u y M , , i 8.r.e.,.<.C.e.,.",
"<.<.,.e.V.e.D u 7.i.R 5.E c n Z [ z.'.`.+Xv...@.z.H H H.H.O.O.O.@.G.L.L.H.H.Z.n.x.| Z Z X.O.X.( _ o.` x 0 0 w ` ~ N ~ ^ q 0 ^ Y p p a M % % - I  .V.,.,.,.e.<.<.",
",.<.V.V.V.B.t.b f.k.5.m m D F K H [ `.`.+Xc.z...z.H ] n.H.x.m.+.Z _ $.G.J.b.+.O.| ( B B ~ ( _ _ X.p.p.x e Z ` X.~ B ) U q ` &.^ 0 r d m g 7 6 E t.B.V.e.w.e.,.,.",
",.w.e.e.V.C.r.m 7.6.g d >.R.C.N.K l.M.M.(.L.c.} ..K | x.x.+.x.+.B B ) o.O.| { ] ( V l e e j T ` &.j._.q | z.O.` ^ Y U l z $.` l r r m 9.4.f 6 E w.e.C.e.e.V.,.,.",
",.<.w.w.e.C.C.' f 5 7 -.R././.E.N.l.l.M.M.M.O...+.+.| ......+.| e l ( ( C { / / N ~ P e e 0 0 ) ' p.%.| M.M.X.^ T U l ^ X.{ ( l h r f 9.6.*.7 d ' ,.C.C.V.e.w.<.",
"F :.,.e.e.e.e.F y I =.:.~.,X,X^.F.N.l.z.l.z...v.O.G.| C ( ] X.( e w ] ( ! #.#.! ) ! P ! e e 0 T T U _ c.U.m.` j j l B o.{ ~ ^ z z M f 6.;.=.1 , E w.e.C.C.e.F D ",
"F J <.e.e.,.,.D 7 =.=.-.R./.,X,XF.K [ H [ ] ..x...b.{ N B ( ` ~ e C $.+.C } #.#.#.! ! ! ! ! P L L r C L.U.+.T 0 e ~ ] ` P q k R R % f 5.=.3.; 6 ' w.V.C.V.,.F D ",
"F F <.<.<.,.J n i < g -.2.~.~.~.R.A.o.Z A A K z.} z.[ C N C ( ^ w { @X@XH ! #.#.! ! ! ! #.! P L 0 0 O.U.L._ j q ~ [ } B 0 0 s Q i < 7 % 7 5 ; I w.V.C.C.V. .F F ",
"F J <.<.e.<.J h , = 3 *.>.h.u.h.W.5Xa.8.A A Z ..O.[ m.X.B C C / ! } '.;XL.H / ) ! ! ! ! ! ! ! P e ! c.U.v.~ q ^ O.m.z.P P T t y t =     O * O , t.w.w.B.V.e.e.,.",
"J ,.<.B.V.V.,.h y = # =.6.>.>.>.f.2XW.:.S A A H z.v.c.c...C C / / l.M.@Xm.C / / ! ! P P ! ! P P q C x.T...l U ` z.c.O.w U o.k % % g # @ @ X O y D D  .e.C.V.e.,.",
",.,.,.C.C.C.e.n d = ; 5 3 3 *.6.g.d.g.0.:.:.D K Z.G.x.c.v.H C H [ l.m.H.H ( ~ w ! e 0 0 L P T q w C v.c.~ T U ~ H z.O.w ^ a.' s f 7.g 6 * X = u n F ,.V.C.w.,.,.",
"J J <.V.V.C.C.D u < ; - @ $ g 5.9.h.d.d.0.0.1.1.V.Z.@.....K ..[ [ [ { O.N ( ~ l N l j r r 0 T q l B O...j j U V H v.| x -.0.D h g -.g 1 = . < h D B.V.C.C.e.,.,.",
"F J <.e.V.C.C.F u i i = o @ 9 4.6.9.9.9.9.g.d.~.2.D S _ ..Z.Z.v.O.#.) ~ l ( ^ o.b.S.y.G s r 0 j l x ` Y s p k j Z S.r.8.>.v :.m f g 1 #   . < h S C.C.C.V.V.,.,.",
"J <.V.V.C.C.V.,.n h a =   * =.6.6.4.6.6.9.d.<X<Xd.v h A G v.P.c._ ) ^ ^ U l l | V.C.V.r. .r j ' l e ^ 0 r n a t D D.Q.1Xf.m 4.-.*.=.1 X   . , h n e.V.e.e.B.e.e.",
"J <.C.V.V.C.V.e.S n n < . * 5 5.6.6.5.3.;.h.2X<Xd.m :.<.<.C.C.A. .V V z  .G G r.F.F.F.D.D.8.t.&.k p a r m W.8.m 8.R.d.W.d.m 5.5.3 9 : .   . y v F e.V.V.C.C.e.e.",
",.<.V.<.e.C.V.B.S v h y & & , 3.5.3.9 5 =.>.W.d.d.0.W.F.C.A.F.F.r.y. .r.Y.D.V.R.E.E.E.D.E.W.K.' a t r t q. X X8.q.f.0.9.>.-.*.=.1 $ * X   = u n w.V.C.C.V.C.V.,.",
",.e.<. .,.B.e.B.D u u y = & > =.=.5 * @ 9 6.g.>.>.u.W.E.E.E.Q.d.1.W.Q.!.^././.Q./.E.E.R.W.W.0.b y t , E u.!. Xq.8.9.-.f -.6 6 1 #   o . < u v D V.C.C.e.<.V.e.<.",
",.<.e.w.w.w.w.e.F h u h < & ; : 3 : o   $ 3.3.*.*.-.0.D.E.!.~.>.-.R.,X,XE.~.~.R.R.R.W.W.D.u.5.R d i d i.u.W.f.5.*.f g 3 6 @ & X X X = , y h v ,.B.e.V.e.,.w.e.,.",
"F e.C.V.e.e.e.w.w.h h c p = & O - @ o   o 9 5 4 5 f f D R.!.<X;.g >.~.W.R.R.d.u.0.R.W.~.u.;.-.3.3.I f q.q.i.i.f 7 3 7 1 : O X   & , h c a h D V.<.,.e.e.e.,.,.<.",
"e.e.V.V.C.V.V.V.B.D u u t y < = ; ; O o   : $ $ 4 8 I -.g.R.g.9 7 -.d.>.>.>.>.-.-.2.d.d.;.=.9 =.=.5 g 9.4.4.3.6 $ 1 1 ; : * & & ; k v v n n e.C.C.C.C.C.V.V.w.<.",
",.e.V.C.C.C.V.C.C.J v h h h b i , 1 > o o @ # - 6 8 7.9.6.;.=.9 9 =.>.-.M =.-.3 =.>.g.>.g 1 9 9 9 ; # 5.3.g 6 - # - : 4 : ; < , a c c h n ,.V.V.V.V.V.C.C.e.<.<.",
",.B.C.V.B.B.V.C.C.C.<.n n n n n b i , =   X # # 1 5 3.5.=.9 $ 9 9 $ =.7 $ 8 3.2 3 -.;.=.7 : 2 9 9 @   g I 4 @ O - * > > < i u c v h c b D ,.e.e.w.e.<.V.C.V.<.<.",
",.<.<.B.C.C.B.e.e.V.B.J n n n h u h i < = = &   - : 2 1 9 > o $ $ $ =.$ @ 2 2 $ 7 3 9 2 * * 2 2 9 -   # 1 : X X O ; ; ; , k h n c u u n e.w.w.w.w.w.e.e.V.V.e.J ",
",.<.V.V.V.e.e.e.e.V.e.w.D n c h h c h u h k < & . . O O * * o @ @ > 9 $ @ 9 2 o $ 2 2 * O O 9 > 9 X   O X * O O & ; = < h h v n h h S ,.e.w.J J F w.V.B.B.V.<.J ",
",.<.C.V.e.,.w.B.V.r.w.w.e.F v c v n v c n v a , < < < = & & o @ > > 4 > @ $ 9 @ o > > $ X & > 4 9 O   O O O ; ; i a u k n n v n v G J J J J  .,.J ,.B.B.V.e.w.,.",
",.<.V.V.w.J F e.C.C.V.V.C.V.D S n n n n z v v v k n u t y < ; - 6 < > * o > > - @ O * O & = ; * O O   ; i a k b n n n n n n n D e.V.<.J J J <.<.e.e.e.V.V.V.e.<.",
",.<.V.V.e.w.w.e.C.C.C.V.V.V.V.e.J D n n v h h v z n h h u h i , c c i ; o : i d i > O O < y y , > O O ; k n h n n n v n n n F B.C.C.e.w.<.e.V.V.V.V.V.e.V.V.e.<.",
",.<.C.C.C.C.C.C.C.V.e.w.V.C.C.C.C.V.e.J D n h n S n n v n n n c v v b , , u c c c a i a b v c c b , < u h v n n n v n D D ,.,.V.V.C.C.C.C.C.C.C.C.C.C.V.e.e.<.,.",
"J J B.C.V.e.V.C.V.V.e.,.V.C.C.V.B.B.e.<.C.C.V.e.e.C.C.C.C.C.V.V.,.D v b b h u u h c b v c h v v h k k c D F ,.,.<.e.w.e.V.V.V.<.e.C.C.C.C.V.C.C.C.V.e.V.V.e.J D ",
"J ,.V.C.B.<.e.V.V.V.e.,.e.V.V.V.e.B.e.e.V.C.V.<.V.C.C.C.C.V.V.V.V.V.e.r.e.F F D D D F J D S D J w.w.w.,.e.C.V.B.e.B.e.e.C.V.V.<.V.V.C.C.C.V.B.C.C.V.e.V.C.e.,.F ",
",.B.C.C.V.B.<.B.C.e.,.,.<.<.,.<.e.V.C.C.V.J J V.C.e.C.C.C.<.e.V.C.V.C.C.C.C.C.C.V.C.C.C.V.B.<.V.C.e.,.,.<.w.w.w.e.V.C.C.V.,.,.C.V.V.C.C.C.<.<.V.V.C.C.C.C.V.e.<.",
"J <.V.C.B.e.B.B.V.V.<.,.B.V.<.B.e.V.V.e.<.V.V.V.e.<.V.C.C.e.e.V.C.C.V.e.e.V.C.C.V.V.V.V.V.<.<.V.V.V.<.,.B.V.<.B.V.V.V.<.V.V.V.V.B.<.V.C.C.B.<.V.C.C.V.<.w.C.V.<.",
"J ,.<.B.B.B.C.V.<.V.V.<.B.C.C.V.V.C.e.w.V.C.C.e.e.e.V.V.C.V.V.C.C.C.<.<.<.C.C.C.B.e.B.V.B.V.C.V.e.V.V.w.V.C.C.V.B.V.e.<.e.C.V.<.w.e.V.C.C.V.V.C.C.V.B.,.w.C.B.,.",
"F ,.<.B.V.C.C.C.C.C.C.C.w.e.C.V.V.C.V.V.V.e.e.,.<.V.e.V.C.V.V.C.N.e.e.B.V.C.V.e.B.e.<.e.V.C.C.C.C.C.C.C.<.w.C.V.V.C.C.V.e.r.e.,.<.B.e.V.C.C.V.C.V.B.B.B.V.C.<.F ",
"J ,.<.,.e.V.V.C.C.C.C.B.e.e.C.C.V.C.V.V.V.V.e.,.e.V.e.e.B.e.e.C.C.C.B.B.V.C.e.w.B.e.,.,.e.V.V.V.C.C.C.V.e.e.C.C.C.V.V.V.C.V.e.<.e.V.e.e.B.w.B.C.C.V.B.B.V.C.<.D ",
"J ,.J J <.e.e.V.C.C.B.<.<.V.V.C.C.V.e.V.C.C.V.e.V.V.e.e.<.<.e.C.C.V.V.V.C.C.e.w.V.e.,.,.<.e.e.V.C.C.B.<.<.V.V.C.V.V.e.V.C.C.e.e.V.V.e.e.w.e.e.V.C.C.V.V.C.C.<.D ",
",.,.J ,.w.J <.B.V.C.V.B.e.B.V.e.w.e.<.e.C.C.V.V.V.C.C.C.B.V.V.e.<.<.C.C.C.V.V.C.C.<.J ,.<. .<.V.V.V.V.B.e.B.C.e.e.<.e.e.C.C.V.V.V.V.C.C.e.C.C.e.,.<.C.C.C.N.<.,.",
"F J J ,.J J <.<.<.<.,.<.<.<.e.w.w.,.<.w.w.e.e.e.e.e.B.e.e.e.B.<.F F e.<.J J <.V.e.w.F ,.w.,.w.w.<.J <.<.<.w.w.,.w.,.w.w.e.e.e.e.e.e.e.e.e.e.e.w.F F <.<.,.,.J F ",
"S D F J w.e.J J F D F J ,.J F ,.<.<.w.<.F F ,.e.w.,.J  .J J <.w.F F J F D D F ,.,.F J ,.w.w.J :.F F F J ,.J J ,.w.,.<.<.F F ,.e.w.,.,.,.w.,.w.w.F D ,.F S D D S "
};
