/* XPM */
static char *Group_30_resized[] = {
/* columns rows colors chars-per-pixel */
"80 80 255 2 ",
"   c #071A17",
".  c #0E3419",
"X  c #23361A",
"o  c #12182C",
"O  c #0D2A27",
"+  c #15292C",
"@  c #0D3825",
"#  c #153928",
"$  c #1A2736",
"%  c #1D2A3C",
"&  c #1A3936",
"*  c #31362D",
"=  c #212C3C",
"-  c #23353C",
";  c #4E3635",
":  c #154918",
">  c #0E5011",
",  c #195717",
"<  c #2A4E15",
"1  c #235919",
"2  c #1C6911",
"3  c #316D0D",
"4  c #29760D",
"5  c #276716",
"6  c #386519",
"7  c #3D6D1D",
"8  c #2A7515",
"9  c #387916",
"0  c #3F711E",
"q  c #164726",
"w  c #15462E",
"e  c #195627",
"r  c #314F2C",
"t  c #275A27",
"y  c #274539",
"u  c #355736",
"i  c #1A6724",
"p  c #286727",
"a  c #3B6A26",
"s  c #3A7424",
"d  c #386534",
"f  c #337233",
"g  c #495817",
"h  c #4A6D15",
"j  c #477816",
"k  c #41751F",
"l  c #437A1E",
"z  c #4B4F35",
"x  c #427620",
"c  c #457C21",
"v  c #4B7C24",
"b  c #47792A",
"n  c #507230",
"m  c #666F32",
"M  c #1E3042",
"N  c #212C43",
"B  c #242C49",
"V  c #243342",
"C  c #293848",
"Z  c #333B49",
"A  c #2A3755",
"S  c #2D3C53",
"D  c #343C56",
"F  c #303D63",
"G  c #453E46",
"H  c #2A4648",
"J  c #33494C",
"K  c #375549",
"L  c #2D4455",
"P  c #37485A",
"I  c #3D5857",
"U  c #3C654A",
"Y  c #374865",
"T  c #3A4F6F",
"R  c #3C5367",
"E  c #4D4E50",
"W  c #675851",
"Q  c #4C6F52",
"!  c #716D55",
"~  c #45576A",
"^  c #545869",
"/  c #475D74",
"(  c #6A5964",
")  c #546E6C",
"_  c #4D6375",
"`  c #4C647B",
"'  c #56697B",
"]  c #766868",
"[  c #6D716E",
"{  c #756C73",
"}  c #787378",
"|  c #8A7B6A",
" . c #857A78",
".. c #33880F",
"X. c #398517",
"o. c #3C8623",
"O. c #3C9120",
"+. c #4D8F0B",
"@. c #468719",
"#. c #588915",
"$. c #489419",
"%. c #549818",
"&. c #639219",
"*. c #59A41A",
"=. c #64AA1A",
"-. c #70AB16",
";. c #6BB21C",
":. c #75B91D",
">. c #478022",
",. c #498423",
"<. c #4C8A24",
"1. c #4C852A",
"2. c #538727",
"3. c #548B2A",
"4. c #5B8D2B",
"5. c #4A9624",
"6. c #589727",
"7. c #568937",
"8. c #568F35",
"9. c #66952B",
"0. c #6F9131",
"q. c #679834",
"w. c #59A625",
"e. c #67A925",
"r. c #6BB325",
"t. c #74BA23",
"y. c #7ABD22",
"u. c #76B828",
"i. c #6FAB31",
"p. c #77A939",
"a. c #77B739",
"s. c #78C316",
"d. c #7DC125",
"f. c #7CC137",
"g. c #5A8846",
"h. c #55894F",
"j. c #6D904D",
"k. c #6B9854",
"l. c #6CA844",
"z. c #79AB45",
"x. c #7CB844",
"c. c #7BA65C",
"v. c #5B8A6E",
"b. c #769A66",
"n. c #6E9074",
"m. c #79A365",
"M. c #77A372",
"N. c #89B637",
"B. c #87B939",
"V. c #86CA1E",
"C. c #88C727",
"Z. c #92CA2B",
"A. c #95D627",
"S. c #87C538",
"D. c #96C637",
"F. c #ADD33A",
"G. c #828C4A",
"H. c #85B945",
"J. c #91B54F",
"K. c #8E8D74",
"L. c #90B273",
"P. c #AAB376",
"I. c #89C546",
"U. c #93C849",
"Y. c #99D052",
"T. c #ABD651",
"R. c #A7DE5A",
"E. c #A8D36C",
"W. c #CEE365",
"Q. c #525D89",
"!. c #556C83",
"~. c #596E83",
"^. c #566C8F",
"/. c #5C7488",
"(. c #657789",
"). c #657A8C",
"_. c #797B85",
"`. c #667C92",
"'. c #877D82",
"]. c #6A848B",
"[. c #778E89",
"{. c #6B8294",
"}. c #6B8599",
"|. c #768997",
" X c #748C9B",
".X c #79949B",
"XX c #7FA084",
"oX c #7087A4",
"OX c #7B95A4",
"+X c #8A8489",
"@X c #928F8F",
"#X c #9A958A",
"$X c #8B8A94",
"%X c #989699",
"&X c #A3958B",
"*X c #A69C96",
"=X c #91AE8E",
"-X c #A9A799",
";X c #ACB296",
":X c #8698A6",
">X c #999DA4",
",X c #889DB4",
"<X c #9A9EB5",
"1X c #A39DA1",
"2X c #88A6A6",
"3X c #96A2AB",
"4X c #8AA1B6",
"5X c #97A9B8",
"6X c #96B1B2",
"7X c #A8A7A8",
"8X c #B4ACA9",
"9X c #ADB4A9",
"0X c #B8B6A9",
"qX c #A9ACB3",
"wX c #A6B5BD",
"eX c #B4B3B5",
"rX c #B8B7B7",
"tX c #BCBBBB",
"yX c #C2B9A9",
"uX c #C2BCB8",
"iX c #95C09F",
"pX c #ADCB96",
"aX c #B7C6B0",
"sX c #C2CF9C",
"dX c #C7C5B9",
"fX c #CAD0B3",
"gX c #D8E3B4",
"hX c #98ADC3",
"jX c #A8B7C7",
"kX c #B8BCC3",
"lX c #C3BFC3",
"zX c #B5C4CA",
"xX c #C4C3C3",
"cX c #C9C8C5",
"vX c #CCCBCA",
"bX c #D1CEC8",
"nX c #CED2C8",
"mX c #D7D7C9",
"MX c #D4D2CC",
"NX c #CDCDD8",
"BX c #D4D4D2",
"VX c #D8D7D5",
"CX c #DCDAD3",
"ZX c #DCDCDB",
"AX c #E1DED6",
"SX c #DCE4D1",
"DX c #E4E2DA",
"FX c #E8E5D9",
"GX c #F1ECDF",
"HX c #D9DDE4",
"JX c #E4E3E2",
"KX c #EDEBE2",
"LX c #EBE8E8",
"PX c #F1EEE7",
"IX c #F2F3EA",
/* pixels */
"< 6 k k 0 0 0 0 k 7 7 k l l l 0 k k k k 7 7 0 c x k l x 0 7 7 7 0 x x 0 0 c k 7 6 7 0 7 7 k k k k 7 7 k x k k k k k k k 7 7 0 x k k l k k 7 7 7 0 k l 0 0 c 6 6 ",
"6 7 k k x x 0 0 0 0 0 c x x x 0 0 x k k 7 0 k x l 0 0 0 7 x c c c x k 7 0 c c c x k 0 k k x k 7 7 0 k l x x k k 0 k x 0 0 0 x l k k k 7 7 x c x c c x 7 0 c k 7 ",
"c x k c >.c 0 0 0 l x >.>.x c x x x x 7 k x c x k k 7 s x >.<.<.<.>.k 0 k c <.<.<.>.x c >.c s k k x l v c c c x x x x 7 k x c x s k 7 0 x c <.<.<.>.k 7 k c c l ",
"k x ,.,.,.>.k k l l x >.,.<.<.<.,.,.k s c ,.<.,.c c ,.,.,.>.,.,.<.,.,.k k >.>.>.,.,.,.,.,.>.l k x k l l ,.<.<.<.,.,.k 0 c ,.<.,.,.c ,.,.v ,.,.<.,.,.,.x k >.c 0 ",
"k k v ,.,.,.,.>.,.l c v <.<.<.,.<.>.>.>.<.<.<.<.<.,.<.<.,.c c >.l v ,.,.c c ,.,.,.>.>.>.,.<.,.v ,.c l ,.<.<.<.,.,.<.>.>.<.<.<.<.,.,.<.<.<.c c c c c ,.,.c >.x 0 ",
"k k k k ,.<.<.<.,.,.>.,.<.<.c c >.<.<.<.<.<.<.<.<.<.<.<.,.c x c 0 s ,.<.<.c >.<.,.c x x c <.<.<.,.,.,.,.<.,.c c >.<.<.<.<.<.<.<.<.<.<.<.,.c c c 7 x ,.<.,.c x x ",
"7 k k x v c >.c c x x x c l ,.,.<.>.>.x x c >.,.,.<.<.<.,.l k x 7 k >.<.<.c x x c x k x c v x c c x x l c c ,.,.<.,.>.x x c >.,.<.<.<.<.,.x l x 7 7 v <.<.c 0 6 ",
"7 7 k l l k k k s 0 x 7 k s c ,.<.>.c c c x x x v <.,.<.<.>.>.>.l l >.<.<.x 0 k c l k >.c k k k 0 0 0 s 7 x c ,.,.>.c c c c x x c <.<.<.,.,.>.,.c c ,.<.,.x 7 6 ",
"7 0 k >.c 0 0 0 k k k 7 x 0 0 x c c <.<.<.c x 0 x ,.<.<.<.<.<.<.v ,.<.<.>.s k x l x k v l k k k 7 k a x 0 0 0 s >.>.,.<.<.>.x 0 x <.<.<.<.<.<.<.>.<.<.<.<.7 7 7 ",
"7 0 l c c x 0 0 7 0 k 7 x x x >.<.v <.<.<.<.c ,.,.<.q.4.,.>.3.4.v x v <.<.>.c c x x k k l k 7 7 7 7 l v c x x >.,.,.<.<.<.,.c ,.<.<.<.<.,.,.,.,.x x x ,.<.,.c k ",
"7 0 x >.,.>.x 0 k c c c c >.<.<.<.,.<.<.<.,.,.<.<.<.p.p.9.3.4.9.v v 4.4.3.4.q.w.1.7.q.4.,.v k x v 2.4.4.2.c ,.<.<.,.,.<.<.,.,.<.<.<.<.,.c l ,.,.x s 7 c <.c c k ",
"l k x <.<.<.>.x ,.,.<.<.<.>.<.<.<.@.,.,.x c <.c >.4.H.U.B.a.i.q.4.0.p.p.l.l.I.I.6.x.W.H.q.3.v @.4.i.p.p.4.>.<.3.1.,.,.<.c >.<.c ,.<.<.,.k v <.<.x 7 0 ,.<.x k k ",
"7 0 k c <.<.<.>.k c >.<.>.c <.<.c ,.,.,.>.,.>.@.3.i.p.H.I.f.a.a.H.U.U.U.I.I.I.Y.I.U.T.S.I.I.S.a.q.l.H.N.8.c <.q.p.<.,.<.<.,.<.,.,.<.<.<.,.<.<.<.v c ,.<.<.c k k ",
"7 k c c ,.<.<.,.k s c <.c c <.c l ,.,.v ,.<.8.3.q.p.p.z.I.x.x.x.Y.R.Y.I.S.S.f.f.U.I.S.S.A.T.R.S.p.p.H.U.z.q.8.B.J.q.,.c ,.<.<.>.v <.,.<.<.<.<.,.,.<.<.<.,.,.x 7 ",
"k c ,.<.<.<.,.,.<.v c <.>.c >.<.<.v x k c q.c.z.q.q.z.x.a.q.q.q.x.f.a.w.r.r.w.w.e.t.d.C.d.d.C.Z.C.S.H.Y.E.Y.p.U.Y.H.8.x x <.<.x 7 x c >.,.<.<.>.c c >.c c ,.c l ",
"0 l ,.,.,.<.<.,.<.,.<.c <.,.,.<.2.x k x v l.Y.I.x.i.I.I.u.B.S.D.i.e.w.w.w.r.w.5.;.:.d.C.C.y.C.C.y.d.y.S.I.I.I.I.Y.Y.H.z.p.q.,.7 7 x v v c c ,.,.,.,.,.,.<.<.>.c ",
"7 c ,.x c <.<.,.<.,.,.l v ,.<.<.<.c k c q.x.I.x.x.f.f.f.f.C.A.A.d.*.w.5.w.d.w.$.:.s.:.Z.A.d.y.:.t.:.:.t.r.i.x.l.f.E.R.R.Y.x.q.8.1.x b v x c ,.<.<.<.<.,.<.<.c l ",
"l l x 0 l c c c ,.x 0 s 7 k ,.<.<.,.@.6.H.H.l.q.w.w.r.f.d.t.:.:.s.s.w.w.w.A.d.*.;.:.:.C.C.C.;.=.;.r.t.t.d.t.w.w.f.f.S.S.I.Y.E.Y.z.<.,.<.<.<.<.<.<.<.<.l x ,.c x ",
"k c v k x x c c c k k c k 7 v ,.,.3.b.L.Y.f.w.....O.r.C.t.:.:.-.w.=.w.*.=.A.y.*.;.:.V.:.y.u.e.=.;.=.=.-.y.s.*.e.w.w.d.C.S.U.R.U.H.q.3.,.v ,.,.,.v l ,.c k x x l ",
"7 c <.>.c c c x x c c ,.k k ,.8.k.m.aXmXpXI.x.5.o.$.t.:.r.:.y.r.*.*.*.*.=.s.y.r.t.d.d.V.:.r.t.d.y.u.u.e.r.:.y.y.d.w.d.f.d.d.f.f.a.z.z.q.c c ,.,.l k c ,.c k k k ",
"l c v ,.<.<.,.c v l 0 s 7 b 8.iXSXnXnXCXSXSXgXaXE.u.;.=.&.=.=.*.r.t.*.*.=.-.d.Z.C.s.:.A.A.A.V.C.I.pXpXI.5.5.r.:.:.;.d.t.e.=.r.u.a.a.Y.J.8.1.<.<.<.<.<.<.,.c c k ",
"0 c ,.<.<.<.<.<.<.,.c c l 7.pXSXIXLXJXZXHXIXIXGXgXR.i.+.$.$.%.$.w.w.w.e.=.=.y.Z.:.=.;.d.V.V.A.V.l.E.E.p.5.5.*.%.*.t.;.*.$.$.*.6.w.a.U.Y.x.l.8.<.,.,.v <.<.,.c l ",
"0 c <.<.>.,.>.<.,.<.<.<.@.c.JXJXNXZXHXJXJXJXKXSXDXfXJ.&.@.@.$.$.O.O.$.e.r.e.r.r.*.%.*.-.;.r.V.s.%.;.u.e.e.6.$...X.:.%.>.9 ..*.@.5.e.w.f.R.=XM.1.l x x ,.<.,.l l ",
"l l c >.<.<.>.c ,.,.<.<.$.m.IXJXvXnXVXSXLXIXLXSXcXnXnX;Xz.%.+.$.O...8 w.f.e.%.@.*.*.%.*.*.%.:.s.s.;.r.S.i.$.4 +.%.%.@.8 , 9 $.9 o.g.5.l.iXzX=Xg.x x c ,.,.,.l 0 ",
"k x ,.,.,.>.c c c c c c @.m.IXJXzXMXBXVXJXAXNXvXvXcXVXcX;XY.J.a.i.w.....w.w.@.p 5.5.5.*.*.$.H.Y.d.=.;.Z.-.@.3 9 +.@.3 , , 4 ..s h.v.n..XOX6X2Xg.b 0 ,.>.b @.l 0 ",
"0 x <.<.>.0 x >.,.>.c s 9 c.IXVXaXVXBXvXVXlXrXlXcXdXdXbXSXFXgXE.E.U.r.X.X.5.1.8 8 o.w.e.*.5.pXpXr.%.=.:.%.@.4 3 5 9 s p 5 4 O.h.].,XjX6X]. X[.v.n k >.,.c >.l 0 ",
"k c ,.>.0 0 0 x <.<.<.,.l m.PXcX-XBXZXVXBXlXeX1X8XcXmXAXDXKXGXmXSXgXpXpX=Xh.f 2 , 8 O.5.=.-.z.l.5.$.$.%.%.9 2 1 5 f Q v.v.h.v..X4X,X,XOX.XoX.XXXg.l l ,.,.<.v l ",
"k c ,.>.>.c 0 c <.<.<.,.@.c.ZXaX-XVXJXZXVXkX1X*XyXCXPXPXGXGXGXLXKXKXGXSXfX;XM.7.9 ..o.<.%.=.%.$.9 8 9 $.X.3 > > 1 U v..X6X2XOX2XOXOX X.XOXOXOXiXk.,.,.>.,.,.c k ",
"0 c <.<.<.<.<.,.<.v c x l k.zXlXrXBXZXZXBX*X_.eXZXJXPXPXKXGXGXGXKXFXFXDXSXJXnXpXu.*.O.X.8 4 +...5 , 4 X...i > > t ^ ' ].wXzX4X]./.{.}.OXOX.X2X6Xb.5.<.>.c c c k ",
"7 l >.<.,.c ,.<.,.>.c x v k.tXxXkXvXuXrXqX'. .lXJXAXMXmXDXCXFXGXKXGXDXDXSXSXmXnX9Xk.....X.9 X.4 5 5 5 2 i i v.U d ^ ' {. X X`./.). X X X.XOX6XwXk.,.c >.,.c 7 7 ",
"0 l ,.<.>.l c ,.,.>.x x c k.aXvXdXuXrXqX>X+X'.vXAXBXcXcXmXmXmXFXAXDXFXAXVXcXpX>XqXM.5.w.$.9 ..4 4 2 2 > i f OX.X) E ^ )./.).{.}.}..X X X|.OX6X6Xk.@.>.,.<.c 0 7 ",
"k c <.<.,.c l ,.<.>.x l 0 j.0XaXrXtXtXrXrX8X8XvXBXvXVXmXfXfXbXdXdXmXGXAXMXAXb.b L.L.L.L.8...4 4 2 ....2 o.XXwX6X].t I /.).OXwX:XOX X.X X|.2X2X[.g.<.<.<.<.,.l l ",
"k l ,.,.,.l c ,.,.,.l s l 8.k.;XlXlXuXuX1XuXVXVXBXMXAXfXfXAXFXAXFXFXFXdX-X8X-X;XdXfXfXnXaXiXL.M.b.M.XXiX6X2XOXOX].# K `.{. X:X X|. X.X X|..X[.g.1.<.,.c l <.,.l ",
"7 k c ,.c ,.<.,.l ,.,.x >.<.<.=XlX8XuXuX%XlXLXZXBXBXBXbXuXFXPXFXGXFXdX-X&X;XVXIXJXJXLXLXLXLXSXzXaXzXzXNXzX4X}.}.' # E }.}.{.).`.}.|.}.|.|..X[.1.<.,.,.0 s <.v k ",
"k k c c ,.<.<.<.<.<.<.<.9 b k.@X%X%X8XuX1XlXLXVXbXAXBXvXdXFXGXMXSXdX&X&XdXJXIXPXJXJXJXJXJXHXZXHXHXzX6X6X}./.}.}.' * P {.|.{.(.).|.|.).(.].:X[.7.1.@.>.>.<.<.x 7 ",
"7 k k x c ,.,.,.<.<.<.,.9 j.;X9X1X'.'.&X*XlXJXVXbXNXBXbXbXAXPXAXyX-X8XyXbXLXPXDXZXVXZXHXZXVXJXNXwXOX.X}.`.`.}.]._ - J ~.{.].(.).' ' [ ).|.<X=X1.<.,.c >.<.<.x 6 ",
"k 0 0 0 l c v >.<.<.<.c l k.nXcX1X'.{ ( '.uXLXVXBXBXBXvXNXAXJXJX*X&XmXmXmXFXFXMXvXvXvXVXZXZXHXkX}.].`./.`.}.)./.~ Z P _ ' ).).' E P ~.{.|.3X=X1.,.<.,.,.,.<.k 6 ",
"k k 0 k k s l ,.,.4.4.v k k.nXcXrX8X .( ( 1XJXBXBXBXVXvXlXVXbXeXK.&XAXDXmXDXMXxXtXeXrXcXZXHXzX:X/.{.}.{.`.^.' / ~ ~ _ ' ' ' ' E Z ~ ' _.[.|.v.v v v ,.,.,.,.c k ",
"l k k c c >.>.c v ,.3.4.@.j.bXbXlX8X .G W %XBXlXrXeXeXqX7XlXlX%X&XyXbXdXdXAXBXuXrXeXqXqXwXwX.X/./.}.{././.!.!.R P E ' `.(.~./ Z C ~ ' (.' [ j.0.v v v ,.l v k l ",
"7 k ,.,.,.<.,.c l k 2.q.9.G.uXuX8X'.( G ] &XuXrX1X$X'.$X1XlXeX .8XuXuX8XeXVXBXlX8XqX>X%X.X}.!.` /./.^.!.!.!.!.Y C L ' }.OX/.E - Z E ^ ) Q n &.N.4.x ,.l l x k k ",
"6 k ,.,.,.,.,.,.,.l >.4.u.J.8X-X'.'.W ; D.P.8XyX-X] ( '.qXvX8X| &XyXbXmXMXVXMXlX%X$X$X|.`./.` _ _ _ / !.!.` / J = D _ |.,X(.V V C D ^ Q n 0.9.2.4.4.<.,.>.<.c 7 ",
"7 k c l c c c c ,.0 q.J.N.H.P.K.| | ; m F.F.K.bXyX+X( (.8XvX8XW | yXbXAXAXbXbXlX%X$X$X(.!.~.' _ ~ R / Q.` / Y V = S ~ ~.{.^ = = Z ~ ' ) 4.0.9.,.2.3.c x l ,.v k ",
"c k x v >.c 0 0 k 0 z.W.J.G.J.G.m m m G.F.D.G.fXAX8X} { %XuX*XW | yXmXAXbXvXbXlX7X1X:X(.!.!.!./ I R / / / Y B $ = S P T ~ S = = D / ).[ m 0.9.4.<.v k 7 k c x l ",
"k x ,.,.,.>.x k x k n 0.N.D.J.m ; m &.K.;XG.N.yXVX0X@X'.#X7X .; | bXmXmXBXBXVXbXkXeX>X(.` !._ / / ~ ~ ~ Y Z = $ N Y P S Y y : C D ~ ` ) k.S.Z.9.3.v ,.k k ,.l k ",
"0 x c ,.,.<.,.>.v 4.0.N.N.N.N.h g #.0.K.yX&XP.;XyXyX*X&X#X&X( ; &XAXMXVXVXbXVXNXkXqX>X(.` ' / ~ R R R Y S N % $ C Y Y S S w > H L P ~ ) j.N.Z.N.9.l ,.,.c c x k ",
"k k k k >.<.<.,.2.N.T.W.N.N.&.h h &.m | 8XuXuXP.P.0X-X&X&X+XW * '.mXbXbXBXVXNXlXrX>X`.~.!.!./ R P I L L N $ $ N A Y Y Y C w e i J D E ^ z.p.N.T.0.0 ,.<.<.c x l ",
"7 0 k c l v >.l #.N.N.N.D.Z.&.j h j n ! &X*XyXyXyXyX-XK. .] E ; &XVXbXbXBXJXlX8XeX$X!./.!.!.T S V H L % # O $ N A F Y F w @ w L P D L E 0.&.N.D.0.k >.<.<.x s 6 ",
"7 7 k >.c k k s j 0.G.m N.Z.-.j 3 3 g W | '.'.yXdXsX-XK.W z * * *XJXlX8X8XlXlX1X>X_./ ` ` / P V - C V % & & o = B A A A H C S Y D Z N z #.=.9.p.2.l ,.<.<.x 7 6 ",
"7 7 l l x 0 0 x v v &.N.0.0.N.#.3 5 < z ( |  .8XdXbX*X! z X . X %XvX1X'. .%X>X%X@X(./ ~ R Y C V V & - S F B O M B B M M Y T Y A C * o < @.,.<.&.2.,.2.<.,.0 7 7 ",
"7 k l l c x 0 x n 4.i.F.Z.-.#.+.9 1 < * E W ] &X8X8XyX-Xj.z X < E { {  .'.%X@X+X$X(.R R P C V % - - L T T A O @ & M A A L Y A M # # # < 5 5 @.p.9.v l ,.<.>.x k ",
"7 k l v ,.,.x c 4.9.p.D.D.e.9 3 9 6 < X ; E W K.&X&XyXuX%X( r X z ] { {  .%X%X$X'.' R P H - V V H L R T Y A O @ w w Y Y A B M w : q q t f f g.a.9.x k l <.,.c l ",
"l k l ,.<.<.c x v 0.9.4.9.9.@.x k #.6 X X ; E | K.K.*X-X%X'.E * } 7X$X{ ] $X1X%X_.^ P C - N V V S T T L B M O O @ L F A B M + : : @ & E [ XX=X6.x 7 7 v <.x k k ",
"7 k k >.<.<.<.>.k v v <.6.q.c.=X;XK.j.m * X < n | | &X&X'.(.^ E +X7X%X%X@X .'.$X+X^ C V % N N A Y L A A M O o M M M C V & & + q w J /.:XqXzXzXaXk.l ,.<.<.c k 0 ",
"6 k c c ,.<.<.,.k k v v 6.c.pXFXJXuX0X=X! W n m m | |  .'.( E { %X7X>XeX8Xn.! [ _.~ = % $ N N A L A M O O o o $ M M & w w & @ @ w R  X<XkXkXzXHX=X7.1.<.,.,.x 0 ",
"x c v ,.<.<.,.,.2.l c 1.j.;XFXGXDXFXDXAXCXnXtX#X! ; W ] { E E ] $X7XqXrXeX-Xh.a E Z N % $ $ N M M N $ O     o o M & w # @ @ : w w d T Q.`.:XhX5X2Xb.1.c v ,.c x ",
"7 c <.,.,.<.<.,.<.<.<.3.L.mXAXFXFXGXGXDXDXMXaXeX%X .^ E W r z ! K.%X8XrXlXyXn.r C V N N N $ $ % M $ o @ O     o $ # @ @ q @ @ e p p K Y T Q.).oX|.v.1.,.,.<.>.l ",
"0 v ,.l c <.<.<.,.<.3.g.fXLXnXSXFXCXCXbXvXdX0XtXjX>X^ z z < z 0.! G.&X8XrXrX_.P C B = N = $ + & $     . . O & H L H w w e w @ i i p u K Y L T /.) Q 1.<.,.<.,.x ",
"k x x s x c x c ,.k n =XdXmXfXCXCXdXtXlXxXxXaX7X$X'.' E * 6 h n m m | K.&X%X(.E D C N N % # @ O o     . O L ^.}.}.^.T e > > > i i e y J I P P J d b <.c x ,.c l ",
"k l >.x x x c c l 0 j.fXnXdXdXdXtX0XaXsX0X9X7X:X_.' ~ z h 3 6 r h v G.G.K.K.[ E Z C = C y e & O   H I I R ` }.hXhXoXoX}.i > > > e p d d d d d d a c >.x x x x l ",
"k l <.>.c c c x x k m.FXCXrXeX8X8XyXsXsX;X#X[.[ _ E Z 6 +.j h X 3 %.G.|  .J.j.I - - - C y e @ O * ' OXoXoX}.}.5XjX,X4X4X) e > > p f b 9 s >.<.<.x x c >.c k k l ",
"l c ,.<.<.<.c c ,.x b.AXbX9X7XdXmXCXxXeXqX X' Q E C u 1 4 +.+.< #.V.z E ! K.j.d * + $ + @ q : d ].:X,X5X6X4X4X4XhXjXjX4XOXU > e p a 0 <.<.<.<.<.<.<.<.<.,.c l k ",
"k c ,.,.<.<.<.<.<.l m.VXdX7X7XaXCXVXkX<X<X_.~ ~ K u t 1 2 ..X.3 #.j r G ! K.j.h r = + # : : y ) :X5X5XwXhX6X5X5XhXHXzXhX4X}.Q f s 0 @.c ,.,.,.,.<.<.,.<.<.,.c l ",
"k l ,.,.v >.,.<.<.,.c.dXeX>X%XtXvXxXqX:X|.' P P d 7 , : 2 4 2 4 h g * G ! k.9.l < + + 1 , 1 ) ].:XqXwX3XhXjXhXhXjXzXzXjX4X4XOXh.,.c c x x x c c c x x ,.<.,.c l ",
"k l v ,.<.<.,.c v @.7.b.=X7X%XqXtXtXrX7X)._ R S u l 5 , > > > > j +.g r z n c 3 < . # $.X.w ) [.:XkXkX3X6XhXjXhXhX,XOXhX4X,XOXh.x x x l v x x x s x c c ,.,.x 0 ",
"k l ,.,.,.,.c c c c b n j.[.$XqXjXqXqX>X_ P P C y k s 2 > Q n.b.G.i.h < r 6 1 1 , , 3 9 9 d h.[.3XcXzX>X:X:X:X X}.^.].}.`.^.`.Q s 9 0 x x l k k 0 s ,.v l ,.l 0 ",
"0 c ,.<.c 0 x c ,.>.l s @.Q n.:X7X<X<X`.R L H H * r 1.o.p iXIXKXsXk.6 , < < < , 5 ..@.: , o.j.n.3XzXtX2X).!.~.` ` ` ` ` Y T T b >.c x 0 0 s k k 0 k ,.,.v @.x k ",
"0 c ,.>.k 0 0 x <.<.,.,.@.1.n j.[.:X`.^.Y H r d b x b k.;XSXIXIXrXb.+.3 : : 1 5 : 2 8 @ # s j.b.[.qXeX3X/.` !.` ` T R Y Y J f 1.<.,.s 0 7 k x c l c c ,.,.<.c k ",
"k c ,.,.c c 0 >.<.<.<.<.2.,.,.1.g.n.[ ~ Q u r l ,.<.0 m.SXIXJXzX`.Q +.4 > > 5 1 : q , @ # f g.M.[.$X2X|././ / / T T L J H d b >.<.<.>.l x c c ,.,.,.,.>.>.<.c k ",
"0 >.<.<.<.<.<.,.<.>.c x ,.<.<.<.1.1.b a b s s v ,.<.<.m.SXIXjX` H t 6 , , 4 5 : q : q q e f h.M.:X}././.!.R R Y D Y J r x x k ,.,.<.<.<.<.<.<.<.<.<.<.>.c c l k ",
"0 0 >.<.,.c ,.<.,.,.c x >.<.<.,.,.l k k ,.<.<.x c 5.<.g.XXOX!.L n #.<.s 5 4 i e q e e e p Q ) ).:X).` / T Y P H u d d a ,.<.,.x c <.<.<.<.<.<.<.<.,.v ,.,.c k 6 ",
"7 l >.<.>.l >.,.,.>.x x c <.,.>.l c c >.<.,.@.c >.<.<.7.h.I J u 2.9.8.5.X.2 p f p p f i d Q I _ [ _ E I K J K u a x l c <.<.,.l >.<.<.<.<.,.>.<.,.,.c <.,.c k 7 ",
"k c <.<.,.>.l >.<.>.x l x x k l c ,.<.<.,.k x ,.<.>.<.1.1.a a b ,.<.5.8.5.X.s <.>.>.,.7 s s a d u u u t a s s s c ,.<.<.>.x k <.<.>.<.<.<.c x ,.,.<.<.<.<.,.c l ",
"0 l ,.,.>.c >.,.>.>.l k >.,.>.c ,.,.,.c >.,.,.,.c l ,.<.,.l c <.<.<.,.v c o.<.<.,.,.,.c x l c x s x a a c ,.@.v ,.,.c c ,.c ,.,.c c ,.<.<.>.c <.<.<.,.c c ,.,.l ",
"0 l c >.v ,.,.,.l <.,.c >.<.<.,.,.,.c k c ,.<.>.c x >.<.<.,.>.,.<.,.l k l <.<.,.,.c c >.>.>.<.,.l <.,.l ,.<.,.,.,.<.c x c <.<.c x c >.<.<.,.>.<.,.,.>.k s <.v k ",
"0 k c c ,.<.<.<.<.<.<.<.c x <.,.,.,.,.,.,.,.c 0 x ,.>.,.<.,.,.<.,.,.c >.,.<.,.c v l l v ,.<.<.<.<.<.<.<.x x <.,.,.<.<.c >.>.c k x >.>.,.<.<.>.<.,.>.c >.,.<.c 7 ",
"0 k k x c ,.,.,.<.<.<.>.c x <.<.<.<.,.,.,.,.c x c ,.l c >.c >.<.<.,.>.>.,.<.c k c @.l s c <.,.,.<.<.,.,.c c <.<.,.<.<.,.<.,.c k >.,.c x c c c <.<.,.>.>.<.<.x 6 ",
"0 0 0 s l c c ,.<.<.,.x c >.<.<.,.,.c ,.<.<.,.c ,.<.c l l x c ,.<.<.>.,.<.<.c x ,.c x a x c c v <.<.,.x c ,.<.<.<.,.v >.<.<.>.c >.,.,.c x x c <.<.<.,.,.<.<.k 6 ",
"k k 0 x k k c ,.,.,.,.>.c >.<.c x c l c <.<.<.>.,.<.<.<.>.<.,.>.k k <.<.<.,.,.<.<.c k k k x c ,.,.<.,.,.c c ,.c x x x c <.<.,.,.,.<.<.<.c <.<.c k l ,.<.<.>.c s ",
"7 7 0 0 x k k k l l x l x x c k x k k c x c c c l c c v c c c c 7 7 c x 0 0 l ,.c k 7 k x k k x l l l l c x l x x k c c c c c c c c >.c c c c c 7 0 c c 0 0 7 7 ",
"6 6 0 0 k x k 7 7 6 7 0 k 0 7 k l k c k 7 7 k c k 0 k k s 0 k x 7 7 0 7 6 7 7 k k 0 7 k k x k 7 7 6 7 7 k 0 7 k x k k l 7 7 0 c l 0 0 0 k 0 x x 7 6 k 7 6 7 6 6 "
};
