/* XPM */
static char *fbc99519ff454dbbf063fef721437170sxMtm3PguJSmYVWd[] = {
/* columns rows colors chars-per-pixel */
"80 80 256 2 ",
"   c #221C0A",
".  c #24220C",
"X  c #2A2B0D",
"o  c #25280C",
"O  c #2C330E",
"+  c #27370D",
"@  c #31350E",
"#  c #333A0E",
"$  c #2D2C12",
"%  c #272811",
"&  c #332D15",
"*  c #2D3313",
"=  c #243B11",
"-  c #2C3B13",
";  c #283715",
":  c #333414",
">  c #353B13",
",  c #3A3D15",
"<  c #35341A",
"1  c #3B351B",
"2  c #3B3B1B",
"3  c #383818",
"4  c #312F0D",
"5  c #383B23",
"6  c #1F2009",
"7  c #423B1D",
"8  c #4A361C",
"9  c #53361A",
"0  c #4B2D19",
"q  c #4C3C24",
"w  c #483924",
"e  c #533A22",
"r  c #523E2C",
"t  c #573823",
"y  c #633A1D",
"u  c #1F4B16",
"i  c #3A4C0E",
"p  c #37480D",
"a  c #36550E",
"s  c #264412",
"d  c #2A4513",
"f  c #2A4B14",
"g  c #26491A",
"h  c #344313",
"j  c #3B4414",
"k  c #3C4C14",
"l  c #3D431A",
"z  c #3D4C1C",
"x  c #334919",
"c  c #2E5316",
"v  c #27571C",
"b  c #3D5314",
"n  c #3D5B15",
"m  c #35531A",
"M  c #3D531C",
"N  c #345C1A",
"B  c #3D5B1B",
"V  c #325516",
"C  c #2C420F",
"Z  c #36631B",
"A  c #3A651B",
"S  c #3D6D1D",
"D  c #3E6114",
"F  c #3F711E",
"G  c #26631F",
"H  c #2D4822",
"J  c #384624",
"K  c #2C5422",
"L  c #2B5C23",
"P  c #275922",
"I  c #375923",
"U  c #2C6423",
"Y  c #2A6825",
"T  c #376726",
"R  c #3A7428",
"E  c #387736",
"W  c #316E2D",
"Q  c #444C1B",
"!  c #444919",
"~  c #425416",
"^  c #425B16",
"/  c #44541B",
"(  c #4A531C",
")  c #435B1B",
"_  c #4A5C1C",
"`  c #495717",
"'  c #554E18",
"]  c #69491B",
"[  c #734D1B",
"{  c #44641B",
"}  c #4A631C",
"|  c #446B1D",
" . c #4B6A1D",
".. c #456416",
"X. c #53691E",
"o. c #41751F",
"O. c #42791F",
"+. c #4C741E",
"@. c #494824",
"#. c #54422C",
"$. c #5A442C",
"%. c #574928",
"&. c #4B5323",
"*. c #455A23",
"=. c #4B5C22",
"-. c #485726",
";. c #515D24",
":. c #575729",
">. c #5E4A34",
",. c #594533",
"<. c #575531",
"1. c #674729",
"2. c #665828",
"3. c #775826",
"4. c #634B33",
"5. c #684D38",
"6. c #6C5336",
"7. c #6D523B",
"8. c #655634",
"9. c #72553C",
"0. c #755B3D",
"q. c #785C3D",
"w. c #764B29",
"e. c #456321",
"r. c #4B6223",
"t. c #4C6C22",
"y. c #466A28",
"u. c #526325",
"i. c #526C24",
"p. c #556D2B",
"a. c #5A6B2B",
"s. c #596429",
"d. c #427620",
"f. c #4D7423",
"g. c #457C21",
"h. c #4B7C24",
"j. c #4A782A",
"k. c #537425",
"l. c #537B25",
"z. c #54732A",
"x. c #5B742C",
"c. c #547C2A",
"v. c #5B7C2C",
"b. c #5A7A25",
"n. c #496A35",
"m. c #487836",
"M. c #597932",
"N. c #5C6A31",
"B. c #65672A",
"V. c #65752A",
"C. c #6A6934",
"Z. c #7B643D",
"A. c #756939",
"S. c #677935",
"D. c #757639",
"F. c #776E2B",
"G. c #6D631E",
"H. c #7A5D42",
"J. c #755A41",
"K. c #6C5243",
"L. c #487645",
"P. c #7D6342",
"I. c #7A6C41",
"U. c #7D7442",
"Y. c #89471B",
"T. c #974A1B",
"R. c #93541E",
"E. c #AE581D",
"W. c #874921",
"Q. c #8A5427",
"!. c #995525",
"~. c #904E24",
"^. c #A65924",
"/. c #B45623",
"(. c #A94E23",
"). c #8C6C33",
"_. c #AA652A",
"`. c #B76728",
"'. c #B8712A",
"]. c #B27637",
"[. c #B9631C",
"{. c #C8772C",
"}. c #C97A35",
"|. c #D37831",
" X c #CB6F2D",
".X c #C5661A",
"XX c #836543",
"oX c #856B45",
"OX c #8A6C4B",
"+X c #856848",
"@X c #8D734D",
"#X c #867549",
"$X c #91754D",
"%X c #977A54",
"&X c #8C7050",
"*X c #805F40",
"=X c #3A8132",
"-X c #478022",
";X c #498423",
":X c #4C8A24",
">X c #4C8629",
",X c #548226",
"<X c #56822C",
"1X c #5B842B",
"2X c #5C8A2D",
"3X c #5A8425",
"4X c #5E902E",
"5X c #488638",
"6X c #5D8532",
"7X c #5E8C32",
"8X c #548637",
"9X c #549237",
"0X c #62842C",
"qX c #638B2D",
"wX c #648C27",
"eX c #62932E",
"rX c #628332",
"tX c #628D33",
"yX c #698937",
"uX c #718A3B",
"iX c #649433",
"pX c #699535",
"aX c #669934",
"sX c #6A9B36",
"dX c #6B9439",
"fX c #6B9C39",
"gX c #669739",
"hX c #72983B",
"jX c #6FA13C",
"kX c #589848",
"lX c #508C42",
"zX c #759443",
"xX c #6F8D4D",
"cX c #5BA34E",
"vX c #66A755",
"bX c #6DAC55",
"nX c #CC833A",
"mX c #D58739",
"MX c #DB8B35",
"NX c #E3903D",
"BX c #928553",
"VX c #AD8D4B",
"CX c #AD8F63",
"ZX c #DA9442",
"AX c #CD9046",
"SX c #E69945",
"DX c #F29D46",
"FX c #E9A64B",
"GX c #E9A954",
"HX c #EEB45A",
"JX c #F6B559",
"KX c #F3AB4F",
"LX c #F0B863",
"PX c #D4A25B",
"IX c #F6C46B",
"UX c #B0873C",
/* pixels */
"c Z o.S S F F o.o.S S d.o.o.O.o.F o.o.o.S S o.g.d.o.O.o.F S S F F o.d.F F g.d.S Z S o.S S F F o.o.S S d.o.o.o.o.F o.o.o.S S o.g.d.o.O.o.F S S F F o.d.F F g.S N ",
"A S o.o.d.d.F F o.F o.g.d.d.o.F F d.o.F S F o.d.o.F F F R d.g.g.g.d.o.S F g.g.g.d.o.o.o.d.d.F F o.F o.g.d.d.o.F F d.o.F S F o.d.o.F F F F d.g.g.g.d.o.S F g.o.S ",
"g.d.d.g.g.g.F F o.o.d.g.g.g.g.d.d.d.o.F o.d.g.d.d.F S F d.-X:X:X:X-Xo.S F g.;X:X:X-Xd.g.g.g.F F o.o.d.g.g.g.g.d.d.d.o.F o.d.g.d.d.F S F d.-X:X:X:X-Xo.S F g.g.O.",
"F g.;X:X;X-Xo.o.d.o.o.g.;X:X:X:X;X-Xo.S g.;X:X;X-X-X-X;X-X-X-X;X;X;X-Xd.d.-X-X-X-X-X;X:X;X-Xo.o.d.o.o.g.;X:X:X:X;X-Xo.F g.;X:X;X-X-X-X;X-X-X-X;X;X;X-Xd.d.-Xd.F ",
"F d.-X-X;X:X-X-X-Xg.g.-X:X:X;X;X;X;X-Xg.:X:X:X:X:X;X:X:X;Xg.g.g.g.g.;X-Xg.g.-X-X-X-X-X-X;X:X;X-X-Xg.g.-X:X:X;X;X;X;X-Xg.:X:X:X:X:X;X:X:X;Xg.g.g.g.g.;X-Xg.-Xd.o.",
"o.o.o.d.g.:X:X:X;X-X-X-X:X;Xg.g.-X:X:X:X:X:X:X:X:X:X>X;Xh.f.d.g.F F ;X:X;Xg.-X:X;Xg.o.d.g.:X:X:X;X-X-X-X:X:Xg.g.-X:X:X:X:X:X:X:X:X:X:X:X-Xg.g.g.F F ;X:X;Xg.d.o.",
"S F o.g.g.g.g.g.g.d.d.d.d.g.-X;X;X:Xg.d.d.g.-X;Xl.V.F.F.Q.3.2.s.y.S g.:X:Xg.d.d.g.d.o.g.g.g.g.g.g.d.d.d.d.g.-X;X;X:Xg.d.d.g.g.-X;X:X:X:X;Xg.d.d.S F g.:X:Xg.F A ",
"S S o.g.g.o.o.d.F F F F F R g.;X;X-Xg.g.g.g.k.D.VX].`.`.mX`.^.Q.3.i.;X:X:Xd.F o.g.d.o.g.g.o.o.d.F F F F F R g.;X;X-Xg.g.d.d.d.d.g.:X:X:X:X-Xg.-Xd.d.-X:X:Xd.S Z ",
"S F o.g.g.F F F F F F F F F S d.-Xg.;X:X;Xk.).PXGXnX[..XDXSX}./.T.3.k.:X;XF d.g.g.d.o.g.g.F F F F F o.o.R d.R d.-X-X;X:X;Xg.d.F d.:X:X:X:X:X:X:X;X-X:X:X;XF S S ",
"S F o.g.g.d.F F F F F F o.d.d.-X;X-X;X:X:XD.PXIXHXNXMXMXKXJXFX{./.!.2.h.;X-X:X:Xg.d.o.g.d.d.F F S o.o.F j.lXd.-X;X;X;X:X:X;Xg.-X:X:X:X:X;X-X-X;Xg.d.d.-X;X-Xg.o.",
"F F o.g.-X-Xo.o.d.g.g.d.g.-X-X:X:X;X;X:X<XVXLXIXHXKXDXDXKXJXJXNX.X(.3.f.:X;X,X<Xl.t.t.h.g.g.o.o.d.g.g.g.lXkX;X:X:X;X:X>X:X;X;X:X:X:X:X;Xg.g.-X-Xd.S S g.:X;Xg.O.",
"O.o.d.:X:X:Xg.g.-X;X:X:X;X-X:X:X:X-X:X:Xx.VXHXJXGXJXJXDXKXJXJXSX X/.Q.k.,Xz.C.F.3.3.2.B.x.l.d.g.g.;X:X8XbXvX>X:X:X-X>X8Xj.-X:Xg.-X:X:X-Xo.-X:X:Xd.S F -X:Xd.o.o.",
"S F d.g.:X:X:X-Xo.g.;X:X-Xg.:X-Xg.;X:X;XV.AXJXJXFXGXHXFXGXKXJXSX|./.~.B.V.).]._.^.R.R.Y.w.2.a.j.o.g.;X8XbXvX>X-Xg.-X8XxX8X:X:X-X;X:X:X:X;X;X:X:X-Xg.;X:X:Xg.o.F ",
"S F d.g.;X:X:X-Xo.o.g.:X-Xg.;X-Xg.:X-Xg.uXAXJXJXFXGXLXGXSXFXKXSX|./.T.[ ).].}.nX}.'.[.^.Y.W.w.s.y.R m.kXbXvXj.g.d.g.m.vX8X:X:X-X-X:X:X:X:X:X:X;X;X:X:X:X;X-Xd.F ",
"F d.-X;X:X:X-X;X:Xg.g.;X-Xg.-X:X:X-Xo.S F.AXGXKXFXGXLXGXSXDXDXNX X/.T.Y.}.mXMXZXZXmX|.{.^.T.Y.3.p.y.m.cXbXkXT T j.m.9XbX8X-X:Xd.o.g.-X:X;X:X:X-Xg.g.g.g.-X-Xg.d.",
"F g.:X-X;X:X;X;X:X:X;X-X-X;X:X:X:Xg.F F x.UXZXFXFXFXJXGXSXDXSXmX`.(.Y.!.}.mXmXmXmXmXmXmX}.^.T.Q.:.T m.cXvXlXv L E m.vXbXm.R g.o.o.d.g.g.d.-X-X;X-X-X-X;X:X:X-XO.",
"F g.;Xd.g.:X;X;X:X:X-Xg.g.-X:X:X:Xg.d.d.k.).mXNXMXMXSXSXSXSXNX X/.T.Y._.AXZXNXmXmXmXmXmXnX_.T.W.] B lXvXvXE v W E 5XbXbXm.R d.d.d.g.g.g.d.g.;X:X:X:X:X:X:X:X-XO.",
"d.d.d.F o.g.g.-X-Xd.F F F d.-X:X:X;X-Xg.h.).nXnX|.{.{.MXmX|.|.[.T.Y.Y._.AXFXHXHXFXMXnXnXnX'.^.~.] ) kXvXvXW Y E E 5XbXbX8Xd.>X:X:X:X;X;X:X:X:X:X:X:X:Xg.d.;Xg.O.",
"o.g.g.d.d.d.d.g.g.d.d.g.F F -X:X:X:X;X-Xg.V.].'.'.'.'.{.{.`.`.T.Y.[ [ _.AXFXIXIXHXZX}.}.nX`.R.Y.] _ lXcXcXE Y E E 5XbXvXm.R ;X:X:X:X:X:Xg.-X;X;Xg.g.-Xg.o.d.d.O.",
"F g.:X-Xg.g.g.g.d.d.g.-Xd.F -X:X:X;X;X;Xg.f.F.Q.!._._.`.`.^.!.~.Q.] [ !.AXFXHXIXGXZX}. X}._.T.Y.] ) 5XcXkXW Y E E lXvXkXy.T g.;X:X:X:X;Xd.g.-X;Xg.o.g.g.g.F o.o.",
"d.g.-X:X:X:X;X-X-Xd.F F S d.:X:X-X-X:X:X:X:Xi.%.] [ Y.~.!.W.w.w.2.:.' R.nXZXFXGXZXmX{. X X^.Y.W.] ) 5XcX5XY Y E W lXkX5XT R :X-X-X;X;X:X:X:X:X:X:X:X:X:X:Xg.d.o.",
"o.g.;X:X:X:X;X:X:X-Xg.g.g.-X:X:X;Xg.g.:X;Xj.n.-.@.' ' ' 2.%.9 0 7 -.s.3.'.nXMXNX|.{.'.`.`.T.Y.[ ' T E 9X=XY Y W W 5XlXR K T g.-X;X-X-X-X-X-X-X:X;X;X-X:X:X-Xg.O.",
"F g.:X;X-X-X;X;X:X:X:X:X:X:X:X:X:Xo.d.g.j.n.L.L.n.-.=.Q :.%.8 & : -.x.G.R.].}.{.`.`.`._.!.Y.[ ' / T W 5XE G U Y Y R R v v I T :X:Xg.g.d.d.d.g.g.d.d.d.-X:X-Xg.O.",
"o.d.g.-X:X:X-Xg.g.;X:X:X:X:X;X-Xg.g.j.m.n.n.L.L.m.n.n./ &.8 e 0 1 n.M.V.3.)._.`.`.`._.!.~.w.9 ! m R W W R v U L U Y Y v K K I g.g.R d.g.g.d.o.d.R d.g.-X-X-Xd.F ",
"o.d.-X;X;X-Xg.g.g.-Xg.g.;X:X:Xg.j.j.M.M.p.n.L.m.m.y.e.&.@.9 t t w ;.M.x.C.3.3.Q.~.~.Q.w.] 9 ! M V T E U T v L L U R Y P K v N m.M.n.y.d.d.d.o.o.F d.-X-Xg.-Xd.F ",
"F g.:X:Xg.F d.g.-Xg.d.F g.>Xc.z.M.6Xv.k.e.n.m.y.n.;.:.%.$.$.1.t 8 &.M.z.s.:.:.2.1.1.y y 8 l I I N T W U L v P K U Y U P P v T M.yXM.p.y.T R F o.F d.;X-X-X-Xd.o.",
"o.g.;X-Xd.S S d.:X:X:X;Xh.c.M.v.v.l...^ / &.:.:.<.4.7.7.5.4.4.$.q ;.p.M.-.@.-.:.:.e 0 9 1 d K U T U W U v P g v U Y G P K v j.<X1X1Xv.M.n.T R g.g.g.g.-X;X;Xg.o.",
"o.g.;X-Xg.d.o.g.:X:X<XyXz.i.i.k.k.X.~ ' 2.2.%.%.$.7.J.J.9.6.1.$.! &.M.p.&., &.&.%.9 0 9 1 + g v T U U L u v u L Y G v v v N c.,X,X6Xc.k.M.r.B d.;X;X;X-X-X;Xg.o.",
"o.g.:X:X:X:X;X;X:Xh.z.x. .yXrXi._ ` ' 2.).).q.0.0.6.0.H.J.9.1.$.#.&.u.u.&., Q Q %.9 0 9 1 + = v U T v U v g v T U U P v v Z <X2X2X1Xl.+.l.S./ h y.>X:X-Xg.g.d.o.",
"S o.-X:X;Xg.;X:X>XxXxXyXrXyXx.X._ ( 2.).BX%X&X&X&XH.0.0.H.J.6.$.#.@.*.*.@.! &.! %.e 9 e 7 * s g K T v L g g U T L U L v c y.7X2X7X7Xh.f.6XyXS./ *.j.g.-X-Xd.F S ",
"S d.-X:X-Xo.g.-Xj.xXBXb.M.S. ._ s.2.A.BXCXBX&X&X+X+XXX9.J.H.9.e r @.-.-.! l Q ! ! 9 9 e q > - x K I v u u v U L L L P v v m.7X7X<Xc.j.h.tXzXzXyXs.*.g.;X:Xg.F S ",
"o.g.:X:X;Xg.d.g.N S.uXb.M.z._ s.C.A.$XCXCX%XOXOX+X+XXX9.7.H.7.e r @.z z ! 7 ! @.8 8 9 e e 7 > x J g g g P U U v P K g g U m.<X7X7Xj.j.l.tXpXhXyX` z h.:X:X;Xg.d.",
"o.g.;X;X-Xg.g.d.c xXhXb.z.i.a.D.U.oX$X%X$XXXXX+XP.P.H.7.4.J.7.e q @.@.l 2 2 7 @.8 0 0 9 8 7 2 2 x d s K I L L L K H u g T y.j.c.f.y.y.c.2XqXyXb.~ h y.g.g.:X-Xg.",
"S o.g.-X-X-X;Xo.m zXhXk.i.s.C.D.Z.XXoXOXoXoXXXXXq.q.H.7.4.7.5.e w w ! 2 3 1 w #.q 0 0 9 8 w w 2 3 h = H I v v K K g g H I T y.y.e.B e.c.1XiXyXi.k * I o.d.:X-Xo.",
"F o.g.g.-X:X:XS *.zXuXk.u.s.D.D.Z.Z.P.+X@X@X+XXXq.P.H.9.5.4.$.w 8 7 2 2 : 1 w r w 0 0 w q q q 1 & * + H I v g H g ; H I K V V m M M e.f.1X0Xz._ l > m g.;X:Xd.S ",
"F o.o.d.g.:X-X{ x.hXyXx.r.s.C.A.Z.Z.Z.oXBXBXOXXXXXXXq.0.7.4.e 8 8 7 7 7 7 7 #.,.r 8 0 w w w w 1 & & $ J H d s x ; H J H d f x x z *.r.i.k.b. ./ j : m -X:X:Xo.Z ",
"F F F F d.g.d.e.S.dXyXv._ u.C.C.A.Z.Z.oX$X%X%X@X+XOXP.0.0.7.$.e w w w 7 7 #.>.K.5.$.e w w q q w w 5 < 2 5 - * J - 5 5 5 J z x M I M *.r. . ._ ~ j X m ;X:X:Xd.A ",
"d.o.F o.d.d.o.B rXqXiXv.^ u.B.C.U.oXP.XXoX$X%X@X@XOXP.q.J.9.7.>.q r r w w >.K.K.7.4.$.r r #.r r r q w 1 2 1 < 2 : < 5 5 J -.*.*.*.I M ^  .X.} _ ` O N :X:X-Xg.o.",
"d.d.d.g.g.g.S x 0XwXeX1X .x.C.U.BX#XoX+XoXoX@X@X@XoXP.q.q.9.J.7.,.,.#.q #.5.K.K.J.7.5.>.>.>.,.,.,.#.#.w w w q 7 1 1 5 5 @.@.&.*.*.*.*.r.x.V.X.V.s.3 m -XO.d.d.d.",
"S d.-X-X;X:XS M 0XwXqXl.i.S.S.D.#X#XXXoX@X$X@X@X+XXXXXZ.P.0.J.J.8.>.,.$.>.4.5.7.J.J.J.7.7.4.>.>.>.,.,.q r $.,.#.q q w q @.%.@.;.*.*.r.t.v.S.V.V.s., m d.o.d.o.F ",
"Z o.;X-X-X;XS ) 0XwX2Xl.k.v.x.V.C.A.Z.OX$X$X@XOXXXXXXX+XXXZ.q.q.0.4.#.$.5.5.7.9.q.H.H.J.9.7.4.5.>.#.#.#.5.5.5.4.$.$.,.#.,.%.%.:.;.r.i.k.rXb.i.X.` # m g.g.:Xg.S ",
"S o.g.g.g.-XA M 0XqX1Xl.k.l.v.x.B.B.Z.+XOXOX+XoX+XOX+XOX+X+XXXH.J.4.#.$.8.7.0.q.P.P.H.J.9.7.$.>.>.#.q ,.5.5.7.6.4.4.4.4.>.>.:.:.s.p.z.0X0Xk.} ~ p # I d.g.;Xg.o.",
"g.d.d.g.g.g.N M v.0X1Xl.l.l.v.v.a.B.A.).+X+X+X+X+X+XXXXX+X+X*Xq.J.4.%.:.8.C.C.A.Z.XXH.0.9.6.$.#.#.q w #.4.6.9.9.7.5.5.7.5.8.:.;.p.x.v.0X1Xk.} i p > I S F g.g.O.",
"F g.;X:X;X-Xc *.v.1X1Xl.l.l.<X1Xx.B.C.Z.XX+X+X+XP.0.6.0.P.0.0.6.7.>.<.C.C.C.C.A.Z.P.q.9.7.7.4.#.r q q r >.7.9.9.9.7.K.K.8.<.:.p.x.b.1X0X1Xk._ i j j I d.d.-Xd.F ",
"F d.-X-Xg.A d m v.0X1Xl.l.l.1XrXb.a.B.C.Z.P.P.0.6.9.0.0.9.6.8.%.:.8.C.S.V.rXD.D.A.Z.q.6.8.9.8.#.#.q q q $.5.7.5.7.7.5.8.<.:.s.x.v.b.1X3Xb.k.^ k p > M -Xg.g.d.o.",
"o.o.o.F Z c f d z.1X1Xl.l.,X1X1Xb.b.V.C.A.I.P.8.8.6.P.8.8.<.<.:.s.S.yXyXqXyXyXS.D.A.A.8.%.8.%.%.#.q #.#.#.>.8.>.$.8.%.%.&.u.p.z.1X0XwX3Xb.k.} b h O B >X;Xg.d.o.",
"S F o.S f s s d v.qX1X,X1X1X2X1X1X0XrXS.D.BXI.2.8.8.8.:.&.;.N.S.S.yXdXpXeXiXyXyXD.D.A.C.8.8.%.@.%.! @.%.%.%.<.@.%.%.:.;.r.p.v.1X1X3XqX0Xb.i.r./ h + T :X:Xg.S A ",
"S S o.N d s = d v.tXtX1X1X1X1XqXtXtXtXyXuXzXS.:.s.B.:.s.u.p.M.yXtXiXaXaXeXaXpXdXuXuXD.C.B.s.:.;.&.&.Q &.&.&.&.&.:.;.a.M.z.c.<X1XqX1X3X0Xv. .~ k h O y.:X:Xd.S Z ",
"S F o.V s = = + z.tXiX1X1XtXqXtXtXiXiXdXdXuXS.a.a.x.x.z.z.M.6XtXiXaXaXeXaXgXfXhXdXuXuXS.x.a.i.u.u.u.r._ u.p.r.u.p.p.k.6X6X1X<X1XtX2Xb.v.v. .b / j - g.:X;XF S S ",
"S F o.f s s = = z.2XqX,X1X2XqXqX6XtXiXgXpXdXyXM.rXv.yXrX1XtXiXsXiXfXgXiXgXfXfXfXfXfXhXyXrXrXk.z.v.M.t.t.v.tXk.c.c.6X<X2XiX7X1X2XtX1Xv.v.x.} / / j h d.-X;X-Xg.o.",
"F F o.c f d - *.i.1X2X1X,Xl.1XtXtX2XiXiXpXiXfXgXgXgXiXgXiXgXfXfXsXfXsXpXdXhXhXjXjXfXpXpXtXiX1X6X6XtXc.6XtXiXtXtX7XgXiX2X2XiX2X2X2X1Xf. .} i ~ ! # h S g.:X;Xg.O.",
"O.o.d.N c f J =.z.l.<Xc.| | f.c.<X<X6XgXpXiXiXfXfXjXgXfXgXjXfXjXpXgXsXfXsXjXfXfXfXgXgXpXpXpXiXiXiXiX2XiXiXfXsXfXgXgX4X4X2X2X2X2X1X1X} ^ ~ p k ! O - S ;X:Xd.o.o.",
"S F d.N f f x *.p.t.| A n { f.f.c.j.f.h.1XiXiXgXgXfXfXsXgXgXaXfXgXaXfXaXfXfXfXjXfXfXfXpXiXiXiXiXiXiXgXiXiXsXaXgXiXiX7X2X2X2X2X,Xv.v.} b ^ b ~ =.> + d.:X:Xg.o.F ",
"S F d.S f f f h } { n n ^ e.{ { t.t.f.c.c.1XiXfXgXaXfXiXiXfXfXaXfXfXgXgXfXiXfXfXfXaXgXiXiXiXiXiXiXiXgXeX2XpX4X4XiX7X6X1X1X1X1Xl.k.t.b p ~ _ _ ;.Q h g.:X;X-Xd.F ",
"F d.-Xo.f f f C r.{ a a n e.B n n n { t.f.h.2XiXiXeXiXgXiXiXfXsXgXjXgXgXfXaXaXsXaXiXaXgXiXiXiX2XiXiXiXiXtXiXiX7X7X6X<Xc.l.k.z.t.t.) ~ k / =._ / @.x d.g.-X-Xg.d.",
"F g.:XS f f f h r.x. .a b ^ n a a n D { { | h.1XiXfXiXeXfX4XgXfXfXjXfXfXiXgXaXiXiX4X4XaXiXgXiX2X7XtX2XiXiXtXtXtX6X<Xc. .t.z.{ n ^ / / ~ / / / / l > d.;X:X:X-XO.",
"F g.;XN s f f d =.k.k. .) r.) b n | { { { | h.l.1XiXiX7XgXsXsXfXaXfXgXiXiXsXiXiXeX4X2XiXiXiX2X1XtX1X6XiX6X6X<X6Xc.t.t.n n ^ n b ~ / / b k ~ / l O ; g.:X:X:X-XO.",
"d.d.d.c s s s + / } X.i.t.t.t.t.i.k.t.t.{ A | +.f.1X6XtX2XiXiXiXeXiXiX2XtXiXiX2X2XeX2X7XiX2X1X1X7X<XtX6X1Xv.l.k.f.{ { b b k ^ ^ ^ / / / k ! Q > X = -Xg.d.;Xg.O.",
"o.g.g.V s s s + j ` X.i.} } t.t.t.k.z.k.{ n A D | l.c.<X1X1X,XtXeXiXqXtX1X1X2X2X2X2X2X7X6X1X<Xc.<X6Xv.f.l.l.{ { { ^ ^ ) b b ~ ^ _ _ / / k h j @ . - g.g.o.d.d.O.",
"F g.:XZ s s s O > ! ;.=.~ ) } } ^ ) p.i.t.{ n n ..f.l.k.c.k.l.1X2X2X1Xc.+.k.c.1X,Xl.<X<X<X<X6Xc.c.M.z.{ t.t.n n n { ) r.r.=.~ ~ _ =.=./ k j @ . 6 c g.g.g.F o.O.",
"d.g.-XA f f s % X , Q Q k ` _ _ b p M *.^ ) ) b ^ } t.t.{  .k.v.v.l.k.| ..| k.c.l.l.l.l.k.z.z.t.z.t.t.{ { ^ n n ) e.) =.r.=._ ~ / / &./ z z O . o | :X:X:Xg.d.o.",
"o.g.;XA f f s % $ : > : j ( ` ` k # > / b ~ b i ) } { ^ { { { t.k.z.} n { { t.t.t.f.f.t. .{ { { t.e.{ n ^ ^ ^ n e.*.^ _ _ ~ b M / j k z j l : $ d O.-X:X:X-Xg.O.",
"F g.:XS f f d $ $ $ . o : Q Q ( Q > > j Q / / p ~ ^ ) n { n n { t.i.^ b r.p.e.A { { { { { ^ n n ^ ^ b ) b b _ M =.r.^ b b M k z z h # # > , : : m o.o.-X:X-Xg.O.",
"o.d.g.o.c f f + . $ .   $ 2 l ! l : : > ! &./ k k p ^ r.r.b i ^ ^ ) k k / r.r.^ n n n { } { n a b ^ b _ i b ) / _ r.*.k h h z z j , @ O * % % d A d.g.-X-X-Xd.F ",
"o.d.-Xg.A f s s ; < % . % < 2 2 2 : : : 2 @.Q Q z p k =.p.) i b k k z h k M *.~ b b ^ ) } } r.b b b b / i b ~ / k / / k # + 2 l > @ $ $ % . o N S d.-X-Xg.-Xd.F ",
"F g.:X:Xo.s s s s - = + = ; * < 1 & & $ $ : , ! l k k / u.u.i k k k / k k p k ~ ) _ r.~ b r.p.p._ k k b k ~ / &.# j ! j : o X : @ $ $ % . % f S F d.-X-X-Xg.d.o.",
"o.g.;X-Xd.c = s f f f f f d = - < * : * + + O : > @./ / _ C.Q j k / &.=.! i p ` a.a.a./ p _ a.N.u._ / k i ~ Q -., # , , : . . $ % X % % * m S g.g.g.g.-X;X;Xg.o.",
"o.g.;X-Xg.F f s f f f f f f d d d - d d f s = O * l Q ;.( s.( h l &.-.;.( ~ i ;.s.u.;./ p k *./ -.u.*.k i k l &.l : 3 : %     . X - x m A o.-X;X;X;X-X-X-X;Xg.o.",
"o.g.:X:X:X:XO.V f f s s f f f f f f d f f s = = $ : ! &.j j j # > Q ( ;.( ` _ s.u.! Q j j j l j j Q / k j ! , : : : 1 &     % x A o.g.-X:X:X:X:X:X:X:X-Xg.g.d.o.",
"S o.-X:X;Xg.-XO.V f s s f f f f f s s s f f f s * X 4 > , @ , @ @ , l ( Q ( ( ( ( Q j # > # j @ # > j l ! ! 3 &   $ & % o m o.F g.:X:X:X:X:X:X:X:X;Xg.-X-Xd.F S ",
"F d.-X:X-Xo.-X;Xd.Z f s s f f d s s s s f f f s d + o : 7 4 : $ X : : @ j l j j l j 3 : @ @ > @ O @ : > l l 1 %   . * h A g.-Xg.g.:X:X:X:X-X-X;X:X-Xg.;X:Xg.F S ",
"o.g.:X:X;Xg.d.-X:Xg.F V f s s s s f f f f s s f f s + * : < $ . . $ $ o : 3 > , , > 3 2 : : : : : : X X 3 : $ o h N S g.g.o.o.;X:X-X:X:X:Xg.g.;X;X;X:X:X:X;Xg.d.",
"o.g.;X;X-Xg.g.-X-X-Xg.o.F A V f f f f s f f f f d s d ; & & . . 6 o . . $ < $ : : : : < : & & < 5 < % . X % d N g.-Xg.g.-X-X-X;Xg.g.;X:X:X-Xg.;X:X:X;Xg.g.:X-Xg.",
"S o.g.-X-X-X;X;Xg.;X;Xd.-X:X:Xg.o.S Z N S g.A f s s f d * * = d f d s = * * o X < 2 < & & % . % % . % - c N d.-X-X:Xg.d.g.;X:Xg.d.d.-X:X:X;X-X:X:X;Xg.o.d.:X-Xo.",
"F o.g.g.-X:X:X:X:X:X:X:Xd.d.:X;X-X:X:X-X-X-Xg.Z f f d f f d f f f d s f f d = + * * : $ o o * = = f S g.o.d.:X;X-X:X:X-X-X-Xg.d.d.-Xg.;X:X;X;X:X;Xg.g.-X;X:Xd.S ",
"F o.o.d.g.;X-X;X:X:X:X-Xd.g.:X:X:X:X;X;X:X-Xg.d.o.Z f s d s s f f f s f f f s s s = = = s d d f N d.;X-Xd.g.:X:X:X:X;X;X:X-Xg.d.g.;Xg.g.g.g.g.:X:X;Xg.-X;X:Xo.Z ",
"F F F F d.g.g.-X:X:X-Xd.g.-X:X:X:X-X-X-X:X:X-Xg.-X-XF A V c c V c c c c c c f g f f s s s f f Z g.:X-Xd.g.-X:X:X:X-X-X-X:X:X-Xg.-X;Xg.g.d.d.g.;X:X:X-X;X:X:Xd.A ",
"d.o.F o.d.d.g.-X;X;X;X-Xg.g.;Xg.d.d.d.g.:X:X;X-X-X:X:X:X-X;X;Xg.o.d.:X:X:X-X;X:X-XF N N N Z F g.;X:X;X-Xg.g.;Xg.d.d.d.g.:X:X;X-X-X:X:X:X-X;X;Xg.o.d.:X:X:X-Xg.o.",
"S S F o.d.o.o.o.O.o.o.d.d.d.d.d.d.o.d.d.d.g.g.g.g.g.-Xg.g.g.g.d.S S g.g.o.o.g.-Xg.o.F o.d.o.o.O.O.o.o.d.d.d.d.d.d.o.d.d.d.g.g.g.g.g.g.g.g.g.g.d.S S g.g.o.o.F S ",
"Z S F F d.d.F S S S S F o.F S o.d.o.d.o.S S o.d.d.F F F o.F o.d.S S o.S Z A S o.F F F F d.d.F S S S S F o.F S o.d.o.d.o.S S o.d.d.F F F o.F o.d.S S o.S Z A A Z "
};
