/* XPM */
static char *wplayer1_removebg_preview1741003220[] = {
/* columns rows colors chars-per-pixel */
"80 80 214 2 ",
"   c #030402",
".  c #0C0303",
"X  c #020802",
"o  c #0B0E03",
"O  c #03050C",
"+  c #030A09",
"@  c #0B0B0B",
"#  c #140200",
"$  c #1B0100",
"%  c #140C0B",
"&  c #1A0B0C",
"*  c #0D120C",
"=  c #0A180C",
"-  c #191606",
";  c #1C130B",
":  c #040911",
">  c #0B0D14",
",  c #0C0A1A",
"<  c #140A13",
"1  c #1A0D1F",
"2  c #021314",
"3  c #0D1412",
"4  c #081819",
"5  c #131315",
"6  c #1A1A12",
"7  c #12121A",
"8  c #131B1D",
"9  c #191B1B",
"0  c #250100",
"q  c #2B0000",
"w  c #240B02",
"e  c #290E07",
"r  c #320200",
"t  c #3A0202",
"y  c #3A090A",
"u  c #251C0D",
"i  c #35150C",
"p  c #360B12",
"a  c #2A1914",
"s  c #3A1313",
"d  c #371A14",
"f  c #1C2A0F",
"g  c #172714",
"h  c #262100",
"j  c #34290A",
"k  c #21390F",
"l  c #242516",
"z  c #3B2818",
"x  c #091C20",
"c  c #1B1225",
"v  c #141D23",
"b  c #1C1D24",
"n  c #182428",
"m  c #27272B",
"M  c #352521",
"N  c #232E30",
"B  c #233436",
"V  c #38373A",
"C  c #430201",
"Z  c #4C0300",
"A  c #4C0C03",
"S  c #47090E",
"D  c #550201",
"F  c #5C0000",
"G  c #5C0C05",
"H  c #4C1002",
"J  c #471805",
"K  c #561208",
"L  c #5C1C0C",
"P  c #4D1D13",
"I  c #531316",
"U  c #650200",
"Y  c #6B0300",
"T  c #6A0902",
"R  c #6B090F",
"E  c #7C0400",
"W  c #730905",
"Q  c #7E0C02",
"!  c #6D1100",
"~  c #691C00",
"^  c #781400",
"/  c #721C09",
"(  c #6C1616",
")  c #781918",
"_  c #4D2304",
"`  c #5E360C",
"'  c #462C16",
"]  c #552916",
"[  c #553918",
"{  c #692616",
"}  c #7B2713",
"|  c #663617",
" . c #4F3330",
".. c #4A353C",
"X. c #792926",
"o. c #623635",
"O. c #2A4A16",
"+. c #3F4A1B",
"@. c #2E5218",
"#. c #345A19",
"$. c #37631B",
"%. c #39661B",
"&. c #3D6D1D",
"*. c #3F711F",
"=. c #314429",
"-. c #3D6E20",
";. c #3F7320",
":. c #494A16",
">. c #56471A",
",. c #495B1C",
"<. c #5A571D",
"1. c #6F4610",
"2. c #42661D",
"3. c #416C1E",
"4. c #41751F",
"5. c #43791F",
"6. c #5D4624",
"7. c #5C5929",
"8. c #534E30",
"9. c #724120",
"0. c #765728",
"q. c #655834",
"w. c #7E5934",
"e. c #417620",
"r. c #457C21",
"t. c #487F21",
"y. c #726B3F",
"u. c #3A3D46",
"i. c #413740",
"p. c #6E6441",
"a. c #7C6E54",
"s. c #860000",
"d. c #830C00",
"f. c #890C02",
"g. c #910200",
"h. c #970808",
"j. c #8C1200",
"k. c #881508",
"l. c #821B0C",
"z. c #991205",
"x. c #820F14",
"c. c #891E18",
"v. c #941619",
"b. c #95191C",
"n. c #AA1508",
"m. c #AE1811",
"M. c #9A2409",
"N. c #8A3E0C",
"B. c #9D3702",
"V. c #8C2215",
"C. c #8B3616",
"Z. c #963618",
"A. c #A32105",
"S. c #B52C08",
"D. c #B63A0C",
"F. c #A82C16",
"G. c #B7351A",
"H. c #852F20",
"J. c #873724",
"K. c #9A3828",
"L. c #B32C25",
"P. c #AA3429",
"I. c #CE3A36",
"U. c #94401E",
"Y. c #89572A",
"T. c #90582E",
"R. c #9D483D",
"E. c #B74F32",
"W. c #89633C",
"Q. c #A57037",
"!. c #C3441A",
"~. c #D5512C",
"^. c #CC4934",
"/. c #915942",
"(. c #AA5549",
"). c #996945",
"_. c #937B45",
"`. c #A57759",
"'. c #B07C64",
"]. c #DF604D",
"[. c #DC7344",
"{. c #EF7546",
"}. c #478022",
"|. c #498423",
" X c #4C8A24",
".X c #9F875B",
"XX c #A9864A",
"oX c #B38049",
"OX c #A98853",
"+X c #988A67",
"@X c #BA9963",
"#X c #B19976",
"$X c #BCA875",
"%X c #C38B5C",
"&X c #C99D68",
"*X c #CE9370",
"=X c #C9A36B",
"-X c #CBAC6C",
";X c #CEB16C",
":X c #C6A777",
">X c #C8AD7E",
",X c #D4A675",
"<X c #D3AA7A",
"1X c #D3AE7A",
"2X c #CAB379",
"3X c #D6B17A",
"4X c #E7AB75",
"5X c #C3A785",
"6X c #D2AE8A",
"7X c #CAB687",
"8X c #D5B985",
"9X c #CBBB98",
"0X c #D3B590",
"qX c #D7C2A1",
/* pixels */
"@.$.4.&.*.*.*.*.*.*.&.4.5.5.4.*.*.*.5.4.*.&.*.5.r.5.5.5.;.-.&.&.*.e.e.*.4.5.e.&.$.%.4.&.&.4.*.*.*.&.&.4.e.e.r.*.*.5.5.*.&.&.*.5.e.4.5.4.*.&.-.*.*.5.e.*.&.r.&.#.",
"%.&.4.4.e.e.*.*.*.*.4.5.5.4.5.*.*.;.5.*.&.*.5.e.*.*.*.*.-.e.r.r.r.e.4.*.&.r.r.r.e.e.4.4.e.e.*.*.4.*.4.5.e.e.5.*.*.5.*.*.*.*.4.5.;.;.*.*.*.e.e.r.r.e.4.*.*.r.4.%.",
"5.5.4.5.}.r.*.&.*.5.5.r.r.r.r.e.;.r.;.;.*.5.r.*.;.*.&.*.e.t. X X X}.4.&.*.r. X X X|.e.r.r.r.;.*.*.5.5.}.r.r.e.e.;.e.*.*.*.5.r.5.e.;.-.-.e.}. X X|.|.4.&.4.r.5.5.",
"4.5.|. X|.}.4.4.5.5.5.}.|. X X X|.|.*.;.5. X X|.}.}.}.|.|.}.|.|.|.|.|.5.e.}.|.}.|.|.|.|.|.}.5.4.5.4.4.}.|. X X X X}.5.*.r.|. X|.}.r.|.|.|.t.|.|.|.|.|.e.4.|.5.3.",
"3.4.|.|.|.|.|.|.|.5.r.}. X X X|.|.|.}.}. X X X X X X X X|.}.r.t.r.r. X|.r.}.|.|.}.}.}.}. X X}.}.|.5.r.}. X X X|.|. X}.|.|. X X X|. X X X|.t.r.t.r.r. Xt.r.r.r.4.",
"4.4.4.5.|. X X X|.|.|.|. X|.r.r.t. X X X X X X X X X X X|.e.e.r.3.-.|. X|.r.}. X|.r.e.e.t. X X X X|.|.|. X Xr.r.}. X X X X X X X X X X X|.r.e.r.*.4.|. X|.r.e.e.",
"&.*.4.5.r.r.r.r.e.e.e.e.e.r.|. X X|.}.r.e.r.}.|.|. X X|.|.5.5.e.*.*.r. X|.r.e.e.}.e.;.e.r.t.r.r.5.5.e.e.e.r.|.|. X|.}.e.e.}.|.|.|. X X X|.e.e.e.&.*.t. X Xr.&.$.",
"&.3.4.5.r.4.4.e.4.*.;.*.*.;.r.|.|.}.r.r.e.e.e.5.r. X X X X}.}.}.r.e.|. X Xe.4.4.r.r.;.t.r.;.;.;.*.*.*.*.*.;.r.|.|.}.r.e.r.e.e.e.t.|. X X X|.t.|.r.e.|. X Xe.&.$.",
"&.*.5.}.r.*.;.*.*.;.4.*.*.*.;.e.}.}.}. X X5.4.*.5.|. X X X X X X|.|.|. X|.;.;.r.r.r.e.t.e.;.;.;.*.*.*.*.*.*.*.e.|.}.|. X X}.*.*.e. X X X X X X X|.|. X X|.*.&.&.",
"&.*.4.5.5.e.*.*.*.*.*.*.5.e.r.}. X}. X X X Xr.|.|. X X X|.|.|.|.r.e.e.|. X}.|. Xr.e.;.r.r.r.;.;.*.*.*.*.*.r.e.}.|.}.|. X X|.}.|. X X X X|.|.|.|.r.e.e.|. Xr.r.4.",
"*.*.5.}.|.}.e.*.e.r.r.e.r.}.|. X X}. X X X|.|. X X X X|.5.|.|.|.e.%.-.r. X}. X X}.r.e.}.|.}.;.;.e.r.r.e.}.|.|. X X|. X X X|.|. X X X X|.r.r.|.|.e.-.&.r. X|.r.5.",
"4.4.e. X X X}.e.|.|. X X|.}. X X X}. X X5.}. X}.|. X X|.4.|. X Xe.&.4.|. X;.t.|. Xt.e.|. X Xt.r.}. X X X|.|. X X X}. X Xr.}.|.}.|. X X}.e.}. X Xe.%.*.|.|.e.4.4.",
"*.*.4.5. X X X}.e.e.|. X}.}. X}.r.|. X X|. X X|.|. X X X|.|. X X|.t.|. X Xr.t.}.}.r.;.t. X X X}.*.e.|. X}.r. X|.r.|.|. X|. X X}.|. X X X|. X X X|.t.|. X|.r.e.*.",
"&.*.5.|.|. X X|.4.;.r. X}.r.|.}.r.|.|.r. X X X|.|.|. X X X X X X|.|. X X|.}.|.}.r.r.r.r.|. X X}.4.;.}. X}.r. Xr.5. X}.r. X X X}.}. X X X X X X|.|. X X X|.|.e.4.",
"4.5.|.|. X X|.|. Xr.r. X|.r.|.|. X|.e.-.r.|. Xe.e.r.|.|. X X X}.t.r.}.}.}.|. X X|.}.|. X X X}.}. Xr.r. X}.}.|. X X|.;.*.r. X Xr.e.}.}. X X X X}.r.r.t.t.}.}.r.e.",
"4.5.|.|.|. X|. X X X|.}.|.|. X X|.r.4.-.e.r.r.3.4.r.t.t.e.r.|.|.|.}.}.|.|. X X X}.|. Xt. X X|. X X X|.|.|.|.|. X X5.*.;.;.r.r.;.;.e.r.r.e.t.|.|.|.}.|.|. X X}.5.",
"4.5.|.e.t. X|.|.|. X|.e.t.}.|. X Xr.e.e.;.e.e.e.r.r.r.r.e.r.|. X X X X X X X X X}.|.|.e.r. X|.|.|. X|.r.r.|. X X|.r.4.4.e.e.r.e.r.r.r.r.e.r.|. X X X X|. X Xr.4.",
"5.5.e.e.4.r.r.|.|.e.;.;.;.e.|. X X|.t.t.}.}. X X X X|. X X X X X X X Xt.e.}. X X X|.e.;.;.}.r.}.|.e.;.;.-.e.|. X X X|.t.r.|. X|. X X|. X X X X X X X Xr.e.|.r.r.",
"4.r.t.e.e.e.e.r.r.;.e.t.;.;.}.|. X X|.t.e.t.|. X X X X|.t.|.|. Xr.e.}.e.;.e.}. X|.|.}.e.;.e.e.r.r.e.e.r.;.*.}.|. X|.|.|.r.t.|. X X X X|.t.|.|.|.r.r.}.r.4.e.e.5.",
"&.r. Xr.r.r.r.r.r.e.r.}.;.;.}. X X|. X Xt.t.}. X X X X|.e.r.|.|.e.e.r.t.t.;.t. X}.|. X}.r.t.r.r.e.e.r.}.e.e.}. X X|.|.|.r.r.|.|. X X X|.e.t.|.|.r.4.}.r.r.4.4.4.",
"e.r.}.|. X X|.t.}.e.;.;.-.r. X|.}.t.|. X X X X}.|.|.|. X X X X X X X X X|.t.|. X X|.|. X X|.|.}.}.e.;.;.*.e. X|.t.t.|. X X X Xt.}.|.|. X X X X X X X X X Xr.e.5.",
"e.r.|. X|. X|.|. X|.}.e.r.}. X X|.t.}.|.|.}.t.|.|.|.}.}.|.|.|.|. X|.|. X X|.|. X|.|.|.|. X X|. X X|.r.r.r.}. X X|.r.|.|.|.|.t.|.|.}.}.}.|.|.|.|.|.|.|. X Xt.r.5.",
"*.}. X|.}.|.|. X X X X X X X X X|.;.e.}.r.e.e. X Xr.}.e.;.e.r.r.e.e.e.|. X|.|. Xt.|. X|.}.}.}. X X X X X X X X X|.e.r.r.e.4.e. X Xt.r.r.e.e.r.r.r.e.e.|. Xt.r.5.",
"4.5.t.|.|. X}.t.}.|. X X X X|.}.r.r.e.e.e.e.|. X|.;.e.r.r.e.r.r.e.e.r.|.}.|.}.|.|.|.t.|. X X}.}.t.|. X X X X X}.r.e.e.e.e.r.|. X|.e.e.r.r.e.e.e.e.e.r.r.|.|.e.e.",
"4.5.|.|.|.}.}.r.r.t.t.e.|. X|.t.t.}.r.e.r.}. X X|.;.;.e.r.;.*.*.-.;.}.|.r.|.}.|.|.}.}.|.|.}.}.r.r.t.t.r.|. X|.r.r.|.r.e.r.|.|. X}.;.*.e.e.e.5.*.&.e.|.}.}.}.5.*.",
"*.5.|. Xr.*.e.}.}.}.e.;.t. X}.|.|. X|.|. X X|. X|.;.*.;.*.*.*.*.-.e.|.}.}.r.|.|.}.|. X Xr.;.;.}.}.t.e.;.t. X|.|.|. X|.|. X X X X|.e.e.*.*.;.*.*.*.4.}.|.}.}.5.*.",
"*.r.|.}.e.*.*.5. X X X|.|.|.t.|. X X X X X X|. X X|.e.*.*.*.e.5.r.r.r.|.|. X|.|.|.|.|.}.;.;.-.e. X X|.|.|.|.}.|. X X X X X X X X X|.4.*.*.*.e.5.e.r.r.}.|.|.}.5.",
"4.r.|.|.}.e.*.r. X X X|. X|.}. X X X X X X}.r.|. X X}.r.*.}.|.|.|.|.|.}.|.|. X X|. X|.}.}.e.;.t. X X X|. X|.}.|. X X X X Xr.r.|. X X}.e.e.r.|.|. X|.|.}.|.|.}.5.",
"4.5. X X X X X|. X|.r.e.}. X X X X|. X|.}.;.;.|.|. X X X X|. X X X X X}.r.}.|.|.|.|. X X X X X|. X|.r.e.}. X X X X|.|.|.|.r.e.}. X X|. X X X X X X X X|.r.}.e.*.",
"&.5.}. X|.r.|. X}.}.t.e.}. X X X}.t.;.r. X X X;.r. X X X X X X X X|.t.|.t.e.e.r.r.}.}. X|.r.|. X}.|.t.e.|. X X X}.}.e.r.|.|.|.e.r. X X X X|. X X X|.r.}.|.e.*.%.",
"*.5.|. X}.5.}.|.|.}.r.e.t. X|.}.r.t.r.r. X X|.r.}. X X X X}.|. X|.|.t.|.|.r.r.r.}.}.|. X}.e.}.|.|.}.r.;.}.|.|.}.r.}.r.r.|. X|.r.r. X X X X|.|.|.|.|.r. X Xr.*.*.",
"4.r. X X|.r.5.}. X}.;.e.e.e.e.e.r.|. X X|.;.;.|. X}. X X Xe.e.|.|. X X X X|. X X|. X X X|.}.r.}. Xt.;.e.5.e.e.e.r.|. X X|.4.4.|. X|. X X X5.r.|.|. X X X X X5.5.",
"*.}.|.|.|.5.}.|.}.}.r.;.}.|.t.}.|.|.|.r.r.|.|.|.}.}.|. X X}.r.|. X X|.r.r. X X X|.|.|.|.}.r.}.}.|.|.5.4.}.|.5.}.|.|.|.r.t.|.|.|.}.e. X X Xt.r.|. X X|.r.r. X|.5.",
"*.*.}.|.}.}.|.|.}. X|.;.}.|. X|.|.|.r.e.|.|. Xr.5.;.|.|. X|.}. X X|.r.4.e. X X X}.r.r.}.}.|. X|.5.|.|.e.|. X X|.|.|.r.4.r. X X5.e.r.}. X X}.}. X X|.}.;.*. X}.*.",
"*.*.}.5.|. X X X X X X Xe.r. X|.t. X|.|.|.t.r.e.;.|.}.|. X|.|. X|.r.r.r.|. X|.r.}.}.5.r.|. X X X X X X X5.e. X|.|. X|.|.|.t.5.4.e.}.}.|. X X|. X|.}.}.}.|. X5.&.",
"*.*.*.*.}.|.|.|. X X X}.r.r. X X X X|.|.|.|.r.e.r.|.r.r.|.;.}. X X X|.|. X Xr.e.}.r.5.e.5. X|.|. X X X}.5.r. X X|. X|.|. X|.r.r.r.|.t.e.}.r.r. X X|.}.}. X X*.$.",
"*.*.*.*.;.}.r.|. X X|.;.e.|. X|.|.|.r.|. X X}.r.|.|.e.e.;.;.}.|. X X|.|.|.|.r.e.}.r.*.*.e.r.r.}. X X|.e.r.|. X X X|.t.t. X Xt.r.}. Xt.e.e.e.r.|. X X|.}. X X*.&.",
"5.*.*.5.;.;.5.|.|. X|.|.t.}.|.t.e.r.e.r.;.o @ X > 9 m , v =. Xr.4.*. X X X|.|. X Xr.*.*.e.;.r.|.|. X|.}.r.}.|.r.e.e.e.r. X X|.|.}. X X X}.|. Xt.*.5. X X X}.}.*.",
"4.5.5.5.}.}.r.}.}.}.}.}.}.}.t.}.r.5.-.g X   5 b x b u.i.n n N }.*.4. X|.5.r.|. X X}.*.r.}.}.r.}.}.}.}.}.}.}.r.}.t.t.t.|.|.|.|.|.|.|. X|.|.|.|.|.4.4. X|.5.5.5.5.",
"*.5.}.|.|. X}.}.r.e.r.|.|.}.t.|. X}.O.= 3 5 5 O b b u.m m V a z l $.|.r.4.e.}.|.}.}.|.|.|. X}.}.5.5.5. X|.|.}.|. X|. X|.r.r.|. X X}.|.|.|.}.|. X5.5.|.5.*.5.5.*.",
"$.4.|.|.t.|.|.|.|.r.r. X|. X|.|.|.O.f n + + @ n B u.u... .e P A S p r.t.}. X|.}.*.5. X}.}.|.|.|.}.r.r.|. X|. X|.|.|. X|.t.t.|. X X|. X X|.r.t.}.|.|.|.|.|. Xr.&.",
"&.4.t.t.r.}.r.r.r.r.r.|.}.}.t.t.e.O.9 @ > 8 v n 4 8 ..p s H R.c.c.c.L 3.r. X X|.}.5.r.r.}.}.e.r.r.r.r.|.}.}.}.t.e.}.}.e.e.r.}.}.r.e.r.e.e.}.|.|. X|.r.e.5.|.}.4.",
"5.4.5.5.}.r.*.&.4.e.e.}.r.r.r.e.e.g > O c v 4 2 n u.p S G K.k.I.m.I.L.L.9.;.|. X X}.;.}.}.r.*.*.;.;.r.t.t.r.e.e.e.r.;.;.;.e.r.e.e.;.-.-.e.t. X X X}.4.&.4.r.5.5.",
"*.5.|.|.|.}.4.4.e.4.5.r.|. X X|.|.#.  b > x O N N a S R ) E g.m.n.m.h.m.m.H.|.|.}.}.|. X|.r.e.4.r.;.;.t.|. X X X|.}.;.;.r.|. X|.|.r.|.|.|.|.}.|.|.|.t.r.4.}.5.*.",
"*.e.r.}.|. X|.}.}.r.r.|. X X X X|.%.b 7 8 O v N = w Z x.c.E z.s.g.f.j.s.E x.7.|.}.}.|.}.|. X|.}.|.r.r.|. X X X|.|. X}.|. X X X X|. X X X|.t.r.t.r.r. X|.r.}.e.4.",
"4.4.e.e.}. X X X|.|.|.}. X|.r.r.|.|.5 7 O b v 4 9 s R b.U Q d.Q Y ^ M.d.Q T >.|.|.r.4.e.r. X X X|.|.}.}. X Xr.r.}. X X X X X X X X X X X|.r.e.r.-.*.|. X|.r.e.5.",
"&.*.4.r.r.r.r.r.r.e.e.e.e.r.|.|.|.|.: > , b < % a r W b.U } Z Z D T V.Y F S j 5.r.r.4.e.r.t.r.r.r.e.e.e.;.r.}. X|.|.}.e.e.r.}.|.|. X X X|.e.e.e.&.4.r. X Xr.*.%.",
"&.&.e.}.r.4.4.e.*.*.;.;.;.e.r.|.|.}., O , 7 @ % e Z b.v.F Z /.'.%Xt G R.(.] ; 4.r.e.+.}.r.4.e.e.;.;.;.;.;.;.r.|.|.|.r.r.e.r.e.e.t.|. X X X|.r.t.r.e.|. X Xe.%.$.",
"&.4.4.5.r.*.*.*.*.*.4.*.*.*.*.e.|.}.@., c > * ; y D v.f.D H ] - 0X#X'.).`.] 0 r ` E.w.}.r.*.;.;.;.;.;.;.;.;.*.r.|.}.|. X X|.*.*.e. X X X X X X X|.|.|. X|.*.&.*.",
"&.&.5.5.r.e.*.*.*.*.*.&.e.r.e.}.|.}.|.n 1 < * ; t ( b.E C.W.#X- y.5X5XOX6X| K l.F.!.Y.5.5.e.;.;.;.;.;.&.e.r.;.}.|.}.|. X X|.}.|. X X X X|.|.|.|.r.e.e.|. X}.e.*.",
"3.4.5.5.|.}.4.e.e.r.r.r.r.}.|. X X|.|.$.< < 5 & r ( V.Z.%X7Xq.o 7.>X0X$ 6X| T A.S.~.Y.}.|.}.;.;.e.r.e.e.e.}.|. X X|.|. X X|.|. X X X X|.t.t.|.|.;.-.-.t. X|.}.e.",
"5.5.5. X X Xr.r.}.|. X X|.|. X X X}. X|.. 5 8 % t ( V.Z.=X$X.Xh q.$X0Xq 9Xr T M.D.[.0. X X Xr.e.|. X X X|.|. X X X|. X Xr.}.|.}.|. X X}.;.}. X Xe.-.;.|. Xe.*.e.",
"&.4.4.t.|. X X}.e.e. X X}.}. X}.}.|. X}.X x 4 . t ) V.C.3X$X#Xw XX8X7X:.qX# C H.U.w.5.|. X X X}.e.e.|. X|.t. X|.r.|. X X|. X X}.|. X X X|. X X X|.r.|. X Xr.;.*.",
"&.*.5.|.|. X X|.4.;.r. X}.r.|.}.5.|.|.O.X 2 2   r ) V.Z.3X2X>X8X2X-X2X7X9X# 0 0 :.5.5.}.|. X X|.4.4.r. X}.r.|.}.5. X}.r. X X X}.}. X X X X X X|.|.|. X X|.|.r.;.",
"*.5.|.|. X X|.|. Xr.}.|.}.}.}. X X|.4.O 2 2 + % q G c.Z.,X3X-X-XXX=X_.7X8.  z # }.}.}. X X X|.|. Xr.r.|.|.r.}. X X|.*.*.r. X Xe.e.r.|.|.|. X Xt.t.r.r.}.t.}.t.e.",
"*.5.|.|. X X|.|. X X|.}.|.|.|. X X5.3.. % % $ t q Z ) C.oX;X;X-X@X0.OX+Xo g    X}.|. X}. X X|.|. X X|.|.|.|.|. X X5.;.*.;.r.}.;.;.e.t.t.e.|.|.|.|.}.|.|.|. Xt.;.",
"*.}.|.e.r. X|.|. X X}.r.r.|.|. X|.5.5.& 0 0 Y K.D D T U.XXOXOX>X5X7Xa..   6 o |.|.|.|.e.t. X}.|.|. Xt.r.r.t. X X Xe.5.4.4.4.e.e.e.r.t.r.e.r.|.|. X|. X X|. Xr.5.",
"e.e.e.;.;.r.t.t.|.e.;.;.;.e.|. X X X5.q H C.G.~.Z.F ^ F 1.1.w.w.J [ .   o 9 k  X|.t.e.;.;.t.t.}.|.e.-.e.e.e.|. X X X|.5.}.|. X X X|.|. X X X X X X X Xr.e.|.}.5.",
"4.r.t.;.e.e.e.r.r.e.e.r.;.;.t. X X|.5.{ M.A.D.{.f.G.^ Y ~.~ 0 r C H $   - X |. X|.|.}.e.e.e.r.r.r.e.e.r.-.4.r. X X X|.|.r.r.|. X X X X Xt.|.|. Xr.r.|.r.4.r.e.5.",
"&.r. X}.t.r.r.r.e.e.r.|.e.;.t.|. X|.|./ M.!.B.B.j.F.^.j.j.E.J.C (./ 0.p.X @.}.|.|.|. X}.r.e.t.e.e.e.r.r.e.e.|.|. X|.|.|.r.r.}. X X X X|.e.t.|.|.r.4.r.r.r.*.4.5.",
"e.r.}. X X X|.|.}.e.*.e.-.e.|.|.t.t.|.{ N.N.4X,XC./ F.G.g.~.^.f.].T Q.:X6.%.}. X X|.|. X X X|.}.}.e.;.;.*.4. X X|.t.|. X X X X|.t.|. X X X X X X X X X X|.r.r.4.",
"e.}.|. X X|.|.|. X|.r.r.r.|. X X|.r.t.<.T.=X,X,X*X} l.j.F.F.F.d.P.! Q.;X[ 4. X X|.|.|.|. X|. X|. X|.}.e.r.|. X X|.r.t. X|.|.r.|.|.t.t.t.|.|.|.|.|.|.|. X X}.r.5.",
"4.5. X|.|.|.|.|. X X X X X X X X|.e.r.,.).=X=XXX<X_ r t Z A K t r 9.&X@X7.}.|. X|.|.|.|.}.}.|. X X X X X X X X X|.4.r.r.e.4.e. X Xt.r.e.e.e.r.r.e.e.5.|. X|.5.5.",
"5.5.5.}.|. X|.r.|.|. X X X X|.|.r.r.e.3.W.XX1X0.W._ 0 r y y o.o.w ' [ :.%.}.|.}.|.|.t.|. X X}.t.}.|. X X X X|.}.r.e.e.e.4.r.|. X|.e.e.r.r.e.e.e.e.e.r.t.|.|.5.*.",
"4.5.r.|.|.|.r.r.r.t.r.r.|.|.|.t.r.}.t.e.,.+X5X] J L L C t t r 0 p ; f |.t.t.}.|.|.}.}.|. X}.r.r.}.}.t.r.}. X|.r.r.|.r.e.r.|. X X|.*.*.e.r.e.*.*.&.e.|.}.r.}.e.*.",
"*.5. X Xt.4.e.r.|.|.e.e.t. X|.|.|. X|.|. Xz q.P 0 A ( { X.X.{ ] M ,.t.}.t.t.}.|.}.|.|. Xr.;.;.}.}.t.r.;.t. X|.|.|. X|.|. X X|. X|.e.*.*.*.;.;.4.*.4.}.|.|.r.r.4.",
"4.r.|.r.e.*.-.e. X X X|.|. Xt.|. X X X X X* 6 f a ' y I I I S p a =.r.|.}. X X X|.|.|.|.e.;.;.;. X X X|. X Xr.|. X X X X X X|. X X|.;.*.*.*.e.r.5.r.|.5.|. Xr.4.",
"4.5. X|.r.r.*.}. X X|.|.|.|.}.|. X|. X X Xf + 3 6 l u i d 2.t.|.|.|.|.r.}.|.|. X|.|.|.|.}.;.;.r. X X|.|.|.|.r. X X X X X X}.r.|. X X}.e.5.r.|.|.|.|.|.|.|.|.r.5.",
"*.}. X X X X X|. X|.r.e.|. X X X X|.|.|.}.;.;.|.|. X X|. X X X X X X X|.r.t.|.|.|.|. X X X X|. X X}.r.r.r. X X X X}.|.|.}.e.4.|. X X X X X X X X X X X|.5.}.5.*.",
"*.*.}. X|.r.|. X}.|.r.e.|. X X|.|.}.r.r. X X|.r.}. X X X X X X X X|.r.|.|.r.e.r.t.t.}. X|.r. X X}.}.t.e.|. X X X}.}.e.r. X X|.e.r. X X X X X|. X X|.5.|.|.5.*.&.",
"&.5.|. X}.5.}.|.|.|.r.4.r.|.|.|.r.t.r.r. X X}.r.t. X X X X}.}.|. X|.t.|.|.t.r.t.}.r.}. X}.;.|.|. Xt.r.;.r. X|.r.r.}.r.r.|. X|.r.}. X X X X|.|.|. X|.r. X X5.4.&.",
"*.r. X X|.r.5.}. Xr.4.4.5.5.4.5.t.}. X X}.;.;.|.|.}. X X Xt.r.|.|.|. X X X|. X X X X X X|.r.e.|. Xr.;.e.e.r.;.r.r.|. X X|.4.4.|. X}. X X X5.5.|.|. X X X X|.5.5.",
"*.5. X|.}.5.}.|.}.}.5.4.}.|.5.}.|.|.|.r.r.}.|.|.}.r.|. X Xt.r.|. X|.|.5.5. X X X|.|.|.|.|.5.r.|.}.}.r.;.}.|.5.}.}.|.}.5.r.|.|.|.r.e.|. X X}.r.|. X X|.5.5. X}.5.",
"*.5.}.}.}.}. X|.5. X|.5.|. X X|.|.|.r.e.}. X Xr.e.r.}. X X|.}. X X X}.4.5. X X|.r.}.r.|.}.|.|.|.t.|.|.r.|. X X|.|.|.r.5.t.|. Xr.e.r.|. X X|.|. X X|.}.*.*. X}.5.",
"*.4.5.5.|. X X X X X X Xr.e. X|.|. X|.|.|.}.r.e.e.}.t.}. X|.|. X|.}.5.}.|. X|.r.}.}.5.r.|. X X X X X X Xr.e. X|.|. X X|.|.t.r.e.5.}.}.|. X|.|. X|.}.}.}. X X5.*.",
"*.*.4.5.r.|.|. X X X X}.e.r. X X X X|.|.|.|.r.e.t.|.r.r.}.r.r. X X X}.}.|. Xr.4.}.r.5.4.r.|.|.|. X X X}.e.r. X X|. X|.|. X|.r.4.r.|.r.e.}.r.r. X X|.}.|. X X*.$.",
"*.*.*.*.5.5.}.}. X X|.5.5.|. X X|.|.|.t. X X}.r.|.|.}.e.e.e.}.|. X X}.|. X X}.e.|.r.4.*.e.r.r.|. X X|.r.r.}. X X X|.|.t. X X}.r.}. X|.e.e.r.}.|. X X}. X X|.*.%.",
"5.4.*.4.5.*.5.|.|. X}.}.r.}.|.r.e.e.e.r. X X X}.|. X X X}. X|.}.4.5. X X X|.|. X X5.4.4.e.;.r.}.|.|.|.}.r.}.|.}.e.5.e.r. X X|.|.|.|. X X|.|.|.r.4.5. X X X}.}.*.",
"&.&.*.*.;.*.5.5.5.5.4.5.5.5.e.e.e.5.e.r.e.r.t.}.t.e.}.r.r.}.r.r.*.&.}.5.*.*.r.r.r.4.&.4.e.e.5.5.;.;.;.e.e.e.r.e.e.4.r.r.r.r.r.r.r.r.}.r.r.r.r.r.&.*.}.5.*.*.*.*.",
"$.%.*.*.e.e.*.*.&.%.&.*.4.*.&.4.e.4.e.4.&.-.;.e.e.;.;.;.;.;.;.;.&.%.*.&.$.%.&.4.4.&.*.*.e.e.3.&.;.&.&.*.;.*.&.*.e.4.e.4.&.%.4.r.5.*.*.*.*.*.e.e.%.%.*.&.$.%.%.$."
};
