/* XPM */
static char *_4f85df0e6d24dbfc7f619ef032478a9qBbkw2XGeCbvEsrG[] = {
/* columns rows colors chars-per-pixel */
"80 80 226 2 ",
"   c #020304",
".  c #05060A",
"X  c #06090C",
"o  c #0A0B0D",
"O  c #090807",
"+  c #150709",
"@  c #130A0A",
"#  c #190506",
"$  c #0C130C",
"%  c #0C1407",
"&  c #111E0A",
"*  c #1E150C",
"=  c #0A0D12",
"-  c #070C11",
";  c #1A0F13",
":  c #0D1115",
">  c #0D1319",
",  c #0F1812",
"<  c #131416",
"1  c #11161B",
"2  c #14191E",
"3  c #181718",
"4  c #270708",
"5  c #370807",
"6  c #261618",
"7  c #391415",
"8  c #32160C",
"9  c #192C0E",
"0  c #14240C",
"q  c #1D330F",
"w  c #182715",
"e  c #1E3314",
"r  c #292517",
"t  c #223C12",
"y  c #243B19",
"u  c #383119",
"i  c #332711",
"p  c #161B20",
"a  c #191D22",
"s  c #281E22",
"d  c #1C2126",
"f  c #1E242A",
"g  c #21262B",
"h  c #23292E",
"j  c #2B2527",
"k  c #332E24",
"l  c #233323",
"z  c #3B3325",
"x  c #262B31",
"c  c #292E34",
"v  c #2B3135",
"b  c #2D333A",
"n  c #31373D",
"m  c #4E0201",
"M  c #470905",
"N  c #540301",
"B  c #5B0402",
"V  c #560C05",
"C  c #4A1809",
"Z  c #5A1607",
"A  c #441616",
"S  c #440E10",
"D  c #640300",
"F  c #6D0401",
"G  c #690C04",
"H  c #740401",
"J  c #7C0300",
"K  c #760C03",
"L  c #7C0C04",
"P  c #6B1706",
"I  c #7B1605",
"U  c #503110",
"Y  c #66250C",
"T  c #732509",
"R  c #65350D",
"E  c #692B13",
"W  c #693816",
"Q  c #7D2310",
"!  c #47312B",
"~  c #264414",
"^  c #2A4B16",
"/  c #2C4C19",
"(  c #284618",
")  c #2E5318",
"_  c #335B19",
"`  c #30551A",
"'  c #3E461C",
"]  c #37631B",
"[  c #39661C",
"{  c #3D6D1D",
"}  c #3E711F",
"|  c #365E22",
" . c #314729",
".. c #3C6624",
"X. c #3F7320",
"o. c #5A400F",
"O. c #474615",
"+. c #535616",
"@. c #4B5F18",
"#. c #664616",
"$. c #76481B",
"%. c #625719",
"&. c #7B561C",
"*. c #79420E",
"=. c #48671B",
"-. c #56671B",
";. c #41751F",
":. c #4D731E",
">. c #43791F",
",. c #4F7A1F",
"<. c #55701D",
"1. c #626319",
"2. c #4B4432",
"3. c #56472F",
"4. c #774922",
"5. c #795226",
"6. c #6A5938",
"7. c #694E27",
"8. c #427720",
"9. c #417520",
"0. c #417620",
"q. c #437820",
"w. c #437A20",
"e. c #447B21",
"r. c #447921",
"t. c #457C21",
"y. c #467F21",
"u. c #457C22",
"i. c #467F22",
"p. c #467D21",
"a. c #457C21",
"s. c #497822",
"d. c #546F2B",
"f. c #6E6A2B",
"g. c #353B42",
"h. c #665A43",
"j. c #786A4C",
"k. c #840400",
"l. c #8A0500",
"z. c #830B01",
"x. c #8B0A01",
"c. c #920700",
"v. c #940B01",
"b. c #9A0C01",
"n. c #881504",
"m. c #941303",
"M. c #9C1102",
"N. c #971B05",
"B. c #A20F01",
"V. c #A31201",
"C. c #AC1401",
"Z. c #A81A05",
"A. c #B71A04",
"S. c #962508",
"D. c #872A11",
"F. c #922C11",
"G. c #84330E",
"H. c #A8250A",
"J. c #B92705",
"K. c #AC3509",
"L. c #BF3E13",
"P. c #BA2E0A",
"I. c #C81E0A",
"U. c #C92A04",
"Y. c #D6220C",
"T. c #D43707",
"R. c #CD3308",
"E. c #894B16",
"W. c #AF4711",
"Q. c #835729",
"!. c #855830",
"~. c #98552C",
"^. c #866528",
"/. c #97682C",
"(. c #88693A",
"). c #936D39",
"_. c #977538",
"`. c #97752F",
"'. c #A37F3C",
"]. c #A45623",
"[. c #D6420C",
"{. c #D14B14",
"}. c #E84C0D",
"|. c #ED651D",
" X c #92784E",
".X c #A07F49",
"XX c #478122",
"oX c #468021",
"OX c #478122",
"+X c #488122",
"@X c #488322",
"#X c #498423",
"$X c #4A8523",
"%X c #4B8623",
"&X c #4B8724",
"*X c #498524",
"=X c #498423",
"-X c #4B8823",
";X c #4B8824",
":X c #4C8924",
">X c #4D8A24",
",X c #4E8B24",
"<X c #4D8C25",
"1X c #4C8A24",
"2X c #A2803E",
"3X c #978649",
"4X c #A78647",
"5X c #AA8C56",
"6X c #B4945B",
"7X c #BA9A59",
"8X c #B18F53",
"9X c #BFA05F",
"0X c #938976",
"qX c #AC9564",
"wX c #BD9E63",
"eX c #B69C67",
"rX c #BDA26A",
"tX c #C3A465",
"yX c #C3A569",
"uX c #C6A86C",
"iX c #C9AB6E",
"pX c #CBAE72",
"aX c #C6AC77",
"sX c #CDB178",
"dX c #D1B479",
"fX c #CAB280",
/* pixels */
") ] ;.{ { } } ;.;.{ { 8.;.;.;.;.} ;.;.;.{ { ;.r.q.;.>.;.} { { } } ;.8.} } r.8.{ ] { ;.{ { } } ;.;.{ { 8.;.;.;.;.} ;.;.;.{ { ;.r.q.;.>.;.} { { } } ;.8.} } r.{ _ ",
"[ { ;.;.8.8.} } ;.} ;.r.q.8.;.} } 8.;.} { } ;.8.;.} } } } 8.r.t.t.q.;.{ } r.t.t.q.;.;.;.8.8.} } ;.} ;.r.q.8.;.} } 8.;.} { } ;.8.;.} } } } 8.r.t.t.q.;.{ } r.;.{ ",
"r.8.8.t.t.t.} } ;.;.q.t.t.r.r.8.8.q.;.{ ;.q.t.8.9.} { } 8.XX;X:X-XXX;.{ } t.$X,X,XXX8.t.t.t.} } ;.;.q.t.t.r.r.8.8.q.;.} ;.q.t.8.9.} { } 8.XX;X:X-XXX;.{ } t.t.>.",
"} r.$X-X$XXX;.;.q.;.;.t.$X;X:X:X$XXX;.{ r.$X;X$XXXXX+X$X+X+X+X$X$X$X+Xq.8.XX+XXX+X+X$X-X$XXX;.;.q.;.;.t.$X;X:X:X$XXX;.} r.$X;X$XXXXX+X$X+X+X+X$X$X$X+Xq.8.XXq.} ",
"} q.+X+X$X-X+XXX+Xt.t.+X:X,X$X$X$X$XXXt.&X:X,X:X;X$X:X:X$Xt.t.t.r.t.$X+Xt.t.+X+XXXXX+X+X$X-X+XXX+Xt.t.+X:X,X$X$X$X$XXXt.&X:X,X:X;X$X:X:X$Xt.t.t.r.t.$X+Xt.t.q.;.",
";.;.;.8.t.,X,X:X$X+X+X+X:X-Xt.t.XX;X,X,X:X:X:X:X:X:X:X-X+Xr.q.r.} } $X:X$Xr.+X:X$Xr.;.8.t.,X,X:X$X+X+X+X:X$Xt.t.XX;X,X,X:X:X:X:X:X:X:X-X+Xt.q.r.} } $X:X$Xr.8.;.",
"{ } ;.r.t.t.t.t.r.8.8.q.q.r.+X$X$X&Xt.q.q.t.t.+X$X:X:X:X$Xq.8.q.{ } t.:X;Xt.8.q.t.q.;.r.t.t.t.t.r.8.8.q.q.r.+X$X$X&Xt.q.q.t.t.+X$X:X:X:X$Xq.8.q.{ } t.:X:Xt.} [ ",
"{ { ;.t.t.;.;.8.} } } } } X.t.$X$XXXt.r.q.q.q.8.t.&X:X:X-X+Xt.+Xq.q.+X:X&X8.} ;.t.q.;.t.t.;.;.8.} } } } } X.t.$X$XXXt.r.q.q.q.8.t.&X:X:X-X+Xt.+Xq.q.+X:X&X8.{ ] ",
"{ } ;.t.r.} } } } } } } } } { q.+Xt.$X,X$Xt.8.} q.&X:X:X:X,X,X,X$X+X;X,X$X} 8.t.t.q.;.t.r.} } } } } } } } } { q.+Xt.$X,X$Xt.8.} q.&X:X:X:X:X,X:X$X+X;X,X$X} { { ",
"{ } ;.r.t.8.} } { } } } ;.q.q.XX$X+X-X,X,X$Xt.+X&X;X:X:X$X+X$X$Xt.8.q.+X$XXX&X&Xt.8.;.r.r.8.} } { } } } >.q.q.XX$X+X$X,X,X$Xt.$X;X;X:X:X$X+X+X$Xr.8.q.+X$XXXr.;.",
"} } ;.t.+XXX;.;.8.r.r.q.t.XX+X;X:X$X$X:X&X$X$X:X:X:X,X$Xt.t.+X$X8.{ { t.;X$X&X:X+Xq.;.t.+XXX;.;.8.t.r.q.t.XX+X;X:X$X$X:X&X$X$X:X:X:X,X$Xt.t.+X+X8.{ { t.;X$Xt.>.",
">.;.8.&X,X:Xt.r.+X$X:X:X$X+X:X,X:XXX-X:Xt.XX&Xt.+X:X,X+X;.+X:X:X8.{ } +X:X8.t.&X:Xt.8.&X,X:Xt.r.+X-X:X:X+X+X:X,X:XXX-X:Xt.XX;Xt.+X:X,X+X;.+X:X:X8.{ } +X:X8.;.;.",
"{ } 8.t.&X:X:Xt.;.r.$X,X+Xt.:X+Xt.$X;X$X$X;X:X+X$X,X:X$X+X$X:X:X+Xt.$X:X;Xr.t.+XXXq.8.t.&X:X:XXX;.r.$X,X+Xt.:X+Xt.$X;X$X$X;X:X+X$X,X:X$X+X$X:X:X+Xt.$X:X;Xr.;.} ",
"{ } q.t.$X:X,X+X;.;.t.:XXXt.$Xt.t.-X+Xt.&X,X:X+X+X&X;X:X,X:X:X$X$X&X:X:X$X+X+X+Xt.q.q.t.$X:X,X$X;.;.t.:XXXt.$Xt.t.-X+Xt.&X,X:X+X+X;X;X:X,X:X:X$X$X&X:X:X$X+Xq.} ",
"} q.+X$X:X:X+X$X:Xt.t.$X+Xt.+X&X:X+X;.{ r.;X:Xq.;.t.+X&X$X:X:XXXt.t.{ _ >.+X;X:X$X+X+X$X:X:X+X$X:Xt.t.$X+Xt.+X&X:X+X;.{ r.;X:Xq.;.t.+X&X$X:X:XXXt.t.t.t.XX+Xt.q.",
"} t.:X+X$X,X$X$X:X:X$X+X+X$X&X:X:Xr.} } 8.r.t.;.;.q.t.t.q.t.+X$X+XXX~ % { $X&X:X+X$X:X+X$X,X$X$X:X:X$X+X+X$X&X:X:Xr.} } 8.r.t.;.;.q.t.t.q.XX+X$X+XXX+X$X&X;XXX>.",
"} t.$Xq.t.;X$X$X&X;X+Xr.t.+X&X:X;Xr.8.8.8.8.q.8.q.t.t.r.q.t.+X:X:X;X^   0 9 t t.+X$X$Xq.t.;X$X$X&X;X+Xr.t.+X&X:X;Xr.8.8.8.8.q.8.q.t.t.r.q.t.$X,X:X;X:X;X&X:XXX>.",
"8.q.q.} ;.t.t.XX+Xq.} } } 8.+X:X:X$X+Xt.t.+X:X&X&X&X$X] _ | | | | | y o o X , ....` ^ _ 8.t.t.XX+Xq.} } } 8.+X:X:X$X+Xt.t.+X:X&X&X&X$X$X:X:X:X:X:X:X:Xt.8.$Xt.>.",
";.r.t.8.8.q.q.r.r.8.8.t.} } XX:X:X-X$X+Xt.t.$X:X$Xt.+X9 o 2 2 2 2 2 p p 2 : < n h > . ~ { { ;.r.r.8.8.t.} } XX:X:X-X$X+Xt.t.$X:X:X:X:X$Xt.+X$X$Xt.r.XXr.;.8.q.>.",
"} t.;XXXt.r.r.r.8.q.t.+X8.} XX&X:X$X$X$Xt.t.+X&X^ 0 w $ - = = = = > 1 2 p 1 > d f h x w 0 & _ r.8.q.t.+X8.} XX&X:X$X$X$Xt.t.+X&X:X:X:X$Xq.t.+X$Xr.;.t.t.r.} ;.;.",
"q.t.+X&X:X:X$X+XXXq.} } { 8.;X&X+X+X$X:X:X:Xr./ 0 X o X X X = < < > 2 a h x f a d h v h 2   ( 9.XXq.} } { 8.;X&X+X+X$X:X:X:X:X+X+X$X$X:X,X:X:X:X:X:X:X:X&Xt.q.;.",
";.t.$X-X;X&X$X&X:X+Xt.t.t.+X:X:X+Xr.t.&X$X8.` $ , , o X .   1 p 2 > p g g.g.g.g d f h b c . g  .r.t.t.r.t.+X:X:X+Xr.t.&X$X+Xt.+X$X+XXXXX+X+X$X&X$X$X+X:X:X+Xt.>.",
"} t.-X$X+X+X$X$X:X:X,X:X,X,X:X:X$X;.q.t.r.t % X / / = : : : : : = 1 p g b b x h c c d h h d 1 3 l 9.,X:X,X:X:X:X$X;.q.t.r.;.8.:X:Xt.t.q.9.8.r.r.q.8.8.+X:X+Xr.>.",
";.q.t.+X&X:X+Xt.t.$X;X-X:X:X$XXXr.r.8.8.;._ ~ ^ ( e 1 : : = = : 2 f x v n b b v c j j j s s 3 3 p y ..-X:X:X$XXXr.r.8.8.;.r.+X,X+X8.8.r.r.q.8.8.X.8.t.XX+X+Xq.} ",
";.q.+X$X$X+Xt.t.t.t.t.r.$X:X$Xt.t.+Xt.q.t.+X+X8.e = 2 : = X o 2 h x v n g.n b b j 7 ! A 7 7 7 7 6 3 y r.$X:X$Xt.t.+Xt.q.t.+X&X,X+X} ;.8.q.8.;.} { 8.+X+Xt.XXq.} ",
"} r.&X:Xt.} q.t.+Xt.q.} t.&X+X+X$X:X$X+X:X:XX.w : : = - = 1 2 p d p p g n c d d S K J.Z.m.m.m.L V 5 u } XX;X$X$X$X:X$X+X:X:X&X:X+Xq.;.} } } } ;.} 8.+X+XXXt.q.;.",
";.t.$XXXq.{ { q.:X:X&X$X&X$Xt.$X:X:X:X:X:X] y : = = o : 1 2 2 1 1 a f x c s 7 S I Z.A.I.I.C.I.I.N.m.D.$.#.-.t.$X:X:X:X:X:X:X$X$X;X$X8.{ { } q.r.r.t.t.+X$X$Xt.;.",
";.t.$X+Xt.q.;.t.:X:X&X$X$X$XXX&X:X:X:X+X{ e : : o o = 1 2 2 > : 1 f x c s 7 B H M.A.B.I.Y.A.Y.Y.A.I.I.Z.m.W =.+X:X:X:X:X$XXXt.$X:X:Xt.q.q.t.XX$X$X$X+XXX+X$Xt.;.",
";.t.&X:X:X:X$X$X;X+Xt.q.XX;X:X:X:X$X+X{ 0 : : o X = p 1 : : o 1 g h f a 5 B k.c.x.z.v.C.A.C.A.C.c.A.A.A.C.z.C :.:X$X+X$XXXq.8.XX$X:X:X;X;X:X:X:X:X:X:X+Xt.t.q.;.",
"{ ;.+X:X$Xt.$X;X+X+Xt.;.+X,X,X$X+Xt.q.] $ X X o : 1 1 > : = : p h a p 3 5 D c.b.x.z.B.b.c.x.b.b.b.x.z.z.b.b.I <.+Xt.q.r.$X;X$Xq.t.:X:X:X:X;X;X:X:X$Xt.XX+Xq.} { ",
"{ 8.+X:X+X;.t.$X$XXXr.;.t.$X$Xt.t.t.{ ^ o % & o 1 1 > : = : 2 p d 2 2 6 M H b.x.z.k.M.l.J H l.v.M.L F H x.b.S.-.t.t.t.t.-X$X+Xt.t.&X:X:X:X+X+X-X$X+Xt.$X;Xt.} { ",
";.t.:X:X$Xt.q.+X,Xt.;.;.>.q.8.q.t.+X~     ~ ` : = : : o : p p 1 > 2 3 7 F b.M.N F l.L k.J H k.v.C.b.v.v.H J N.-.t.+X;X:X$X;.;.$X-XXX;X,X:Xt.r.$X$X$X:X:X:X$Xt.q.",
";.r.$X$XXXt.t.+X+XXXr.;.t.$Xt.t.+X$X{ ) ) { [ $ = : o o : p 2 > : 2 6 M H b.M.N H x.B B B N H c.B.x.H D D D Z =.+X$XXXt.t.+X+X$Xt.r.$X:X:Xt.t.$X:X-X$Xt.r.&X+Xr.",
"{ ;.t.XXXX+X$X$Xt.$X$Xq.+X-X&X$X+X&Xt.8.t.-X{ $ = = X o : 2 > : > 2 8 N k.b.m.N F L Z E E W P J c.I Y Y Z Z U :.+X&Xt.=.+.$X:Xt.q.q.+X;X:X+X+X&X:X$Xt.;.8.;XXX;.",
"} ;.r.t.+X:X:X:X:X:X:X-Xq.q.:X$X+X:X&X+X+Xt._ : - X . = > > = : > > 4 B M.V.z.N m Z 5._.4X8XW N F $.^./.R O.:X$X+X-X-XW J +Xt.8.q.XXt.$X,X$X$X:X$Xt.t.XX$X:Xq.{ ",
"} ;.;.8.t.$X$X$X,X:X$XXXq.t.;X:X:X:X$X$X&X/ & = o X . : 1 : = : 2 > 4 D M.b.K m N Z ! ! 6.uX5X X~.(.(.).#.+.;X:X%.G.W.K.K.+Xr.8.t.$Xr.r.t.r.t.:X:X$Xt.+X$X:X;.] ",
"} } } } 8.t.t.+X:X:X+Xq.t.+X&X;X&X+XXX+X:Xt . X X o = > > = = : 2 ; M H V.v.K P E W 6.k ! qXrXwX6X X X5X$.o.%.%.G.Z.T.[.R.;XXXt.+X$Xt.r.8.q.t.$X:X&X+X$X-X;X8.[ ",
"q.;.} ;.8.8.t.+X$X$X$XXXt.t.$Xt.q.q.8.r.+Xy = o . o 1 : = - > > > 4 B c.V.m.I Q.!.).5X2.k j.qXpXpX0X0XaX5.P k.v.C.U.}.[.L.,X$X+X+X&X:X&XXX$X$Xt.;.q.&X:X:X+Xr.;.",
"8.8.q.t.t.t.t.t.XXXXXX+X+XXXt.t.t.t.t.{ e , = .   . > : = o > 1 : 4 B v.C.S.4._.8X8X(.u r 6.qXpXiX2.h.sX5.P l.V.A.R.}.[.L.&X$X&X$X$X;X$X+X$X:X+X;.;.$X$Xt.q.q.q.",
"{ 8.XX+X$X;XXXt.t.q.t.+X$X+Xt.$X;X$X:X{ % . $ t % . > = = : 1 > : 4 B b.C.F.Q.8XyXwX(.z j 6.qXsXpXz 3.fX3.Z l.C.J.T.}.{.L.r.#X:X:X+X$X+X+X+X$X;Xr.>.$Xt.;.q.;.} ",
"] ;.$X+XXX$X$X$X$Xt.t.$X;X&X&X&X$X$X:X{ & % 9 $Xq . : o = 2 > > = 4 B b.C.F.!.wXpXrX X2.k 6.qXdXdX2.h.sXz 5 k.C.J.T.|.{.W.t.$X,X,X$X:X;XXXt.t.XX+X$X&XXXt.:Xt.{ ",
"{ ;.t.t.t.XXr.r.t.q.t.$X+X+X+Xt.r.t.t.8.[ ] { t.q   = X = 1 > = o 4 B b.C.F.!.tXpXuXqX2.z  XeXdXdX6.j.aXk 4 D V.J.R.{.^.<.>.t.XXt.r.r.q.q.t.+X$X&X$Xt.q.r.$Xt.;.",
"r.8.8.t.t.t.} } ;.8.q.t.t.r.r.8.8.q.8.{ ;.q.t.8.9   X X = > : = o 4 B b.C.F.!.yXpXpXrX X XqXuXsXsX5XqXsXk + 5 V I S.E.O.t q.t.8.8.} { } 8.XX;X:X-XXX;.{ } t.t.>.",
"} r.$X-X$XXX;.;.q.;.;.t.$X&X:X;X$XXX;.{ r.$X+X{ 9   . . - > = o o # N c.C.F.!.yXpXpXpXpXiXuXiXiXyXpXsXeXk o o   5 Y =.t % +X$X$XXXXX+X+X+X+X+X$X$X$X+Xq.8.XXq.} ",
"} q.+X+X$X-X+XXX+Xt.t.+X:X,X$X$X$X$XXXt.&X:X{ & O     . X : o X . . 5 H V.F.!.yXpXpXpXpXyX5XtXwX4XuX6X7.* : p . t ,.y.;.;.:X,X:X;X$X:X:X$Xt.t.t.r.t.$X+Xt.t.q.;.",
";.;.;.8.t.,X,X:X$X+X+X+X:X$Xt.t.XX;X,X,X:X:X[ O 9 q   X o o o @ # . 4 D b.F.Q.8XtXpXpXpXuX6X4X.X4X6X3X@.r < , t ] ;X,X,X:X:X:X:X:X:X:X-X+Xr.q.r.} } $X:X$Xr.8.;.",
"{ } ;.r.t.t.t.t.r.8.8.q.q.r.+X$X$X&Xt.q.q.t.[ 0 _ ] X = = o + 5 M 4 5 B x.D.5.2X7XtXyXiXiXyX.X).4X3Xf._ l < % { $X&Xt.q.q.t.t.+X$X:X:X:X$Xq.8.q.{ } t.:X:Xt.{ [ ",
"{ { ;.t.t.;.;.8.} } } } } X.t.$X$XXXt.r.q.q.8.{ r.] - o .   5 K Z.Z M B J Q 5.'.4X4X4X9XiXpXuX6X).d./ O 1 : % { $XXXt.r.q.q.q.8.t.&X:X:X-X+Xt.+Xq.q.+X:X&X8.{ ] ",
"{ } ;.t.r.} } } } } } } } } { q.+Xt.$X,X$Xt.8.} ^ 9 4 5 M G n.J.T.S.P B J K E Q.^.^.`._.).6.(.f.d.s./ o 2 e ^ } +Xt.$X:X$Xt.8.} q.&X:X:X:X:X,X:X$X+X;X,X$X} { { ",
"{ } ;.r.r.8.} } { } } } ;.q.q.XX$X+X-X,X,X$Xt.+X^ * m D n.A.U.T.}.J.m.K K F G E.*.#.#.#.U * C o.{ X./ : 1 ( q.XX$X+X$X,X,X$Xt.+X;X;X:X:X$X+X+X$Xr.8.q.+X$XXXr.;.",
"} } ;.t.+XXX;.;.8.r.r.q.t.XX+X;X:X$X$X:X&X$X$X:X-X%.c.B.A.A.R.}.|.H.C.J.K B K T.S.C @ o o < V Y 8.r.` : . t +X;X:X$X&X:X&X$X$X:X:X:X,X$Xt.t.+X+X8.{ { t.;X$Xt.>.",
">.;.8.&X,X:Xt.r.+X$X:X:X$X+X:X,X:XXX-X:Xt.XX&Xt.+X1.v.C.U.R.K.W.W.N.C.U.P.S.I S.K.K.T 8 8 G.n.Q 1.f.O.: ~ { :X,X:XXX-X:Xt.XX;Xt.+X:X,X+X;.+X:X:X8.{ } $X:X8.;.;.",
"{ } 8.t.&X:X:XXX;.r.$X,X+Xt.:X+Xt.$X;X$X$X;X:X+X$X1.v.Z.P.W.]./.~.S.Z.J.T.J.N.I P.[.P.P Y {.H.D.Q.).7.r =.t.:X+Xt.$X;X$X$X;X:X+X$X,X:X$X+X$X:X:X+Xt.$X:X;Xt.;.} ",
"{ } q.t.$X:X,X+X;.;.t.:XXXt.$Xt.t.-X+Xt.&X,X:X+X+X1.v.S.G.&.6XiXwX~.N.V.A.U.J.I P.}.}.A.Z.|.H.D.`.7X4X#.:.t.$Xt.t.-X+Xt.&X,X:X+X+X;X;X:X,X:X:X$X$X&X:X:X$X+Xq.} ",
"} q.+X$X:X:X+X$X:Xt.t.$X+Xt.+X&X:X+X;.{ r.;X:Xq.;.-.T E./.5XyXpXiX8X~.n.V.C.C.Z.J.R.T.C.V.R.N.D._.wX4X#.:.t.XX&X:X+X;.{ r.;X:Xq.;.t.$X&X$X:X:XXXt.t.t.t.XX+Xt.q.",
"} t.:X+X$X,X$X$X:X:X$X+X+X$X&X:X:Xr.} } 8.r.t.;.} =.R &.2XyXuXyXtXyX).Y G K x.m.m.N.N.z.K I I E.4XwX.X#.:.$X&X:X:Xr.} } 8.r.t.;.;.q.t.t.q.t.+X$X+XXX+X$X&X;XXX>.",
"} t.$Xq.t.;X$X$X&X;X+Xr.t.+X&X:X;Xr.8.8.8.8.q.8.q.=.R &.2XuXtX7X4X7X(.i @ 5 m m m N V M 5 < U ~.6X6X_.#.:.+X&X:X;Xr.8.8.8.8.q.8.q.t.t.r.q.t.$X,X:X;X:X;X&X:XXX>.",
"8.q.q.} ;.t.t.XX+Xq.} } } 8.+X:X:X$X+Xt.t.+X:X&X&X<.R &.`.8XtX8X^._.5.i @ @ ; ; 6 s ! ! j : U W $.$.%.=.;.8.+X:X:X$X+Xt.t.+X:X&X&X&X$X$X:X:X:X:X:X:X:Xt.8.$Xt.>.",
";.r.t.8.8.q.q.r.r.8.8.t.} } XX:X:X-X$X+Xt.t.$X:X:X,.+.%.^.4X7X4X#.$.E Z M 4 = = : 2 h h g 4 8 U +.+.@.t.} } XX:X:X-X$X+Xt.t.$X:X:X:X:X$Xt.+X$X$Xt.r.XXr.;.8.q.;.",
"} t.;XXXt.r.r.r.8.q.t.+X8.} XX&X:X$X$X$Xt.t.+X&X-X$Xt.' 3._.8X).U Z G z.z.M + + + + + + 4 M 5 u X.8.t.+X8.} XX&X:X$X$X$Xt.t.+X&X:X:X:X$Xq.t.+X$Xr.;.t.t.r.} ;.;.",
"q.t.+X&X:X:X$X+XXXq.} } { 8.;X&X+X+X$X:X:X:X:XXX+X{ w 3 r U 5.7.U 6 5 D x.x.z.z.n.n.K G G V ! v l ..X.X.{ 8.;X&X+X+X$X:X:X:X:X+X+X$X$X:X,X:X:X:X:X:X:X:X&Xt.q.;.",
";.t.$X-X;X&X$X&X:X+Xt.r.t.+X:X:X+Xr.t.&X$X+Xt.+X_ e o : 3 r u u r 3 6 A G z.x.c.b.b.z.G C 7 j h p y _ r.t.+X:X:X+Xr.t.&X$X+Xt.+X$X+XXXXX+X+X$X&X$X$X+X:X,X+Xt.>.",
"} t.-X$X+X+X$X$X:X:X,X:X,X:X:X:X$X;.q.t.r.;.8.;Xq   o = : > 2 p p p g j S N F J J J D 7 3 p 2 1 : $ ~ :X,X:X:X:X$X;.q.t.r.;.8.:X:Xt.t.q.9.8.r.r.q.8.8.+X:X+Xr.>.",
";.q.t.+X&X:X+Xt.t.$X;X-X:X:X$XXXr.r.8.8.;.r.+X,Xq   . o = : : > > 1 p p ; 4 M N M 5 4 ; : > = o o ) a.-X:X:X-XXXr.r.8.8.;.r.+X,X+X8.8.r.r.q.8.8.X.8.t.XX+X+Xq.} ",
";.q.+X$X$X+Xt.t.t.t.t.r.$X:X$Xt.t.+Xt.q.t.+X&X,X_ 9     . - - - - = = : X r O.O.i + @ o X X e ( / { t.r.$X:X$Xt.t.+Xt.q.t.+X&X,X+X} ;.8.q.8.;.} { 8.+X+Xt.XXq.} ",
"} r.&X:Xt.} 8.t.+Xt.q.} t.&X+X+X$X:X$X+X:X:X&X:X+X)       . . . . . . . . ~ +X$Xt           ^ t.+Xt.q.} t.&X+X+X$X:X$X+X:X:X&X:X+Xq.;.} } } } ;.} 8.+X+XXXt.q.;.",
";.t.$XXX8.{ { q.:X:X&X$X;X$Xt.$X:X:X:X:X:X:X$X$X;X$X8.{ { } q.r.t.t.t.+X$X$X:X;X$X$X$XXXq.{ { q.:X:X&X$X&X$Xt.$X:X:X:X:X:X:X$X$X;X$X8.{ { } q.r.r.t.t.+X$X$Xt.;.",
";.t.$X+Xt.q.;.t.:X:X&X$X-X$XXX&X:X:X:X:X$XXXt.$X:X:Xt.q.q.t.XX$X$X$X$XXX+X$X:X;X$X$X$X+Xt.q.;.t.:X:X&X$X$X$XXX&X:X:X:X:X$XXXt.$X:X:Xt.q.q.t.XX$X$X$X$XXX+X$Xt.;.",
";.t.&X:X:X:X$X$X;X+Xt.q.XX&X:X:X:X$X+X$XXXq.8.XX$X:X:X;X;X:X:X:X:X:X:X+Xt.t.+X$X+X$X&X:X:X:X$X$X;X+Xt.q.XX&X:X:X:X$X$X$XXXq.8.XX$X:X:X;X;X:X:X:X:X:X:X+Xt.t.q.;.",
"{ ;.+X:X$Xt.$X;X+X+Xt.;.+X,X,X$X+Xt.q.r.$X;X$Xq.t.:X:X:X:X&X;X:X:X$Xt.XX+Xq.q.r.t.t.+X:X$Xt.$X;X+X+Xt.;.+X,X,X-X+XXXq.r.$X;X$Xq.t.:X:X:X:X&X;X:X:X$Xt.XX+Xq.} { ",
"} 8.+X:X+X;.t.$X$XXXr.;.t.$X$Xt.t.t.t.t.$X-X+Xt.t.&X:X:X:X+X+X$X$X+Xt.$X;Xt.r.t.t.XX+X:X+X;.t.$X$XXXr.;.t.$X$Xt.t.XXt.t.$X$X+Xt.t.&X:X:X:X+X+X$X$X+Xt.$X;Xt.} { ",
";.t.:X:X$Xt.q.+X,Xt.;.;.>.q.8.q.t.+X;X:X$X;.;.$X-XXX;X,X:Xt.r.$X$X$X:X:X:X$X&X:X&X;X:X:X$Xt.q.+X,Xt.;.;.>.q.8.q.t.+X;X:X+X;.;.$X-XXX;X,X:Xt.r.$X$X$X:X:X:X$Xt.q.",
";.r.$X$XXXt.t.+X+XXXr.;.t.$Xt.t.+X$XXXt.t.+X+X$Xt.r.$X:X:Xt.t.$X:X-X$Xt.r.&X,X:X+X+X$X$XXXt.t.+X+XXXr.;.t.$Xt.t.+X$XXXt.t.+X+X$Xt.r.$X:X:XXXt.$X:X-X$Xt.r.&X+Xr.",
"{ ;.t.XXXX+X$X$Xt.$X$Xq.+X-X&X$X+X&Xt.q.t.$X:Xt.q.q.+X;X:X+X+X&X:X$Xt.;.8.:X:X&XXXt.t.t.XX+X$X$Xt.$X$Xq.+X-X&X$X+X&Xt.8.t.$X:Xt.q.q.+X;X:X+X+X&X:X$XXX;.8.;XXX;.",
"} ;.r.t.+X:X:X:X:X:X:X-Xq.q.:X$X+X:X&X+X+X+Xt.8.q.XXXX$X,X$X$X:X$Xt.t.XX$X:X+Xt.XXt.r.t.+X:X:X:X:X:X:X-Xq.q.:X$X+X:X&X+X+X+Xt.8.q.XXXX$X,X$X$X:X$Xt.t.XX$X:Xq.{ ",
"} ;.;.8.t.$X+X$X:X:X$XXXq.t.;X:X:X:X$X$X&X+Xr.8.t.$Xt.r.t.r.t.:X:X$Xt.+X$X:Xt.8.XXt.;.8.t.$X+X$X:X:X$XXXq.t.;X:X:X:X$X$X&X+Xr.8.t.$Xr.r.t.r.t.:X:X$Xt.+X$X:X;.] ",
"} } } } 8.t.t.+X:X:X+Xq.t.+X&X;X&X+XXX+X:X;XXXt.+X$Xt.r.q.q.t.$X:X&X+X$X-X;Xt.q.+Xt.} } 8.t.t.+X:X:X+Xq.t.+X&X;X&X+XXX+X:X;XXXt.+X$Xt.r.8.q.t.$X:X&X+X$X;X;X8.[ ",
"q.;.} ;.8.8.t.+X$X$X$XXXt.t.$Xt.q.q.8.t.:X,X$X+X+X&X:X&XXX$X$Xt.;.q.&X:X-X+X$X:X:Xt.} ;.8.8.t.+X$X$X$XXXt.t.$Xt.q.q.8.t.:X,X$X+X+X&X:X&XXX$X$Xt.;.q.&X:X-X+Xr.;.",
"{ { } ;.8.;.;.;.>.;.;.q.q.q.q.8.8.;.8.q.q.t.t.t.t.t.t.t.r.t.t.q.{ { t.r.;.;.r.XXt.;.} ;.8.;.;.;.>.;.;.q.q.q.q.8.8.;.8.q.q.t.t.t.t.t.t.t.r.t.t.q.{ { t.r.;.;.} { ",
"] { } } 8.8.} { { { { } ;.} { ;.q.;.q.;.{ { ;.q.8.} } } ;.} ;.q.{ { ;.{ ] [ { ;.} } } } 8.8.} { { { { } ;.} { ;.q.;.q.;.{ { ;.q.8.} } } ;.} ;.q.{ { ;.{ ] [ [ ] "
};
